ply
format ascii 1.0
element vertex 683
property float x
property float y
property float z
element face 1362
property list uchar int vertex_indices
end_header
-0.2930646 0.5115644 0.005120785
-0.2975886 0.5083612 -0.005243037
-0.30813 0.5084428 -0.0008817046
-0.2825575 0.5108919 0.0007895959
-0.3435788 0.5100892 0.001008291
-0.3485225 0.5070529 -0.0087706
-0.3590619 0.5071744 -0.004410983
-0.3380542 0.505721 -0.01306783
-0.3548958 0.5114132 0.004882538
-0.2150588 0.5089258 -0.01477456
-0.2194775 0.5075111 -0.02523087
-0.230058 0.5069332 -0.02083516
-0.2256342 0.5084305 -0.01038326
-0.2457568 0.5141619 -0.0004092288
-0.2510507 0.5086357 -0.01219151
-0.2616117 0.5083894 -0.007812913
-0.235995 0.5115921 -0.006180502
-0.2404692 0.5092375 -0.01658817
-0.2239615 0.5049875 -0.03562976
-0.2090723 0.505107 -0.02947251
-0.2045744 0.5078663 -0.01908578
-0.220383 0.5145373 -0.0005183335
-0.210191 0.5129035 -0.003726443
-0.2185021 0.5256457 0.003592763
-0.2001146 0.50998 -0.008665537
-0.1899406 0.5036401 -0.01270431
-0.1946831 0.5130324 0.0004349489
-0.1854183 0.5068179 -0.002339237
-0.1803554 0.5144355 0.006901389
-0.1791278 0.5000649 -0.004759148
-0.1709014 0.499911 0.0046641
-0.1645605 0.5114856 0.0118822
-0.1641186 0.5228711 0.01175367
-0.4443667 0.6064352 0.003546718
-0.45604 0.5971481 0.01239617
-0.4570484 0.6025223 0.008903167
-0.4355427 0.6095461 -0.0001909823
-0.4397768 0.611275 -0.01080929
-0.4249217 0.6108134 -0.004622158
-0.4341786 0.6068302 0.003649423
-0.4503607 0.6106393 -0.006410698
-0.4222451 0.6060851 0.002796968
-0.4547742 0.6093159 -0.01687168
-0.4144202 0.6100501 -0.00894852
-0.4038512 0.6104358 -0.01333417
-0.3996777 0.6076751 -0.002662561
-0.3890522 0.6090194 -0.007097873
-0.3932662 0.6110901 -0.01773381
-0.3783894 0.6109983 -0.01156567
-0.3827004 0.6114185 -0.02211665
-0.2395575 0.6279008 -0.03504789
-0.2319161 0.6265718 -0.04821733
-0.2271539 0.6301398 -0.03772137
-0.216453 0.6327655 -0.04222274
-0.2209954 0.629248 -0.05257035
-0.2120419 0.6340474 -0.03175979
-0.2103556 0.6308364 -0.05701825
-0.2034886 0.6366186 -0.04146566
-0.2058239 0.6341692 -0.04666106
-0.2012789 0.6367911 -0.03597713
-0.1937269 0.6353951 -0.05133074
-0.1907033 0.6382269 -0.04070701
-0.1862504 0.636143 -0.03026798
-0.1801061 0.6390941 -0.04511756
-0.1758239 0.6381869 -0.03454145
-0.1852224 0.6358011 -0.05690243
-0.1704556 0.6350251 -0.02537281
-0.1651221 0.6408281 -0.03904362
-0.1735603 0.6397962 -0.06029585
-0.1694694 0.6406312 -0.04956255
-0.1608673 0.639451 -0.02844346
-0.2913046 0.5096073 -0.02020238
-0.3018289 0.5099846 -0.01585616
-0.3059235 0.5140833 -0.02659662
-0.2953637 0.5143121 -0.03097417
-0.2973409 0.5168041 -0.03626011
-0.2809722 0.5102239 -0.02469142
-0.3100774 0.5169219 -0.03979389
-0.2849676 0.51627 -0.03493444
-0.2764763 0.5086888 -0.01399178
-0.3210501 0.509922 -0.03254526
-0.2887589 0.521016 -0.04621506
-0.2659449 0.5084323 -0.01834423
-0.2735783 0.5163159 -0.03841391
-0.3245192 0.5177849 -0.04401019
-0.2553771 0.5087934 -0.02272875
-0.25957 0.5112259 -0.03338342
-0.278134 0.5223503 -0.0506498
-0.261624 0.5145628 -0.03902046
-0.2634624 0.5187666 -0.04430148
-0.2448806 0.5079464 -0.02705086
-0.2492845 0.5132938 -0.03878431
-0.234452 0.5059417 -0.0313131
-0.2385763 0.5095367 -0.0420279
-0.2401393 0.5129155 -0.04647974
-0.2282489 0.5142378 -0.04555461
-0.2132948 0.507032 -0.04010114
-0.214728 0.5115268 -0.0444544
-0.221386 0.523075 -0.04951328
-0.2028083 0.5060127 -0.04441429
-0.215684 0.5227685 -0.0489606
-0.1998467 0.4995668 -0.03381623
-0.2037538 0.5107183 -0.0476248
-0.2163117 0.5347118 -0.05141252
-0.2041518 0.5219968 -0.05078281
-0.1891721 0.4972998 -0.03958311
-0.1925433 0.512498 -0.04832914
-0.2043535 0.5332882 -0.05346657
-0.1793049 0.5092662 -0.04792429
-0.1921562 0.5212557 -0.05148471
-0.204009 0.5437891 -0.05752581
-0.1780975 0.4974899 -0.04270352
-0.1869753 0.5209569 -0.0513762
-0.1924537 0.5325408 -0.05440011
-0.1842728 0.4944053 -0.02712273
-0.1682933 0.5084602 -0.05100352
-0.1799817 0.5205263 -0.05175544
-0.1739563 0.4904888 -0.03128653
-0.1674548 0.4968775 -0.04671717
-0.1687202 0.5197368 -0.05423165
-0.1805097 0.5265306 -0.0542046
-0.1574792 0.4963366 -0.05236416
-0.1583295 0.51889 -0.05881104
-0.1647346 0.4852057 -0.03559661
-0.1577691 0.5076221 -0.05526104
-0.4111448 0.5281844 -0.04504356
-0.4121842 0.5343255 -0.04876077
-0.4246558 0.5350353 -0.04920769
-0.4071259 0.5341259 -0.04686917
-0.4218342 0.5257539 -0.04055226
-0.3980325 0.5337265 -0.04425474
-0.4092179 0.5232162 -0.03939881
-0.4353208 0.5358641 -0.04529065
-0.4201648 0.5240265 -0.03616232
-0.4317654 0.5257146 -0.03468429
-0.396883 0.5235836 -0.03795755
-0.407351 0.5189637 -0.03403876
-0.4178143 0.5203821 -0.02974605
-0.4284636 0.5186318 -0.02529006
-0.3927225 0.5146477 -0.02765265
-0.4121471 0.5129352 -0.01967116
-0.4390998 0.5171016 -0.02084536
-0.3814455 0.5218524 -0.03258069
-0.4411077 0.5263881 -0.0297343
-0.4522395 0.5265076 -0.02460453
-0.418753 0.6101028 -0.0194804
-0.408269 0.6090373 -0.02379132
-0.3977746 0.6081514 -0.02811129
-0.4292434 0.6110517 -0.01516366
-0.3141851 0.5082413 -0.01069356
-0.3165511 0.5127 -0.0221595
-0.3256085 0.5069113 -0.01825219
-0.3231207 0.5065969 -0.006949671
-0.3296258 0.5071138 -0.02970467
-0.3357708 0.5178291 -0.03985309
-0.3427801 0.5077143 -0.02493196
-0.3463384 0.5186554 -0.03569901
-0.3572572 0.5189999 -0.03230414
-0.3535231 0.508289 -0.02115445
-0.3669122 0.5113423 -0.02428549
-0.3706742 0.5226656 -0.03562136
-0.1584491 0.5301868 -0.06129643
-0.1704675 0.5328467 -0.05828273
-0.1587741 0.5416117 -0.06359474
-0.1808696 0.5427938 -0.05856498
-0.1809442 0.5317677 -0.05627697
-0.16981 0.5535789 -0.06345362
-0.158254 0.5564705 -0.06654629
-0.1810038 0.5543729 -0.06081421
-0.1697164 0.5648898 -0.06542388
-0.1927411 0.5551311 -0.0594875
-0.1928092 0.5438219 -0.05745558
-0.1583876 0.5754095 -0.06993388
-0.1811359 0.5656689 -0.06332941
-0.1934115 0.5683787 -0.0621221
-0.1697448 0.5761926 -0.06768926
-0.1993003 0.5555137 -0.05954049
-0.1814803 0.5825394 -0.06764288
-0.204846 0.5671697 -0.06124583
-0.1696188 0.5875057 -0.06958122
-0.1930531 0.5777199 -0.06463402
-0.2045414 0.5784945 -0.06270649
-0.180034 0.5881464 -0.06902436
-0.1932996 0.5890085 -0.06742588
-0.1690191 0.5988499 -0.07032908
-0.1792475 0.5994698 -0.06996252
-0.204356 0.5898114 -0.0644553
-0.1696074 0.6102768 -0.07332563
-0.1934369 0.6003041 -0.06995429
-0.1811703 0.6108853 -0.07219891
-0.1932787 0.611619 -0.07176819
-0.1803914 0.6222413 -0.07251344
-0.1911114 0.6230665 -0.06872935
-0.1698137 0.6214067 -0.07664146
-0.1788274 0.6289458 -0.07001808
-0.1680313 0.6327074 -0.07450884
-0.18949 0.6269693 -0.06555015
-0.1772583 0.6337524 -0.06714197
-0.2529413 0.6240309 -0.03920384
-0.2687329 0.6182202 -0.04644693
-0.2575336 0.619662 -0.04950739
-0.2592833 0.616459 -0.05313417
-0.2423635 0.6245669 -0.04359724
-0.27344 0.6074803 -0.05579138
-0.2476957 0.6169152 -0.05506001
-0.2840991 0.6084642 -0.05189016
-0.2634953 0.6046801 -0.05885599
-0.2513307 0.6041471 -0.06140621
-0.2364279 0.6198806 -0.05825036
-0.2751341 0.594337 -0.05735192
-0.2400487 0.6033589 -0.06383304
-0.2381135 0.6147909 -0.06135498
-0.2867075 0.5951059 -0.05562899
-0.2566328 0.5932035 -0.06105975
-0.2638896 0.5935464 -0.05986847
-0.2409319 0.591996 -0.06377007
-0.2231582 0.6255494 -0.05710397
-0.2263958 0.6152164 -0.06295898
-0.2760961 0.5829689 -0.05747889
-0.2959597 0.6073325 -0.05049567
-0.2642738 0.5831848 -0.05791824
-0.2287675 0.591266 -0.06406497
-0.2284916 0.6025888 -0.06559535
-0.2881743 0.5837046 -0.05697561
-0.2985081 0.5958599 -0.05445496
-0.2939307 0.6124801 -0.04656867
-0.2522188 0.5814791 -0.05915897
-0.2409968 0.580687 -0.06173036
-0.2133664 0.6246631 -0.06313065
-0.2147483 0.6009297 -0.06692556
-0.2768157 0.5716168 -0.05702068
-0.2985081 0.5843107 -0.05699873
-0.2657402 0.5709882 -0.05659087
-0.3098142 0.5985765 -0.05287423
-0.2995721 0.59026 -0.05595127
-0.2892585 0.6182083 -0.03633492
-0.3043657 0.6143793 -0.04230077
-0.2269828 0.5798509 -0.06197661
-0.2221663 0.5909142 -0.06336407
-0.2157537 0.6137495 -0.0668077
-0.300333 0.5730087 -0.05690796
-0.3074409 0.6081076 -0.04855018
-0.2998082 0.6181512 -0.03196622
-0.2409542 0.5693851 -0.05943107
-0.2291282 0.5705274 -0.05974133
-0.1999091 0.629133 -0.06129625
-0.2026273 0.6238392 -0.06686894
-0.2161146 0.5905681 -0.06318018
-0.2055089 0.6027146 -0.06976219
-0.2991609 0.5616331 -0.05678241
-0.2653765 0.5608554 -0.05712789
-0.3122936 0.5851784 -0.05588011
-0.2529054 0.5701292 -0.05862097
-0.3192259 0.6077306 -0.04711963
-0.3148893 0.614764 -0.03795481
-0.2167694 0.5679156 -0.06036855
-0.2163488 0.579248 -0.06154916
-0.2047099 0.6127392 -0.07126299
-0.3140199 0.5624553 -0.05565698
-0.2778305 0.5602452 -0.05727598
-0.3133913 0.5738014 -0.056335
-0.3241863 0.5859264 -0.05492948
-0.3223449 0.5973524 -0.05267742
-0.2533297 0.5587965 -0.05744933
-0.2310379 0.5574667 -0.05783587
-0.2168816 0.5566035 -0.05844326
-0.3006983 0.5481983 -0.05432095
-0.2779384 0.5489333 -0.05534023
-0.3298314 0.6092088 -0.04318411
-0.2414277 0.5580492 -0.05837827
-0.3143927 0.551126 -0.05436151
-0.3268087 0.5631477 -0.05454448
-0.2536345 0.5474717 -0.05598908
-0.2661009 0.5481871 -0.05632192
-0.3268933 0.574617 -0.05590459
-0.3349891 0.5884895 -0.05384155
-0.3340033 0.5981157 -0.05116045
-0.2168796 0.5452989 -0.05624169
-0.2358561 0.5464016 -0.0564831
-0.2051309 0.5558462 -0.05973762
-0.3145264 0.5398127 -0.05248762
-0.3260589 0.5518888 -0.05286339
-0.2900525 0.5383622 -0.05272714
-0.2669127 0.5368544 -0.05559736
-0.3403177 0.6101711 -0.03885916
-0.2417579 0.5467228 -0.05697934
-0.2290183 0.5460306 -0.055885
-0.3035836 0.5391808 -0.05227349
-0.3376364 0.5525199 -0.05151146
-0.3377269 0.5639563 -0.05356593
-0.2785944 0.5375857 -0.05472803
-0.2539416 0.536147 -0.05453474
-0.3375811 0.5752706 -0.05541027
-0.3455151 0.5988926 -0.04950376
-0.2422448 0.5365807 -0.05330729
-0.2288369 0.5347381 -0.05325032
-0.326395 0.5405622 -0.05147891
-0.314983 0.5284779 -0.05139428
-0.3377036 0.5413486 -0.04911667
-0.290142 0.5270516 -0.05074687
-0.2670605 0.5313186 -0.05547849
-0.3490737 0.5760449 -0.05349227
-0.3479012 0.5874268 -0.05285655
-0.3507105 0.6109041 -0.03426249
-0.326533 0.5292484 -0.04961567
-0.3044669 0.5278764 -0.05107611
-0.349646 0.5533977 -0.05048156
-0.3476495 0.5420145 -0.04753883
-0.2789766 0.5262558 -0.05345464
-0.2528006 0.5240012 -0.04940411
-0.3573799 0.5996385 -0.04827012
-0.3558756 0.6032712 -0.04532275
-0.2440526 0.5242607 -0.05234788
-0.3377389 0.5300416 -0.04700535
-0.3141434 0.5217684 -0.04805141
-0.3499197 0.5646845 -0.05333945
-0.2672565 0.5246412 -0.0554642
-0.361054 0.576787 -0.05275274
-0.3599538 0.5881642 -0.05229161
-0.3616435 0.6108084 -0.03081666
-0.2314403 0.5232618 -0.05734255
-0.2993936 0.519515 -0.04177193
-0.3618011 0.5541284 -0.05016431
-0.3617366 0.5654373 -0.0522048
-0.349651 0.5325069 -0.04583468
-0.3708565 0.5903469 -0.05137646
-0.3662752 0.6057723 -0.04108591
-0.3615125 0.5428429 -0.04727076
-0.3707289 0.5774298 -0.05131273
-0.3688923 0.6004115 -0.04640001
-0.3767498 0.6069915 -0.03678328
-0.3733225 0.5541697 -0.04915224
-0.3714789 0.56609 -0.05065169
-0.3617433 0.531523 -0.04563181
-0.3605075 0.5244468 -0.04125564
-0.3832557 0.5896919 -0.0492213
-0.3798996 0.6012177 -0.04331091
-0.3721703 0.61114 -0.02646797
-0.3760806 0.5437137 -0.04698421
-0.3727779 0.5323274 -0.04260741
-0.3847113 0.5782912 -0.05054115
-0.3817279 0.5960592 -0.0467483
-0.3872581 0.6076403 -0.0324508
-0.3856767 0.5556182 -0.04848039
-0.385655 0.5669244 -0.05062472
-0.3945613 0.5904785 -0.04685198
-0.3913948 0.6003719 -0.04108439
-0.3855177 0.5443242 -0.0458999
-0.3858418 0.5356141 -0.04278506
-0.3974602 0.5676781 -0.04946161
-0.3965815 0.5790406 -0.04953535
-0.3979197 0.5563431 -0.04837561
-0.4126143 0.5803657 -0.04574028
-0.4020366 0.6019043 -0.03724783
-0.3980924 0.5450273 -0.04659601
-0.4081914 0.5708208 -0.04756515
-0.4058444 0.5912666 -0.04442802
-0.4076441 0.5569198 -0.0482722
-0.4204294 0.5692277 -0.04558761
-0.4186802 0.5826504 -0.04394799
-0.4128062 0.6033936 -0.03371305
-0.4095641 0.5457066 -0.04649483
-0.4170441 0.5920601 -0.04180277
-0.4218475 0.5578296 -0.04681709
-0.4305415 0.5813976 -0.04253137
-0.4284438 0.5928385 -0.03964268
-0.4205531 0.6043766 -0.03112554
-0.4220432 0.5465122 -0.04509317
-0.4333618 0.5586024 -0.0449512
-0.4320858 0.5699912 -0.04406578
-0.4392406 0.5954157 -0.03640348
-0.4339857 0.5472568 -0.04426195
-0.434368 0.6060067 -0.02662815
-0.4420934 0.582168 -0.04075757
-0.4554336 0.5709959 -0.03997281
-0.443655 0.5707604 -0.04233363
-0.453843 0.5600033 -0.0411264
-0.4557751 0.5482069 -0.03953261
-0.4456135 0.5480222 -0.04267138
-0.4549815 0.5376317 -0.03342491
-0.4447621 0.5367735 -0.03841834
-0.4531968 0.5304626 -0.02769783
-0.4512476 0.594401 -0.03538767
-0.444803 0.55938 -0.04291029
-0.4490442 0.6011306 -0.0313441
-0.4572562 0.6068413 -0.02241837
-0.4461509 0.6060415 -0.02527202
-0.4442921 0.6082182 -0.02118077
-0.37565 0.5100542 -0.02302243
-0.3908874 0.5115877 -0.02260119
-0.2635507 0.6229581 -0.03478274
-0.2778901 0.61813 -0.04083803
-0.2484645 0.62643 -0.02879847
-0.2742114 0.6210164 -0.03031667
-0.2591524 0.6240259 -0.02430853
-0.287045 0.6192243 -0.03115693
-0.2698096 0.6221406 -0.01984557
-0.2442061 0.6251147 -0.0182015
-0.2871425 0.6198648 -0.02493233
-0.2953924 0.6195187 -0.02150781
-0.2796354 0.6203216 -0.01337583
-0.2887528 0.6198378 -0.01194097
-0.3104005 0.6173709 -0.02756022
-0.3059945 0.618569 -0.017093
-0.3017047 0.6177858 -0.006523493
-0.3315969 0.6169378 -0.01904594
-0.3165618 0.6182159 -0.01270889
-0.3254558 0.6144235 -0.03357156
-0.3360012 0.6144426 -0.02920665
-0.3271675 0.6172074 -0.008291172
-0.3465276 0.6147874 -0.02485855
-0.3421698 0.6151611 -0.01434868
-0.3383964 0.6130228 -0.00280185
-0.3540287 0.6132879 -0.008331323
-0.3597263 0.6127824 -0.02044358
-0.3677493 0.6125917 -0.01601377
-0.4375532 0.514639 -0.0166106
-0.4495924 0.518018 -0.01652669
-0.3333997 0.5086083 -0.0009074054
-0.3394789 0.5133883 0.01196065
-0.3290732 0.5109944 0.007718419
-0.3191059 0.5089554 0.002341899
-0.2870251 0.5086509 -0.009623933
-0.272095 0.5094669 -0.003502622
-0.1581246 0.4758385 -0.02212603
-0.1695144 0.4873679 -0.02018363
-0.1665502 0.4866458 -0.009599885
-0.179828 0.4962587 -0.0166892
-0.1609053 0.4876365 0.001622561
-0.1754973 0.4961775 -0.006156032
-0.1846671 0.4998732 -0.01478466
-0.1944884 0.5000193 -0.02303581
-0.4031985 0.5125054 -0.02269902
-0.3992081 0.5099722 -0.01251642
-0.3887157 0.5090505 -0.01683475
-0.395972 0.5127968 -0.001049248
-0.4058564 0.5144383 0.0004483776
-0.3844167 0.5084279 -0.006273324
-0.4096815 0.511218 -0.008214813
-0.3901406 0.5167133 0.00819422
-0.3798171 0.512337 0.003966385
-0.4006386 0.5248852 0.01314948
-0.419257 0.5135434 -0.001943276
-0.3697042 0.5055388 3.895867E-05
-0.4155005 0.5178829 0.006336248
-0.3805071 0.5244865 0.01611297
-0.3751794 0.5180596 0.01428784
-0.3740065 0.5061086 -0.01051955
-0.4306103 0.5150537 0.0004289302
-0.4576477 0.5631281 0.01510198
-0.456316 0.5745205 0.01612275
-0.4424411 0.5736649 0.01534154
-0.4408129 0.5629679 0.01485555
-0.4463857 0.5510342 0.01482406
-0.455802 0.5858591 0.01516784
-0.4358396 0.55041 0.01473932
-0.4446021 0.5396175 0.01741737
-0.4442637 0.5963926 0.01116407
-0.4330315 0.5616869 0.01520654
-0.4421086 0.5850365 0.0149596
-0.4408439 0.5193319 0.004463814
-0.451085 0.5245299 0.008561502
-0.4488206 0.5282643 0.0133349
-0.4376804 0.5270222 0.01585447
-0.4218094 0.5382857 0.01702834
-0.432299 0.5730399 0.01477936
-0.444462 0.5158613 -0.006267801
-0.4232295 0.5268874 0.01579431
-0.4212446 0.5496276 0.0161962
-0.4148476 0.5606059 0.01694529
-0.4320463 0.5957407 0.0110789
-0.4199682 0.5723209 0.01488683
-0.4200121 0.5836227 0.01258373
-0.4557145 0.5195283 -0.001709629
-0.425924 0.5199744 0.01059408
-0.4120499 0.5260925 0.01312093
-0.4104041 0.5489979 0.01633698
-0.4350201 0.5127453 -0.01009132
-0.4100758 0.5374108 0.01593362
-0.4125104 0.5719374 0.01594822
-0.4200234 0.5949267 0.01036014
-0.4211077 0.6019371 0.006365036
-0.4075044 0.5603059 0.01751207
-0.4069402 0.5716478 0.0166786
-0.4082906 0.5941682 0.009023329
-0.4071369 0.5826864 0.01334714
-0.3952574 0.5595813 0.01741648
-0.4099834 0.6051193 0.001673323
-0.3945923 0.5822346 0.01463007
-0.3954734 0.5932332 0.008219146
-0.3982945 0.6046001 0.001294007
-0.3943177 0.5709479 0.01749033
-0.3846016 0.5589767 0.01783303
-0.3841947 0.5703473 0.01737853
-0.3842523 0.592689 0.007731428
-0.3847774 0.6019279 0.0030886
-0.381639 0.5810056 0.01511475
-0.3706437 0.55814 0.0175149
-0.3699567 0.56949 0.01697828
-0.3712035 0.5920854 0.0108929
-0.3724298 0.6032413 0.00441432
-0.3742226 0.6081245 -0.0008882845
-0.3696766 0.5808132 0.0154583
-0.357736 0.5800684 0.01462287
-0.3588734 0.6018299 0.005253209
-0.363575 0.6098443 -0.005342913
-0.3581123 0.5913484 0.01151723
-0.3469561 0.6018566 0.006590737
-0.348803 0.6079754 0.0009170151
-0.3737235 0.5240232 0.01666454
-0.3650511 0.5119019 0.01010304
-0.3827648 0.5359401 0.01603467
-0.3619315 0.5232686 0.01547005
-0.3733861 0.5353502 0.0152833
-0.3837782 0.5481177 0.01674011
-0.3978507 0.5368013 0.01554506
-0.3496652 0.5195187 0.01601022
-0.3613219 0.5346135 0.01474656
-0.371951 0.5467494 0.01655371
-0.3489537 0.5225724 0.01706823
-0.3491627 0.52807 0.015569
-0.3964497 0.5481983 0.01673269
-0.3485152 0.536247 0.01491891
-0.3598186 0.5460173 0.01618096
-0.3567818 0.557296 0.01694326
-0.3362194 0.5218998 0.01822275
-0.3358006 0.5332321 0.01703746
-0.3497669 0.5454322 0.0162885
-0.335329 0.5445679 0.01598018
-0.355926 0.5686333 0.01635361
-0.3248152 0.5211197 0.01609151
-0.3234354 0.5438889 0.01485364
-0.3348066 0.5559068 0.01504584
-0.3461987 0.5566877 0.01720639
-0.3456939 0.5680256 0.01622962
-0.3143514 0.5200167 0.01431497
-0.3231447 0.5324758 0.01679386
-0.3454416 0.579347 0.01464272
-0.3505789 0.5796543 0.01474841
-0.3116097 0.5430677 0.01391803
-0.3229599 0.5551559 0.01398378
-0.3340049 0.5672643 0.01478601
-0.3114055 0.5317764 0.01660802
-0.3128783 0.5544891 0.01254342
-0.3336148 0.5785947 0.01353218
-0.3450219 0.5900121 0.01198517
-0.3035243 0.513038 0.009410501
-0.2993432 0.5310397 0.01606647
-0.2995172 0.5536374 0.01125316
-0.3220692 0.5665192 0.01393875
-0.3217973 0.5778419 0.01239903
-0.3007901 0.5196396 0.0147678
-0.2993369 0.5423448 0.01388524
-0.3113514 0.5657521 0.01127747
-0.333116 0.5899323 0.01254066
-0.3345643 0.6017246 0.008157401
-0.2894965 0.5188523 0.01236998
-0.2869065 0.5302136 0.01421999
-0.2875695 0.5415887 0.01263157
-0.2990651 0.5649719 0.01014903
-0.3210151 0.5891981 0.01209202
-0.287176 0.5529191 0.01138626
-0.2983695 0.5763224 0.009632933
-0.3110318 0.5771389 0.01103542
-0.3230705 0.6116167 0.002446278
-0.2779581 0.5194765 0.01029165
-0.2779375 0.5409284 0.01080426
-0.28646 0.5642709 0.01091889
-0.286241 0.5755901 0.009251688
-0.3093502 0.5879017 0.009732248
-0.3212849 0.600485 0.009243747
-0.2764663 0.529484 0.01197014
-0.2774828 0.5523095 0.01061175
-0.298033 0.5876493 0.008249212
-0.3123436 0.6162157 -0.002076591
-0.3103777 0.6109769 0.003715314
-0.2681469 0.5171599 0.007269877
-0.2652384 0.5286923 0.009412589
-0.2644374 0.5400498 0.009151526
-0.2769061 0.5636574 0.009908344
-0.2857548 0.5869268 0.008229423
-0.3026943 0.5990949 0.007012714
-0.2633705 0.5514246 0.009532101
-0.2631524 0.5627436 0.007862421
-0.2754126 0.5749388 0.008960621
-0.2739151 0.5865713 0.007668214
-0.2862432 0.5981994 0.004853292
-0.2980805 0.6056805 0.004630412
-0.2565401 0.5154529 0.003130909
-0.253702 0.5279209 0.007600765
-0.2522564 0.5393208 0.008896451
-0.2743412 0.597452 0.003924686
-0.2984618 0.6102305 0.002819841
-0.249106 0.5505992 0.009780247
-0.2619871 0.5741251 0.008480666
-0.2632817 0.5992519 0.003253859
-0.2752419 0.6086975 -0.0004478551
-0.2898229 0.6103255 0.001490863
-0.241969 0.5387038 0.008652743
-0.2506842 0.5620337 0.008301422
-0.2500628 0.5733793 0.007605925
-0.2615178 0.5854607 0.00741786
-0.2399818 0.5294859 0.006940286
-0.2389792 0.5499686 0.009093108
-0.241 0.5614262 0.007556768
-0.2496091 0.5847139 0.006505237
-0.2631071 0.6079655 -0.000814098
-0.2764126 0.6154649 -0.004606073
-0.228244 0.53784 0.007542477
-0.2277789 0.5491751 0.006469879
-0.2393993 0.572677 0.00613818
-0.2377591 0.5817384 0.00486934
-0.2522281 0.6090575 -0.001630174
-0.2655614 0.6190652 -0.009243358
-0.2497043 0.5960124 0.004079182
-0.2271745 0.5718244 0.003537077
-0.2528798 0.6184123 -0.007984974
-0.2160934 0.5371091 0.007214442
-0.227381 0.560506 0.005234694
-0.2379857 0.5952529 0.002707177
-0.2392796 0.6173549 -0.007934124
-0.2549094 0.6224481 -0.01369802
-0.2123138 0.5482571 0.00637515
-0.2142327 0.5598778 0.004883964
-0.2156581 0.5710517 0.00167665
-0.2267045 0.58316 0.002475765
-0.2285225 0.5946298 0.001408782
-0.2385811 0.6065184 -0.0009274917
-0.2054579 0.5249497 0.005489138
-0.2099956 0.5367212 0.007035397
-0.2155397 0.5823641 -0.0002334983
-0.2290175 0.618396 -0.009987757
-0.2032971 0.5477251 0.006249923
-0.2018531 0.5692695 0.002500854
-0.2038945 0.5816 -0.001783018
-0.2257376 0.6052793 -0.0007485791
-0.2321176 0.6274141 -0.02415156
-0.1916168 0.5356588 0.006982145
-0.1906331 0.5583327 0.004965052
-0.2148896 0.5937117 -0.0008598635
-0.2205572 0.6272522 -0.02114052
-0.2156662 0.6143644 -0.006758871
-0.1920432 0.524326 0.008148056
-0.1908155 0.547016 0.006720953
-0.1926429 0.5810191 -0.0002253221
-0.1908146 0.5696255 0.002330292
-0.2031317 0.5929549 -0.002137073
-0.214412 0.6050479 -0.001902328
-0.2188803 0.6233671 -0.01631366
-0.222812 0.6302444 -0.02719767
-0.180093 0.5350171 0.007669859
-0.1784189 0.5521477 0.005850974
-0.1909401 0.5947229 -0.002333149
-0.1776957 0.5575761 0.005034939
-0.2027226 0.6042866 -0.003345162
-0.2085284 0.6269688 -0.01985358
-0.2051808 0.6165141 -0.009020487
-0.1813426 0.5237299 0.008782262
-0.1792684 0.54634 0.006770376
-0.176772 0.5816778 0.0005091483
-0.1763341 0.5935881 -0.002049948
-0.165039 0.5683241 0.004741433
-0.1658733 0.5342919 0.009810009
-0.1632092 0.557023 0.008728084
-0.1630718 0.5451135 0.009814251
-0.1783558 0.602829 -0.003842953
-0.1896465 0.603507 -0.003560981
-0.1972954 0.6317404 -0.02547733
-0.1921733 0.6253811 -0.0158253
-0.1636041 0.6020196 -0.002729911
-0.1909193 0.6148372 -0.006708652
-0.1603271 0.5340367 0.01117953
-0.1663577 0.6133926 -0.006735295
-0.1795145 0.6148481 -0.007107941
-0.1825204 0.6299157 -0.01921977
-0.1805166 0.6252959 -0.0134561
-0.1679206 0.6245706 -0.0128089
-0.2337094 0.5148705 -0.001267
-0.2306182 0.5249555 0.004280546
-0.4253624 0.5128291 -0.01663122
-0.3634654 0.5060182 -0.01488063
-0.1652211 0.5638689 -0.03245915
-0.4522361 0.5662046 -0.01051704
3 0 1 2
3 1 0 3
3 4 5 6
3 7 5 4
3 6 8 4
3 9 10 11
3 11 12 9
3 13 14 15
3 14 13 16
3 16 17 14
3 10 18 11
3 18 10 19
3 20 19 10
3 9 21 22
3 22 21 23
3 9 12 21
3 22 20 9
3 24 20 22
3 20 24 25
3 26 24 22
3 25 24 26
3 25 26 27
3 28 27 26
3 29 27 28
3 29 28 30
3 31 30 28
3 31 28 32
3 33 34 35
3 36 37 38
3 37 36 33
3 38 39 36
3 39 33 36
3 40 37 33
3 41 39 38
3 40 42 37
3 43 41 38
3 43 44 45
3 45 44 46
3 46 44 47
3 46 47 48
3 48 47 49
3 50 51 52
3 52 51 53
3 53 51 54
3 55 52 53
3 53 54 56
3 53 57 55
3 56 58 53
3 57 59 55
3 53 58 57
3 58 56 60
3 59 57 61
3 57 58 60
3 61 57 60
3 62 59 61
3 60 63 61
3 61 64 62
3 61 63 64
3 60 65 63
3 66 62 64
3 64 63 67
3 63 65 68
3 66 64 67
3 67 63 69
3 68 69 63
3 67 70 66
3 1 71 72
3 73 72 71
3 71 74 73
3 75 73 74
3 74 71 76
3 75 77 73
3 78 75 74
3 79 76 71
3 78 74 76
3 73 77 80
3 81 75 78
3 76 79 82
3 76 83 78
3 77 84 80
3 81 78 83
3 76 82 85
3 83 76 86
3 83 87 81
3 85 86 76
3 86 88 83
3 87 83 89
3 86 85 90
3 89 83 88
3 86 91 88
3 90 91 86
3 91 89 88
3 91 90 92
3 92 93 91
3 93 94 91
3 95 93 92
3 95 94 93
3 95 92 18
3 95 18 96
3 19 96 18
3 96 97 95
3 95 97 98
3 97 96 99
3 97 100 98
3 101 99 96
3 99 102 97
3 103 98 100
3 100 97 104
3 99 101 105
3 104 97 102
3 106 102 99
3 103 100 104
3 99 105 106
3 104 102 106
3 104 107 103
3 106 105 108
3 109 104 106
3 110 103 107
3 107 104 109
3 108 105 111
3 106 108 112
3 112 109 106
3 110 107 113
3 109 113 107
3 114 111 105
3 108 111 115
3 108 116 112
3 113 109 112
3 117 111 114
3 115 111 118
3 119 108 115
3 120 112 116
3 116 108 119
3 113 112 120
3 118 111 117
3 115 118 121
3 119 115 122
3 120 116 119
3 118 117 123
3 121 124 115
3 122 115 124
3 125 126 127
3 128 126 125
3 127 129 125
3 130 128 125
3 125 129 131
3 129 127 132
3 130 125 131
3 131 129 133
3 132 134 129
3 130 131 135
3 136 131 133
3 129 134 133
3 135 131 136
3 133 137 136
3 138 133 134
3 135 136 139
3 136 137 140
3 137 133 138
3 138 134 141
3 135 139 142
3 137 138 140
3 141 134 143
3 141 143 144
3 44 145 146
3 43 145 44
3 44 146 47
3 145 43 38
3 47 146 147
3 38 148 145
3 47 147 49
3 38 37 148
3 1 72 149
3 150 149 72
3 149 150 151
3 72 73 150
3 150 80 151
3 149 151 152
3 151 80 153
3 84 153 80
3 84 154 153
3 155 153 154
3 154 156 155
3 156 157 155
3 155 157 158
3 157 159 158
3 159 157 160
3 161 119 122
3 162 119 161
3 162 161 163
3 120 119 162
3 163 164 162
3 162 165 120
3 166 164 163
3 164 165 162
3 167 166 163
3 165 113 120
3 164 166 168
3 164 113 165
3 169 166 167
3 169 168 166
3 164 168 170
3 171 113 164
3 172 169 167
3 173 168 169
3 174 170 168
3 170 171 164
3 110 113 171
3 175 169 172
3 175 173 169
3 168 173 174
3 174 176 170
3 171 170 176
3 176 110 171
3 177 173 175
3 174 173 177
3 174 178 176
3 177 175 179
3 177 180 174
3 181 178 174
3 177 179 182
3 183 180 177
3 180 181 174
3 179 184 185
3 182 183 177
3 185 182 179
3 180 183 186
3 186 181 180
3 187 185 184
3 185 183 182
3 188 186 183
3 187 189 185
3 188 183 185
3 185 189 190
3 191 189 187
3 190 188 185
3 192 190 189
3 189 191 192
3 193 191 187
3 194 192 191
3 195 191 193
3 196 192 194
3 194 191 195
3 197 196 194
3 197 194 195
3 65 196 197
3 68 197 195
3 68 65 197
3 198 199 200
3 200 199 201
3 198 200 202
3 203 201 199
3 200 201 204
3 202 200 204
3 198 202 50
3 205 203 199
3 203 206 201
3 207 204 201
3 204 208 202
3 50 202 51
3 209 203 205
3 201 206 207
3 203 209 206
3 204 207 210
3 208 51 202
3 208 204 211
3 205 212 209
3 206 213 207
3 209 214 206
3 215 210 207
3 210 211 204
3 51 208 216
3 208 211 217
3 218 209 212
3 212 205 219
3 207 213 215
3 206 214 213
3 214 209 220
3 210 215 221
3 211 210 222
3 54 51 216
3 216 208 217
3 222 217 211
3 212 223 218
3 209 218 220
3 219 224 212
3 225 219 205
3 213 226 215
3 213 214 220
3 215 227 221
3 221 222 210
3 54 216 56
3 216 217 228
3 217 222 229
3 230 218 223
3 231 223 212
3 220 218 232
3 233 224 219
3 234 212 224
3 235 225 205
3 219 225 236
3 220 226 213
3 215 226 227
3 221 227 237
3 222 221 238
3 56 216 228
3 228 217 239
3 222 238 229
3 229 239 217
3 223 240 230
3 232 218 230
3 231 240 223
3 234 231 212
3 220 232 226
3 233 234 224
3 233 219 241
3 225 235 242
3 242 236 225
3 236 241 219
3 243 227 226
3 237 227 244
3 238 221 237
3 56 228 245
3 228 239 246
3 229 238 247
3 239 229 248
3 240 249 230
3 230 250 232
3 240 231 251
3 251 231 234
3 226 232 252
3 251 234 233
3 233 241 253
3 242 254 236
3 241 236 254
3 226 252 243
3 227 243 244
3 244 255 237
3 238 237 256
3 245 228 246
3 60 56 245
3 246 239 257
3 256 247 238
3 229 247 186
3 257 239 248
3 186 248 229
3 240 258 249
3 230 249 259
3 250 252 232
3 230 259 250
3 251 260 240
3 233 261 251
3 253 262 233
3 254 253 241
3 252 263 243
3 244 243 264
3 265 255 244
3 255 256 237
3 245 246 192
3 245 65 60
3 257 190 246
3 247 256 181
3 181 186 247
3 248 190 257
3 248 186 188
3 266 249 258
3 260 258 240
3 249 266 259
3 250 263 252
3 259 267 250
3 260 251 261
3 262 261 233
3 262 253 268
3 254 268 253
3 243 263 269
3 244 264 265
3 264 243 269
3 255 265 178
3 256 255 178
3 190 192 246
3 192 196 245
3 245 196 65
3 178 181 256
3 248 188 190
3 258 270 266
3 260 271 258
3 259 266 267
3 250 272 263
3 267 273 250
3 261 274 260
3 275 261 262
3 268 276 262
3 263 272 269
3 277 265 264
3 264 269 278
3 178 265 279
3 270 280 266
3 258 281 270
3 271 281 258
3 274 271 260
3 266 282 267
3 250 273 272
3 273 267 283
3 275 274 261
3 275 262 276
3 276 268 284
3 269 272 285
3 264 286 277
3 265 277 279
3 264 278 286
3 278 269 285
3 176 178 279
3 280 270 281
3 280 287 266
3 271 288 281
3 289 271 274
3 266 287 282
3 267 282 290
3 291 272 273
3 273 283 291
3 283 267 290
3 292 274 275
3 293 275 276
3 293 276 284
3 285 272 294
3 277 286 295
3 279 277 110
3 295 286 278
3 278 285 294
3 176 279 110
3 281 296 280
3 287 280 297
3 271 289 288
3 298 281 288
3 274 292 289
3 299 282 287
3 282 299 290
3 272 291 294
3 300 291 283
3 290 300 283
3 275 301 292
3 302 275 293
3 293 284 303
3 277 295 103
3 277 103 110
3 294 295 278
3 298 296 281
3 296 304 280
3 280 304 297
3 297 305 287
3 289 306 288
3 288 307 298
3 289 292 301
3 287 305 299
3 290 299 308
3 294 291 309
3 300 309 291
3 290 308 300
3 302 301 275
3 302 293 310
3 303 311 293
3 103 295 98
3 294 312 295
3 298 313 296
3 296 313 304
3 297 304 314
3 305 297 314
3 306 307 288
3 315 306 289
3 313 298 307
3 301 315 289
3 81 299 305
3 87 308 299
3 309 312 294
3 300 316 309
3 308 316 300
3 302 317 301
3 310 318 302
3 311 310 293
3 311 303 319
3 98 295 320
3 295 312 320
3 313 154 304
3 304 84 314
3 305 314 321
3 307 306 322
3 306 315 323
3 324 313 307
3 301 323 315
3 299 81 87
3 305 321 81
3 308 87 316
3 309 94 312
3 309 316 89
3 317 323 301
3 318 317 302
3 325 318 310
3 310 311 326
3 319 326 311
3 98 320 95
3 320 312 94
3 313 156 154
3 304 154 84
3 314 84 77
3 314 77 321
3 322 327 307
3 323 322 306
3 307 327 324
3 324 156 313
3 81 321 75
3 89 316 87
3 309 91 94
3 309 89 91
3 323 317 328
3 318 328 317
3 325 328 318
3 325 310 329
3 326 329 310
3 319 330 326
3 320 94 95
3 321 77 75
3 331 327 322
3 322 323 332
3 327 333 324
3 334 156 324
3 328 332 323
3 328 325 335
3 325 329 336
3 329 326 330
3 337 330 319
3 331 338 327
3 332 331 322
3 324 333 334
3 327 339 333
3 334 157 156
3 332 328 340
3 335 340 328
3 341 335 325
3 336 341 325
3 330 336 329
3 337 342 330
3 343 338 331
3 338 339 327
3 332 343 331
3 334 333 339
3 334 160 157
3 340 344 332
3 340 335 345
3 335 341 346
3 341 336 346
3 336 330 342
3 49 342 337
3 343 347 338
3 348 339 338
3 344 343 332
3 339 160 334
3 340 349 344
3 345 350 340
3 346 345 335
3 342 346 336
3 49 147 342
3 347 343 351
3 338 347 348
3 339 348 160
3 343 344 349
3 350 349 340
3 345 352 350
3 345 346 353
3 346 342 147
3 351 354 347
3 349 351 343
3 347 354 348
3 348 142 160
3 355 349 350
3 355 350 352
3 356 352 345
3 353 356 345
3 147 353 346
3 354 351 357
3 349 357 351
3 354 130 348
3 135 142 348
3 355 357 349
3 358 355 352
3 359 352 356
3 356 353 360
3 353 147 146
3 357 361 354
3 354 128 130
3 348 130 135
3 357 355 358
3 359 358 352
3 359 356 362
3 360 362 356
3 146 360 353
3 361 357 363
3 361 128 354
3 358 363 357
3 358 359 364
3 359 362 365
3 362 360 366
3 366 360 146
3 363 367 361
3 126 128 361
3 358 368 363
3 364 369 358
3 365 364 359
3 365 362 366
3 366 146 145
3 367 363 368
3 126 361 367
3 369 368 358
3 370 364 365
3 370 365 366
3 366 145 148
3 368 371 367
3 367 127 126
3 370 366 372
3 148 372 366
3 371 132 367
3 367 132 127
3 373 374 375
3 374 376 375
3 376 377 378
3 379 380 377
3 379 381 143
3 373 370 382
3 373 375 369
3 376 383 375
3 378 383 376
3 380 378 377
3 143 380 379
3 143 381 144
3 384 382 370
3 370 373 364
3 375 383 369
3 369 364 373
3 383 378 371
3 378 380 371
3 380 143 134
3 42 385 386
3 384 386 385
3 386 384 370
3 369 383 368
3 371 368 383
3 371 380 132
3 134 132 380
3 386 387 42
3 370 372 386
3 37 42 387
3 387 386 372
3 37 387 148
3 148 387 372
3 160 142 388
3 142 139 388
3 160 388 159
3 388 139 389
3 390 199 198
3 391 199 390
3 392 390 198
3 391 390 393
3 205 199 391
3 394 390 392
3 198 50 392
3 393 395 391
3 396 393 390
3 205 391 235
3 390 394 396
3 397 394 392
3 392 50 397
3 395 235 391
3 398 395 393
3 396 398 393
3 242 235 395
3 395 398 399
3 400 398 396
3 242 395 399
3 401 399 398
3 401 398 400
3 399 402 242
3 401 403 399
3 402 254 242
3 403 402 399
3 404 403 401
3 254 402 405
3 403 405 402
3 404 406 403
3 405 407 254
3 406 405 403
3 405 408 407
3 407 268 254
3 409 405 406
3 405 410 408
3 408 284 407
3 407 284 268
3 409 411 405
3 411 410 405
3 410 303 408
3 408 303 284
3 412 411 409
3 410 411 413
3 410 414 303
3 413 411 412
3 413 414 410
3 414 319 303
3 413 415 414
3 337 319 414
3 337 414 415
3 415 49 337
3 416 141 417
3 418 419 420
3 418 4 419
3 418 420 421
3 7 4 418
3 421 152 418
3 7 418 152
3 422 3 423
3 79 423 15
3 14 90 85
3 424 123 425
3 425 123 117
3 424 425 426
3 425 117 427
3 425 427 426
3 428 426 30
3 427 117 114
3 427 429 426
3 30 426 429
3 114 430 427
3 429 427 430
3 30 429 29
3 114 431 430
3 430 29 429
3 430 431 25
3 114 105 431
3 29 430 27
3 431 20 25
3 27 430 25
3 431 105 101
3 431 101 20
3 20 101 19
3 432 433 434
3 435 434 433
3 432 140 433
3 433 436 435
3 437 434 435
3 140 438 433
3 435 436 439
3 433 438 436
3 440 437 435
3 436 441 439
3 435 439 440
3 436 438 442
3 437 440 443
3 436 444 441
3 445 439 441
3 440 439 446
3 444 436 442
3 447 437 443
3 439 445 446
3 444 442 448
3 447 388 437
3 7 153 155
3 449 450 451
3 452 453 449
3 451 452 449
3 454 451 450
3 455 456 453
3 455 453 452
3 454 34 457
3 451 458 452
3 459 451 454
3 460 461 462
3 463 462 456
3 455 464 456
3 458 455 452
3 457 459 454
3 457 34 33
3 465 458 451
3 459 465 451
3 460 466 461
3 460 462 463
3 456 467 463
3 464 467 456
3 468 464 455
3 455 458 469
3 457 470 459
3 457 33 39
3 458 465 471
3 465 459 472
3 461 466 473
3 448 466 460
3 460 463 474
3 467 474 463
3 475 467 464
3 476 464 468
3 469 468 455
3 471 469 458
3 470 472 459
3 457 39 470
3 472 471 465
3 466 417 473
3 448 477 466
3 448 460 474
3 467 444 474
3 475 444 467
3 475 464 478
3 478 464 476
3 476 468 469
3 471 479 469
3 480 472 470
3 470 39 481
3 471 472 479
3 416 417 466
3 477 416 466
3 448 474 444
3 444 475 441
3 441 475 478
3 482 476 469
3 469 479 483
3 472 480 484
3 480 470 481
3 481 39 41
3 472 485 479
3 476 482 486
3 483 482 469
3 483 479 485
3 484 485 472
3 484 480 487
3 487 480 481
3 481 41 487
3 483 486 482
3 483 485 488
3 484 489 485
3 484 487 490
3 487 41 43
3 491 486 483
3 491 483 488
3 488 485 489
3 489 484 490
3 490 487 45
3 43 45 487
3 492 486 491
3 491 488 493
3 488 489 494
3 490 495 489
3 46 490 45
3 491 493 492
3 488 496 493
3 496 488 494
3 494 489 495
3 495 490 46
3 493 497 492
3 498 493 496
3 494 499 496
3 494 495 500
3 46 501 495
3 498 497 493
3 498 496 502
3 499 502 496
3 494 500 499
3 500 495 501
3 46 48 501
3 498 502 503
3 499 503 502
3 499 500 504
3 505 500 501
3 501 48 505
3 506 503 499
3 506 499 504
3 504 500 505
3 505 48 415
3 506 504 507
3 505 508 504
3 48 49 415
3 505 415 413
3 507 504 508
3 505 413 508
3 507 508 412
3 508 413 412
3 509 446 445
3 509 510 446
3 511 509 445
3 512 510 509
3 510 440 446
3 513 509 511
3 511 445 441
3 8 510 512
3 513 512 509
3 510 443 440
3 514 513 511
3 441 515 511
3 8 512 516
3 443 510 8
3 517 512 513
3 518 513 514
3 514 511 515
3 441 478 515
3 512 519 516
3 516 4 8
3 512 517 520
3 518 517 513
3 518 514 497
3 515 521 514
3 476 515 478
3 519 419 516
3 512 520 519
3 419 4 516
3 517 522 520
3 523 517 518
3 514 492 497
3 518 497 524
3 521 515 476
3 521 492 514
3 525 419 519
3 525 519 520
3 520 522 526
3 517 527 522
3 517 523 527
3 524 523 518
3 498 524 497
3 486 521 476
3 521 486 492
3 525 420 419
3 525 520 526
3 526 522 528
3 522 527 528
3 527 523 524
3 529 524 498
3 530 420 525
3 526 530 525
3 526 528 531
3 532 528 527
3 533 527 524
3 524 529 534
3 503 529 498
3 420 530 535
3 536 530 526
3 531 536 526
3 532 531 528
3 527 533 532
3 534 533 524
3 537 534 529
3 538 529 503
3 421 420 535
3 535 530 536
3 536 531 539
3 540 531 532
3 534 532 533
3 537 541 534
3 529 538 537
3 503 506 538
3 535 2 421
3 542 535 536
3 539 542 536
3 543 539 531
3 543 531 540
3 541 540 532
3 541 532 534
3 544 541 537
3 537 538 545
3 506 545 538
3 546 2 535
3 535 542 547
3 539 547 542
3 539 543 548
3 543 540 549
3 549 540 541
3 541 544 550
3 544 537 545
3 545 506 507
3 2 546 0
3 551 546 535
3 547 551 535
3 552 547 539
3 548 552 539
3 553 548 543
3 549 553 543
3 550 549 541
3 554 550 544
3 544 545 554
3 507 555 545
3 551 0 546
3 547 556 551
3 552 557 547
3 548 558 552
3 559 548 553
3 553 549 550
3 560 550 554
3 555 554 545
3 507 412 555
3 556 0 551
3 557 556 547
3 558 557 552
3 561 558 548
3 559 561 548
3 562 559 553
3 550 563 553
3 550 560 563
3 555 560 554
3 555 412 564
3 556 3 0
3 556 557 565
3 558 566 557
3 566 558 561
3 567 561 559
3 559 562 568
3 553 563 562
3 560 569 563
3 570 560 555
3 564 412 409
3 570 555 564
3 565 3 556
3 571 565 557
3 566 571 557
3 561 572 566
3 572 561 567
3 568 567 559
3 573 568 562
3 562 563 569
3 570 569 560
3 409 574 564
3 570 564 575
3 3 565 576
3 576 565 571
3 566 577 571
3 572 578 566
3 567 579 572
3 579 567 568
3 562 569 573
3 580 568 573
3 581 569 570
3 575 564 574
3 409 406 574
3 581 570 575
3 423 3 576
3 576 571 577
3 578 577 566
3 582 578 572
3 572 579 583
3 568 584 579
3 581 573 569
3 585 568 580
3 586 580 573
3 404 575 574
3 574 406 404
3 575 587 581
3 576 15 423
3 577 588 576
3 578 589 577
3 582 590 578
3 583 582 572
3 584 583 579
3 584 568 585
3 573 581 586
3 580 591 585
3 580 586 591
3 592 575 404
3 586 581 587
3 575 592 587
3 588 15 576
3 589 588 577
3 590 589 578
3 593 590 582
3 583 593 582
3 594 583 584
3 585 594 584
3 585 591 595
3 596 591 586
3 592 404 597
3 586 587 597
3 587 592 597
3 15 588 13
3 589 13 588
3 589 590 598
3 598 590 593
3 599 593 583
3 583 594 600
3 601 594 585
3 591 596 595
3 601 585 595
3 586 597 596
3 404 401 597
3 602 13 589
3 589 598 602
3 603 598 593
3 604 593 599
3 600 599 583
3 605 600 594
3 594 601 605
3 596 606 595
3 595 605 601
3 596 597 607
3 401 607 597
3 602 598 608
3 598 603 609
3 604 603 593
3 604 599 610
3 610 599 600
3 600 605 611
3 595 606 612
3 606 596 613
3 614 605 595
3 613 596 607
3 401 400 607
3 609 608 598
3 604 609 603
3 604 610 615
3 600 611 610
3 614 611 605
3 606 616 612
3 614 595 612
3 606 613 616
3 607 400 613
3 609 617 608
3 618 609 604
3 615 618 604
3 615 610 611
3 619 611 614
3 612 616 620
3 612 619 614
3 616 613 621
3 613 400 396
3 617 23 608
3 622 617 609
3 609 618 623
3 618 615 624
3 615 611 625
3 619 626 611
3 620 616 397
3 627 612 620
3 627 619 612
3 396 621 613
3 397 616 621
3 628 23 617
3 629 617 622
3 623 622 609
3 624 623 618
3 630 624 615
3 626 625 611
3 615 625 630
3 619 627 626
3 397 631 620
3 627 620 631
3 396 394 621
3 621 394 397
3 22 23 628
3 617 629 628
3 629 622 632
3 623 632 622
3 623 624 633
3 624 630 634
3 626 630 625
3 627 635 626
3 397 636 631
3 635 627 631
3 628 26 22
3 628 629 637
3 632 637 629
3 632 623 638
3 634 633 624
3 638 623 633
3 639 634 630
3 639 630 626
3 639 626 635
3 50 636 397
3 636 640 631
3 631 641 635
3 642 26 628
3 637 642 628
3 643 637 632
3 638 643 632
3 634 644 633
3 638 633 645
3 646 634 639
3 639 635 647
3 636 50 52
3 640 648 631
3 640 636 649
3 647 635 641
3 641 631 648
3 26 642 28
3 650 642 637
3 650 637 643
3 643 638 651
3 644 645 633
3 644 634 652
3 645 653 638
3 652 634 646
3 654 646 639
3 639 647 654
3 52 649 636
3 648 640 655
3 640 649 55
3 654 647 641
3 641 648 656
3 642 657 28
3 657 642 650
3 643 658 650
3 638 653 651
3 643 651 658
3 645 644 659
3 644 652 660
3 661 653 645
3 646 654 652
3 649 52 55
3 640 55 655
3 648 655 656
3 654 641 656
3 28 657 32
3 657 650 662
3 658 662 650
3 651 653 663
3 664 658 651
3 660 659 644
3 659 661 645
3 660 652 665
3 661 663 653
3 654 666 652
3 55 667 655
3 656 655 668
3 656 666 654
3 662 32 657
3 664 662 658
3 664 651 663
3 660 665 669
3 652 666 665
3 668 655 667
3 55 59 667
3 670 656 668
3 670 666 656
3 662 671 32
3 671 662 664
3 672 669 665
3 673 665 666
3 667 674 668
3 667 59 62
3 670 668 675
3 670 673 666
3 665 673 672
3 675 668 674
3 667 62 674
3 670 675 673
3 672 673 676
3 66 675 674
3 62 66 674
3 673 675 676
3 676 675 66
3 11 92 17
3 16 11 17
3 12 11 16
3 677 12 16
3 677 16 13
3 21 12 677
3 677 13 602
3 677 678 21
3 677 602 678
3 23 21 678
3 678 602 608
3 608 23 678
3 144 417 141
3 679 141 416
3 416 477 679
3 448 679 477
3 679 442 438
3 438 140 679
3 442 679 448
3 138 141 679
3 140 138 679
3 437 388 434
3 434 389 432
3 139 432 389
3 389 434 388
3 136 140 432
3 136 432 139
3 8 6 443
3 7 155 158
3 158 5 7
3 5 158 680
3 680 6 5
3 6 680 443
3 159 680 158
3 443 680 447
3 159 388 680
3 388 447 680
3 152 151 7
3 151 153 7
3 80 150 73
3 149 2 1
3 149 421 2
3 149 152 421
3 3 422 1
3 423 79 422
3 71 422 79
3 422 71 1
3 14 85 82
3 82 15 14
3 15 82 79
3 17 92 90
3 17 90 14
3 11 18 92
3 101 96 19
3 10 9 20
3 681 31 30
3 681 30 428
3 681 428 426
3 681 426 424
3 681 424 123
3 681 123 118
3 681 118 121
3 681 121 124
3 681 124 122
3 681 122 161
3 681 161 163
3 681 163 167
3 681 167 172
3 681 172 175
3 681 175 179
3 681 179 184
3 681 184 187
3 681 187 193
3 681 193 195
3 681 195 68
3 681 68 69
3 681 69 67
3 681 67 70
3 681 70 66
3 681 66 676
3 681 676 672
3 681 672 669
3 681 669 660
3 681 660 659
3 681 659 661
3 681 661 663
3 681 663 664
3 681 664 671
3 681 671 32
3 681 32 31
3 682 35 33
3 682 34 35
3 682 454 34
3 682 450 454
3 682 449 450
3 682 453 449
3 682 456 453
3 682 462 456
3 682 461 462
3 682 473 461
3 682 417 473
3 682 144 417
3 682 381 144
3 682 379 381
3 682 377 379
3 682 376 377
3 682 374 376
3 682 373 374
3 682 382 373
3 682 384 382
3 682 385 384
3 682 42 385
3 682 40 42
3 682 33 40
