ply
format ascii 1.0
element vertex 811
property float x
property float y
property float z
element face 1618
property list uchar int vertex_indices
end_header
0.2285936 0.6469303 -0.01340542
0.2399789 0.6461489 -0.0155826
0.2330772 0.6352643 -0.006777397
0.2417352 0.6363484 -0.009413016
0.2379234 0.6497417 -0.02127214
0.2489316 0.6454888 -0.02516142
0.2274227 0.6505219 -0.0169465
0.2521746 0.6390032 -0.01455465
0.2337535 0.6525606 -0.03194689
0.2440319 0.6479999 -0.03607726
0.2531656 0.6341818 -0.01121122
0.2626812 0.6383247 -0.01888553
0.2214345 0.6577284 -0.02809073
0.2523678 0.6433786 -0.03940202
0.2585478 0.6417671 -0.02959225
0.2396641 0.647451 -0.04657824
0.2294455 0.6530326 -0.04250034
0.2662566 0.631321 -0.008842031
0.2688431 0.6374974 -0.03373775
0.2644219 0.6360391 -0.0441918
0.27314 0.636836 -0.02317452
0.2770154 0.632228 -0.01286748
0.2844142 0.6320949 -0.02771225
0.3701309 0.6050078 -0.0008370079
0.3665961 0.6019922 0.0007084271
0.3674694 0.60532 0.002182001
0.3740009 0.5929142 -0.009523021
0.3750032 0.6042849 -0.009298729
0.3371599 0.6045224 -0.01230508
0.3239585 0.6070477 -0.01388573
0.3328899 0.6086932 -0.02249325
0.3225388 0.6120143 -0.0182988
0.4163938 0.5839627 0.005233559
0.4117132 0.5800447 -0.005371932
0.4003527 0.5896111 -0.0006038417
0.4009574 0.5774685 -0.001013668
0.3842036 0.5811276 -0.005046909
0.3870423 0.592869 -0.00702264
0.3653906 0.4757819 -0.007674466
0.3589628 0.481189 0.005642784
0.3694336 0.4795639 0.003767423
0.3658263 0.4918813 0.01467654
0.3758046 0.4735267 -0.011924
0.3745307 0.4837597 0.0129723
0.3803351 0.4768431 -0.001565812
0.38394 0.4799458 0.006585645
0.3862823 0.4723594 -0.01622957
0.3907281 0.4742358 -0.005797089
0.2903557 0.620733 -0.008215631
0.286221 0.6319854 -0.01613323
0.288362 0.6319063 -0.015228
0.2877975 0.6330115 -0.01681371
0.3183207 0.6140146 -0.02893105
0.3119763 0.6117422 -0.01391908
0.4039123 0.592173 0.01017661
0.4036611 0.6010982 -0.00228663
0.3986699 0.6032378 -0.009800123
0.4059844 0.5862975 0.009478983
0.4091095 0.6075667 -0.01704247
0.4077226 0.592073 0.01257795
0.3604307 0.6057839 0.003157147
0.3672243 0.6126831 0.0001568044
0.3629073 0.6129994 -0.01038882
0.3520443 0.6076134 -0.005745025
0.3518457 0.6042339 -0.005570651
0.3515217 0.6058887 -0.005410322
0.4523705 0.5774973 0.004344791
0.4573498 0.5784799 0.01307706
0.466635 0.5734803 0.009369615
0.4685785 0.5771204 0.01338241
0.4564091 0.5892844 0.0139795
0.4295713 0.5904496 0.005997058
0.4401932 0.5899052 0.007543566
0.4418406 0.5842719 0.007015337
0.4430239 0.5898044 0.008813973
0.4424675 0.5949398 0.006464904
0.4287301 0.6037053 0.001378623
0.4531181 0.5967117 0.00200759
0.416847 0.6034595 0.004868662
0.4680421 0.5974248 0.008134149
0.4067573 0.5994498 0.008800364
0.4189126 0.5912788 0.009929301
0.4636181 0.5959229 -0.00231746
0.4786097 0.5977877 0.003749679
0.3787289 0.5970766 -0.02882798
0.3833136 0.6013119 -0.01851735
0.3779183 0.6037498 -0.01635036
0.3190508 0.4814063 -0.02482985
0.3146745 0.4781817 -0.01139343
0.3252906 0.4793704 -0.01582056
0.3321755 0.4810121 -0.02939761
0.3357092 0.477192 -0.02007406
0.3169998 0.4858466 -0.03721286
0.3427053 0.4807391 -0.03375071
0.3302478 0.4903173 -0.04352312
0.3461065 0.4746556 -0.02430887
0.3567112 0.4756461 -0.02872593
0.338894 0.4917268 -0.0451413
0.3550339 0.478618 -0.03337651
0.3609246 0.4735652 -0.01808946
0.3528777 0.4841892 -0.0396957
0.3672891 0.4779874 -0.03294886
0.3714983 0.4740277 -0.02247901
0.3637994 0.488888 -0.04445985
0.3820039 0.4733357 -0.02680905
0.3787226 0.47878 -0.03583524
0.3873275 0.4872888 -0.04633897
0.3931018 0.4762411 -0.03228155
0.3887801 0.4829563 -0.04220044
0.3968678 0.4730248 -0.02062959
0.4038957 0.4770195 -0.03431686
0.4073419 0.4717917 -0.02493186
0.3939483 0.6024926 -0.02294759
0.3690167 0.6023167 -0.02345462
0.3732065 0.6087919 -0.01453741
0.459008 0.5912546 -0.01260575
0.4688144 0.5868887 -0.0163791
0.4740997 0.5948212 -0.006626357
0.4844249 0.5870469 -0.01134891
0.3431778 0.5573911 -0.06169612
0.3440304 0.5462764 -0.06237451
0.3487266 0.5460305 -0.06179225
0.3444243 0.5342437 -0.06164515
0.3371562 0.5581043 -0.06225893
0.3638039 0.5573418 -0.05867197
0.3353615 0.5353767 -0.06220137
0.3612266 0.5340179 -0.05907962
0.3385088 0.569312 -0.06065269
0.3359497 0.5467201 -0.06297705
0.3666822 0.5451086 -0.05935118
0.3625807 0.5682908 -0.05717376
0.337024 0.5240185 -0.06040553
0.3475296 0.5233422 -0.06029093
0.3519416 0.5688517 -0.05841897
0.3256824 0.5701846 -0.06249234
0.3756713 0.5560475 -0.05825888
0.3773243 0.5674611 -0.05646249
0.3602347 0.5226478 -0.05927956
0.3663833 0.533721 -0.05896137
0.3413208 0.5809879 -0.05659146
0.3294751 0.5831193 -0.05788902
0.3747357 0.5446811 -0.05832256
0.3534565 0.5798925 -0.05455677
0.3744479 0.5793185 -0.05121916
0.34759 0.5120414 -0.05794849
0.3704852 0.522033 -0.05952
0.3134588 0.5797256 -0.0625044
0.3888896 0.5561006 -0.05691192
0.3878959 0.5669138 -0.05503101
0.3675456 0.5796528 -0.05260119
0.3792673 0.5743307 -0.05307825
0.33515 0.5136798 -0.05766718
0.3660946 0.51094 -0.05822041
0.3735507 0.5332984 -0.05898869
0.3440862 0.5878381 -0.0512071
0.3191819 0.5943322 -0.05470826
0.3893955 0.5438724 -0.05730058
0.3590592 0.5893835 -0.04512343
0.3692581 0.5834699 -0.04918399
0.3813102 0.5790282 -0.04902983
0.3723999 0.5106131 -0.05737561
0.3854382 0.5212454 -0.05775582
0.386295 0.5326065 -0.05788238
0.3342806 0.5939201 -0.04792245
0.3045191 0.5954638 -0.06010715
0.4014527 0.5546831 -0.05533986
0.3745937 0.5903766 -0.03756852
0.3841868 0.5842679 -0.04306193
0.3733369 0.4993704 -0.05291543
0.3490406 0.592975 -0.04240983
0.3216843 0.6041321 -0.04237806
0.3090346 0.6060153 -0.0493256
0.3998273 0.5432714 -0.05706945
0.3964245 0.5319176 -0.05737463
0.4048801 0.5679821 -0.05172685
0.394614 0.57854 -0.04771728
0.3635167 0.5941377 -0.03543662
0.3686504 0.5918193 -0.03683651
0.3847968 0.5098984 -0.05710833
0.3967342 0.5205374 -0.05861166
0.3385307 0.5989927 -0.03688746
0.2939626 0.607469 -0.05683479
0.4124708 0.5425729 -0.05620673
0.4139014 0.5535163 -0.05443698
0.3898205 0.5910823 -0.03428042
0.3951414 0.5092972 -0.05697996
0.385379 0.4986088 -0.05356506
0.3534297 0.5992792 -0.03073909
0.3137749 0.6104391 -0.03927567
0.3281949 0.6059426 -0.03401341
0.2991251 0.6143941 -0.04564315
0.411505 0.5312046 -0.05634351
0.4100228 0.5198022 -0.05772763
0.4072552 0.5776746 -0.04571557
0.4171436 0.5658875 -0.04919184
0.3997127 0.5892824 -0.03630956
0.3429838 0.6050861 -0.02590719
0.2939179 0.6186976 -0.04360496
0.4221739 0.5419394 -0.0557152
0.4219006 0.5305845 -0.05652183
0.4270308 0.5533054 -0.05291127
0.4049093 0.6001883 -0.02580877
0.3586583 0.6049538 -0.02098679
0.3029412 0.6181414 -0.03500117
0.3079712 0.6188088 -0.02477738
0.4191332 0.5772199 -0.04189642
0.4094833 0.582018 -0.04114838
0.4280396 0.5641643 -0.04768756
0.4143538 0.5895763 -0.03112654
0.3479783 0.6122046 -0.01651102
0.2890552 0.6225052 -0.04169577
0.4223244 0.5191226 -0.05688911
0.4387541 0.5508405 -0.05183404
0.4375915 0.5411651 -0.05488345
0.4174489 0.6009556 -0.02548348
0.2935756 0.6256483 -0.03132885
0.2997543 0.6198207 -0.01519146
0.4353317 0.5184067 -0.05594939
0.4361225 0.5297636 -0.05623533
0.4344197 0.575988 -0.03781566
0.424478 0.5839326 -0.0350837
0.4443581 0.5641382 -0.0425899
0.4261803 0.5886947 -0.03187539
0.297905 0.6255406 -0.02079418
0.2813099 0.6314417 -0.03226372
0.4358232 0.5071275 -0.05357568
0.4437434 0.5408384 -0.05420765
0.4527512 0.5519371 -0.05013882
0.2906446 0.6316315 -0.01795472
0.4471219 0.5178032 -0.05422007
0.4477116 0.5291641 -0.0546561
0.4545938 0.5580062 -0.04684335
0.4485997 0.5064448 -0.05138157
0.4506998 0.5404972 -0.05289789
0.4570326 0.5635239 -0.04199262
0.4636621 0.5513468 -0.04915278
0.4643307 0.5283687 -0.05114376
0.4544152 0.4947312 -0.04573417
0.4637639 0.516999 -0.05085293
0.4603602 0.569451 -0.03634478
0.4624944 0.5051625 -0.04888893
0.4639319 0.5392189 -0.04986193
0.469678 0.5625139 -0.03942516
0.475962 0.527794 -0.04903641
0.4629999 0.4945575 -0.0440794
0.4751702 0.5051324 -0.04655636
0.4796654 0.5508552 -0.04478062
0.477175 0.5391786 -0.04830296
0.4742711 0.5728537 -0.03013877
0.4753227 0.5164471 -0.04838464
0.4855186 0.5623567 -0.03530229
0.488287 0.5386049 -0.04676717
0.4762385 0.4939715 -0.04171356
0.4860321 0.5045899 -0.04469898
0.4906896 0.5747856 -0.02590166
0.4882079 0.5271747 -0.0470928
0.4795083 0.5811656 -0.02081696
0.4944052 0.5814165 -0.01466649
0.493385 0.5862843 -0.002052964
0.3595156 0.5112957 -0.05882025
0.3592744 0.5020663 -0.05443053
0.3483437 0.5007866 -0.05393139
0.37448 0.4928615 -0.04887466
0.3492531 0.4962915 -0.05084931
0.3366807 0.5015497 -0.05242527
0.3510723 0.4896617 -0.04514303
0.3977886 0.4979184 -0.05320816
0.3992605 0.487294 -0.04565698
0.4108285 0.4969605 -0.05201595
0.4128667 0.4860756 -0.04426819
0.4097801 0.5084815 -0.05611734
0.4141499 0.4819558 -0.04035135
0.4235368 0.4965519 -0.05036906
0.4207063 0.5078879 -0.05517795
0.4190422 0.474791 -0.03028891
0.4232766 0.4863207 -0.04353619
0.4287936 0.4778963 -0.03397847
0.4358163 0.4965876 -0.04892431
0.4221909 0.4712275 -0.01873933
0.4307169 0.4744155 -0.02863144
0.4401468 0.4839221 -0.03928154
0.4431547 0.474281 -0.02583129
0.450619 0.4903648 -0.04335324
0.4327773 0.471907 -0.02314034
0.4523354 0.4840816 -0.03796456
0.4369968 0.4699292 -0.01250893
0.4542935 0.479111 -0.03224348
0.4475887 0.4707045 -0.01691468
0.4586584 0.4730432 -0.02176093
0.4645183 0.4837256 -0.03633307
0.4518769 0.4698991 -0.006344146
0.4690145 0.4763668 -0.02593868
0.4624622 0.4705592 -0.0107441
0.4724109 0.472935 -0.01389766
0.4812433 0.4822406 -0.03178844
0.4668051 0.4706839 -0.0002212282
0.4816442 0.4725325 -0.006396159
0.4547312 0.5880257 -0.02340852
0.4646099 0.5808893 -0.02696585
0.4487189 0.5956299 -0.008465956
0.4443573 0.5951887 -0.01897196
0.4494269 0.5758504 -0.03286151
0.4393702 0.5878791 -0.02888145
0.4355295 0.6014574 -0.01548856
0.429765 0.599947 -0.02413711
0.4371529 0.6003598 -0.005587314
0.4196171 0.6069058 -0.02137406
0.4011457 0.4720404 -0.0100497
0.2203402 0.6581095 -0.03886965
0.2147208 0.6573665 -0.04946712
0.2250429 0.6518961 -0.05297086
0.2209549 0.6459484 -0.06429344
0.2350413 0.6443841 -0.05763696
0.2614399 0.4635581 0.0118327
0.2675844 0.4685091 -0.003959969
0.2577798 0.4620629 0.000274496
0.2434687 0.4618364 -0.04309109
0.2503167 0.4619235 -0.03360437
0.254557 0.4681606 -0.03552976
0.2552791 0.4621615 -0.02334101
0.2587624 0.4659447 -0.02488612
0.2718848 0.4679093 0.006599754
0.2631647 0.467079 -0.01441555
0.2577061 0.4626023 -0.0120337
0.2357907 0.4731625 -0.05361763
0.2349623 0.4612928 -0.05193777
0.2524171 0.4728041 -0.04162864
0.2264901 0.4733269 -0.06102373
0.225449 0.4620082 -0.06028398
0.2795649 0.4724379 -0.009026652
0.2746443 0.4730061 -0.01669583
0.2476344 0.4729052 -0.04511738
0.257756 0.4727303 -0.03697859
0.216501 0.4726296 -0.06941121
0.2657863 0.4727228 -0.02797856
0.2386052 0.4843946 -0.05401704
0.23027 0.484843 -0.06073409
0.250983 0.4840584 -0.04643638
0.2890596 0.4750117 -0.01302733
0.2699195 0.4763349 -0.02978811
0.2660091 0.4840087 -0.03996288
0.2172852 0.4847294 -0.07180826
0.2849144 0.4782543 -0.02372373
0.2518194 0.495536 -0.04735198
0.2399497 0.495689 -0.05488164
0.2649479 0.4947076 -0.04543164
0.2088792 0.4848679 -0.07869622
0.2177557 0.496128 -0.07321192
0.299763 0.4776824 -0.01753081
0.2807458 0.4832773 -0.0341684
0.2312979 0.4958799 -0.06224762
0.2767318 0.4962755 -0.04508646
0.2100235 0.4961784 -0.07947844
0.3040264 0.4764512 -0.006938449
0.2961652 0.4822189 -0.02868595
0.2505547 0.5065956 -0.05271673
0.2624842 0.5086964 -0.05169946
0.2356258 0.5071434 -0.0591011
0.2185823 0.5074583 -0.07240953
0.3096501 0.4809723 -0.02413714
0.2912884 0.4914716 -0.040791
0.2417718 0.5069452 -0.05594283
0.2295763 0.507286 -0.06322734
0.2758432 0.5165032 -0.05318482
0.2098115 0.5075974 -0.07970209
0.3063826 0.4846383 -0.0327847
0.2487207 0.5191272 -0.05891421
0.2648187 0.517077 -0.05461971
0.2334469 0.5184345 -0.06403933
0.2830454 0.5049129 -0.04832502
0.2192895 0.5188342 -0.07241519
0.3018521 0.4936271 -0.04307312
0.2747603 0.528009 -0.05767399
0.2883275 0.5153854 -0.0529517
0.2892312 0.5045493 -0.04832755
0.2090103 0.5190632 -0.07968313
0.3011412 0.5038025 -0.04923712
0.2349138 0.5287483 -0.06625868
0.2617499 0.5284109 -0.05974622
0.2200891 0.5301704 -0.0730904
0.3146998 0.4918597 -0.04396671
0.3132172 0.5012376 -0.04938931
0.2507275 0.5289584 -0.0616865
0.274245 0.5390074 -0.06143894
0.2870122 0.5270123 -0.05808111
0.2986773 0.5167473 -0.05475903
0.2063548 0.5314921 -0.08104524
0.2362899 0.5408856 -0.0682632
0.2591901 0.5419651 -0.06460894
0.2208001 0.541521 -0.07358798
0.2813001 0.5386234 -0.0608458
0.3217248 0.5033505 -0.05141908
0.311587 0.5142638 -0.05587935
0.2479776 0.5403397 -0.06553175
0.2740148 0.5502969 -0.06419111
0.2867236 0.538298 -0.06097499
0.2989783 0.5262693 -0.05885481
0.3102218 0.5272111 -0.05993532
0.221821 0.5528116 -0.07489597
0.24041 0.5520269 -0.06893244
0.2481686 0.551657 -0.06726745
0.2661959 0.5620009 -0.06755495
0.2868244 0.5492933 -0.06347825
0.3233898 0.51351 -0.05704758
0.3228886 0.5247816 -0.0604551
0.2069426 0.553358 -0.08125026
0.2345321 0.55229 -0.07052913
0.2610946 0.5622818 -0.06791879
0.2736209 0.5615757 -0.06733911
0.2884217 0.5608094 -0.06533355
0.2984537 0.5375394 -0.06231853
0.3153088 0.5365373 -0.06254325
0.2227407 0.5641356 -0.0756724
0.2347766 0.5636108 -0.07213467
0.2437122 0.5625627 -0.07013462
0.2674734 0.5736769 -0.0686394
0.2987495 0.5488636 -0.06380069
0.3105988 0.5368081 -0.06265969
0.3229058 0.5360875 -0.06261022
0.2070569 0.5672915 -0.08035649
0.2613403 0.5736027 -0.06952174
0.2742181 0.5729197 -0.06809323
0.299334 0.5602068 -0.0645856
0.3108629 0.5481303 -0.06421806
0.3185781 0.5476778 -0.06420048
0.2234433 0.5754878 -0.07614695
0.2352359 0.5749458 -0.07322165
0.2472419 0.5743049 -0.07196961
0.261984 0.5849496 -0.0701633
0.2753409 0.5842982 -0.06757717
0.2893342 0.5721272 -0.06623891
0.3116038 0.5594838 -0.06462488
0.3232012 0.5474117 -0.06409289
0.2238744 0.5868748 -0.07625233
0.2479492 0.5856501 -0.07257178
0.2654802 0.5961743 -0.06992961
0.276261 0.5956635 -0.06755131
0.3000236 0.571557 -0.06511559
0.3142402 0.5707884 -0.06382053
0.3226764 0.5585407 -0.06391915
0.2358452 0.5862904 -0.07394617
0.2481802 0.5970518 -0.07262535
0.2886183 0.5939673 -0.06508814
0.2893729 0.5835512 -0.06607406
0.3012043 0.5829392 -0.06446017
0.236736 0.5976538 -0.07399087
0.280004 0.6089151 -0.06306399
0.2652356 0.6107369 -0.06910645
0.2241776 0.5996415 -0.07598498
0.2485906 0.6084217 -0.07308923
0.2080854 0.5988358 -0.07935726
0.2378133 0.6090295 -0.07358536
0.2735773 0.619055 -0.05984257
0.2520646 0.6197417 -0.07103457
0.2845655 0.618706 -0.05134472
0.2117766 0.610377 -0.07712132
0.2240045 0.6097333 -0.07567004
0.24079 0.622946 -0.07150797
0.2670067 0.6191946 -0.06461962
0.262073 0.6193405 -0.0674121
0.2261956 0.6211002 -0.07416587
0.2698761 0.6231626 -0.05842241
0.2499588 0.6317117 -0.06273466
0.2552083 0.626815 -0.06477413
0.2198928 0.6213909 -0.07502247
0.2356785 0.6322193 -0.06916071
0.2744635 0.6273203 -0.04786839
0.2423731 0.6319393 -0.06696302
0.2287142 0.6325709 -0.07027864
0.2598922 0.6318773 -0.05498069
0.2452081 0.636104 -0.06088782
0.2779076 0.6306148 -0.03730232
0.2156447 0.6334834 -0.07340433
0.2304358 0.6379726 -0.06714731
0.2497868 0.6402419 -0.05057202
0.2440711 0.6442196 -0.04831437
0.2078222 0.587597 -0.08053921
0.1960226 0.5308694 -0.08695269
0.1993044 0.5193145 -0.08586647
0.2073655 0.5418615 -0.08055766
0.1991082 0.5059522 -0.08748806
0.1985963 0.4964527 -0.08717502
0.1979033 0.4859766 -0.08645134
0.2072061 0.4735998 -0.07769641
0.1975106 0.4733905 -0.084753
0.4414178 0.4713814 -0.002055087
0.456347 0.4721853 0.004067053
0.4319471 0.475027 0.004215257
0.4460105 0.4754353 0.008240139
0.4265189 0.4710952 -0.008203408
0.4587709 0.4747323 0.0094586
0.4522378 0.4868997 0.01654213
0.4610407 0.4782765 0.01428186
0.4347064 0.5779517 -0.009082427
0.4389442 0.5789669 -0.003965009
0.436978 0.5657754 -0.004275873
0.4269333 0.5838441 0.0008739986
0.4269509 0.5782927 -0.01130567
0.2116149 0.6149606 0.01152874
0.2111402 0.6262341 0.008185413
0.2225268 0.6254528 0.006012337
0.2198668 0.63513 -0.002327963
0.2173058 0.6497142 -0.01138056
0.2233299 0.614559 0.01042428
0.2147605 0.658855 -0.01933824
0.2212709 0.6030219 0.01243528
0.2114674 0.6036462 0.01336865
0.2342654 0.6193988 0.005717619
0.2334126 0.6246386 0.002629215
0.2118674 0.5971887 0.01559529
0.2349013 0.6134319 0.00842153
0.2436629 0.6237825 -0.002289818
0.2237269 0.5916177 0.01550093
0.2354293 0.602162 0.01189344
0.244753 0.6183987 0.001403534
0.2124679 0.5924073 0.01798225
0.2354599 0.5908593 0.01416408
0.2459582 0.6126289 0.00545152
0.2550701 0.6213576 -0.004094407
0.2245702 0.5803688 0.01973454
0.2353717 0.579549 0.01614732
0.2473688 0.6014171 0.01105515
0.2138282 0.5811925 0.02346495
0.2456669 0.5788877 0.01505596
0.2474151 0.5902009 0.01341516
0.258317 0.5991754 0.008100945
0.2568951 0.6118181 0.002191191
0.2643408 0.6223817 -0.005887075
0.2137528 0.5703271 0.02810412
0.2252221 0.5697737 0.02337653
0.2358466 0.5695994 0.0192341
0.2473785 0.5675039 0.01766842
0.2590014 0.5893474 0.01167224
0.2672988 0.600573 0.00513952
0.2157705 0.5474095 0.03487244
0.2045684 0.5595044 0.03516965
0.2364409 0.55701 0.0231231
0.2594314 0.5667665 0.01710393
0.2475729 0.5562119 0.02033437
0.2593501 0.5780659 0.01471134
0.2793356 0.6102337 -0.00295957
0.2785912 0.6214893 -0.00695467
0.2052205 0.5482427 0.03894129
0.2257778 0.5578389 0.02704488
0.2592568 0.5554503 0.01887874
0.2706924 0.5885862 0.0102337
0.2799734 0.6055579 -0.0005025263
0.2155797 0.536089 0.03648198
0.22627 0.5465667 0.03043031
0.2368014 0.545729 0.0261908
0.2478915 0.5449283 0.02330044
0.2695044 0.554817 0.01827498
0.271309 0.5685198 0.01656741
0.2735061 0.5772323 0.01467695
0.2810389 0.5990411 0.003351517
0.2898932 0.6112705 -0.00441181
0.2050418 0.5369262 0.04070609
0.2594759 0.5445309 0.02216692
0.2847271 0.586401 0.009690063
0.2928318 0.5982866 0.002158972
0.2159885 0.5232857 0.03996234
0.2262638 0.5352615 0.03261154
0.2477462 0.533614 0.02514614
0.2719185 0.5434483 0.02198181
0.283403 0.5652829 0.01565212
0.2574058 0.5329851 0.02395942
0.2834314 0.5765896 0.01352436
0.3014961 0.6094118 -0.008939087
0.2054062 0.5256455 0.04378315
0.2265179 0.5221393 0.0357784
0.2369823 0.5344362 0.02882433
0.2836625 0.5426906 0.02067194
0.27163 0.5321246 0.02348145
0.2834894 0.553984 0.01805732
0.2949843 0.5758193 0.01175171
0.2941524 0.5886959 0.007229807
0.3045741 0.5963363 0.001076288
0.206372 0.513647 0.04461854
0.2268193 0.5126889 0.03834667
0.2479691 0.523726 0.02779616
0.2951479 0.5645253 0.01434366
0.2712872 0.5207973 0.02484964
0.3152508 0.5962313 -0.002952861
0.2167152 0.5135547 0.04361838
0.2598063 0.5215724 0.02679583
0.2944154 0.5310744 0.02169273
0.2951782 0.5441887 0.01972042
0.2974153 0.5521395 0.01767771
0.2828436 0.5200272 0.02308662
0.3066444 0.575056 0.01023884
0.3060378 0.5863205 0.00657709
0.3127789 0.6078426 -0.01121213
0.2165609 0.5022398 0.04544165
0.2376709 0.5118724 0.03488076
0.2268798 0.5013883 0.0406897
0.2061098 0.5030827 0.04987564
0.2597705 0.5102655 0.02890544
0.3090183 0.5645484 0.01318059
0.2819903 0.5086666 0.02322195
0.2707671 0.5094585 0.02578982
0.3177009 0.5855575 0.005070773
0.3233501 0.5963981 -0.005574464
0.2484196 0.5110491 0.03116554
0.237193 0.5005363 0.03592284
0.2076823 0.4899989 0.05623695
0.1964301 0.5039764 0.0561728
0.3067714 0.5298455 0.01933166
0.2898861 0.5195773 0.02238697
0.3073765 0.5411901 0.01859653
0.3073561 0.5524935 0.01635071
0.2166926 0.4909437 0.04795634
0.2478018 0.4997037 0.03186987
0.2266788 0.4900702 0.04240037
0.1968589 0.4926212 0.06143902
0.2590548 0.4989136 0.0293732
0.3057921 0.5184763 0.01916279
0.2945918 0.5192698 0.02178629
0.3189052 0.5751057 0.009396188
0.3212009 0.5513592 0.01458969
0.2937614 0.513153 0.02095788
0.2806815 0.4972756 0.02225654
0.3302188 0.584185 0.003753698
0.2367456 0.489202 0.0370384
0.2081866 0.48061 0.05928535
0.2122505 0.4801811 0.05559941
0.270095 0.4981096 0.02636277
0.3181728 0.5290652 0.01719346
0.3187298 0.5404066 0.01634235
0.3308023 0.56228 0.01143243
0.2929631 0.507858 0.02004823
0.2915754 0.4964619 0.01889251
0.3377715 0.5951216 -0.00800097
0.2169756 0.4796576 0.05083658
0.2584016 0.4875659 0.0299921
0.2474642 0.4883767 0.03325073
0.2367229 0.4778959 0.03917993
0.1985037 0.4815035 0.06557498
0.2691726 0.486744 0.02633073
0.3173031 0.5177032 0.01728878
0.3424551 0.572821 0.007705912
0.3331079 0.5395746 0.0151196
0.3423885 0.55122 0.01223021
0.2986976 0.5074705 0.01906957
0.2901138 0.4850609 0.01755823
0.3404916 0.5852193 0.0005285073
0.3496747 0.5943744 -0.00892718
0.2258613 0.4678602 0.04501607
0.198133 0.4701744 0.06687592
0.2076778 0.4687975 0.05795689
0.3158852 0.5063053 0.01606021
0.3290913 0.5169484 0.01608532
0.3435676 0.5615118 0.01108283
0.300656 0.484224 0.01334445
0.2797825 0.4859117 0.02228155
0.2163184 0.4683096 0.0514458
0.2581474 0.4762444 0.03157431
0.2477182 0.4770888 0.03606073
0.236431 0.4665719 0.04067165
0.3045161 0.5070878 0.0182765
0.3274059 0.5055329 0.0142105
0.334385 0.5278784 0.01586788
0.3541572 0.5722107 0.006803706
0.342471 0.5389079 0.01433381
0.3550146 0.5608123 0.01056194
0.3032064 0.4977089 0.01691817
0.2864777 0.4737844 0.01165829
0.2785271 0.4745243 0.02144531
0.2682301 0.4753773 0.02625095
0.3519321 0.5832184 -0.001277527
0.3508764 0.5877387 -0.004719547
0.3618869 0.5935677 -0.009477341
0.2469522 0.4657336 0.03640705
0.3124219 0.4947394 0.01384407
0.3391345 0.5163018 0.01539067
0.3541687 0.5381471 0.01291132
0.3545705 0.5494784 0.01168569
0.2979063 0.4779968 0.007876787
0.2577036 0.4638165 0.02562301
0.32557 0.4941072 0.01197182
0.3405204 0.5068911 0.01378664
0.3534916 0.5263543 0.01378749
0.3659156 0.5713037 0.005018303
0.3650865 0.5763021 0.002033962
0.3668565 0.560061 0.009487522
0.276295 0.4691793 0.01706352
0.3106569 0.4833514 0.007823222
0.2845982 0.4723743 0.001215285
0.2656044 0.4667191 0.02155607
0.3239459 0.4883952 0.009137996
0.3528925 0.5154536 0.01422162
0.3632136 0.5824302 -0.003705189
0.3698552 0.5362827 0.01281826
0.3668193 0.5487539 0.01159469
0.3085537 0.4797143 0.003422485
0.293384 0.4748209 -0.002488444
0.3209451 0.4824978 0.002996139
0.3334044 0.4829858 0.003181522
0.3376303 0.4933704 0.01142626
0.3516009 0.504064 0.01329778
0.3671814 0.5146074 0.01409327
0.3777044 0.570549 0.003816281
0.3756468 0.5807655 -0.003165854
0.3681322 0.525943 0.01357929
0.3789105 0.5480481 0.01205268
0.3478539 0.491833 0.01208968
0.3785433 0.5608594 0.009518067
0.3822847 0.5380865 0.0125925
0.3191436 0.4804518 -0.0009814549
0.3296186 0.4792402 -0.005284748
0.34335 0.4809014 0.00174776
0.3640681 0.503354 0.01373451
0.3779281 0.5253448 0.01314249
0.3907327 0.5689622 0.003680171
0.391199 0.5586019 0.008930792
0.3400272 0.4768929 -0.009529319
0.3741086 0.5027524 0.01350982
0.3776349 0.5140208 0.01463089
0.3915069 0.5473174 0.01187114
0.3903076 0.524629 0.01336746
0.3504157 0.4742045 -0.01375649
0.3549072 0.4768546 -0.003364134
0.3899027 0.5132976 0.01458595
0.4030349 0.5578502 0.007843598
0.4025242 0.5352899 0.01260627
0.4018449 0.5239419 0.01319069
0.376342 0.4913265 0.01590108
0.4014214 0.5690486 0.001749136
0.4036538 0.5461093 0.01151593
0.3880091 0.4905637 0.01440406
0.3890437 0.5019366 0.01470692
0.4124727 0.5682453 -0.001234851
0.4158912 0.5345564 0.01361294
0.4003938 0.5126802 0.01456737
0.4147105 0.5572105 0.006704723
0.3996574 0.5013412 0.01525618
0.4114019 0.5727947 -0.004718971
0.4161339 0.5458771 0.01200265
0.4153868 0.5232185 0.01459108
0.4146678 0.5118664 0.01505072
0.394842 0.4781272 0.005371577
0.3992428 0.4892713 0.01524163
0.4258983 0.557918 0.00339788
0.4223894 0.5687792 -0.00723342
0.4279447 0.5451238 0.01085318
0.4276688 0.52249 0.01456518
0.4137906 0.5005041 0.01512815
0.4128331 0.4891363 0.01501171
0.422179 0.5793335 -0.009795669
0.4284528 0.5338309 0.01385804
0.4261848 0.5112439 0.01610361
0.4081159 0.4775208 0.005812308
0.4103297 0.4807658 0.01055823
0.4394417 0.5441068 0.008993386
0.439833 0.5217661 0.01428497
0.4400426 0.5330846 0.01259423
0.4268504 0.4883047 0.01485781
0.4265037 0.5003216 0.01559189
0.4056507 0.4749215 0.0003310045
0.4198464 0.4767697 0.006945409
0.4379158 0.555554 0.003063794
0.4393596 0.5104302 0.01533724
0.4116592 0.4714793 -0.01438644
0.4160871 0.4730479 -0.003938274
0.4486511 0.5547298 -0.0006837902
0.4507004 0.5322554 0.008660042
0.4498076 0.5426942 0.004463412
0.4514859 0.5210024 0.01275436
0.4376411 0.4877078 0.01557899
0.438026 0.4990379 0.0143125
0.4481595 0.5660021 -0.004067658
0.4515016 0.5096987 0.01498841
0.4357432 0.4805078 0.01236927
0.4610406 0.5423747 9.888741E-05
0.457969 0.5538123 -0.00785408
0.4569636 0.5093846 0.01512122
0.4613566 0.531426 0.004722354
0.450426 0.4983234 0.01458671
0.4598412 0.5652403 -0.005528278
0.4627694 0.4976882 0.0153066
0.4655336 0.5194843 0.01098765
0.4721039 0.5507443 -0.005175735
0.4725016 0.5419335 -0.0002312336
0.4638814 0.5089829 0.01521443
0.4729792 0.5306603 0.00311858
0.4620769 0.5696943 -0.0009641337
0.471782 0.5641088 -0.004829363
0.4757819 0.5082355 0.01428238
0.4743969 0.5209233 0.008453325
0.463074 0.4863206 0.01765691
0.4842134 0.5411737 -0.001620141
0.4839773 0.5524629 -0.004386799
0.4754461 0.4969089 0.01566759
0.4858803 0.5295354 0.002425866
0.4753524 0.485598 0.01763751
0.4777597 0.5746704 0.006176713
0.4875369 0.5641792 0.0007304659
0.4868906 0.5074359 0.01143672
0.4861922 0.5186946 0.007552929
0.4712676 0.4741184 0.00994835
0.4848244 0.4841469 0.01702255
0.490364 0.5754928 0.006648301
0.4815311 0.4733641 0.005041292
0.4241336 0.6099831 -0.01100374
0.4135783 0.6098325 -0.006630016
0.4705055 0.5885521 0.01584077
0.4816722 0.5877563 0.01313592
0.4913665 0.5868636 0.00687384
0.4887871 0.5915051 -0.0002920479
0.4977373 0.5751691 0.008772558
0.4842217 0.5286586 -0.01489827
0.2170418 0.5401263 -0.01625126
3 0 1 2
3 1 3 2
3 1 0 4
3 3 1 5
3 4 0 6
3 5 1 4
3 5 7 3
3 8 4 6
3 9 5 4
3 10 3 7
3 5 11 7
3 4 8 9
3 6 12 8
3 5 9 13
3 11 10 7
3 5 14 11
3 15 9 8
3 12 16 8
3 9 15 13
3 5 13 14
3 17 10 11
3 11 14 18
3 8 16 15
3 14 13 19
3 20 17 11
3 19 18 14
3 18 20 11
3 21 17 20
3 21 20 22
3 23 24 25
3 26 24 23
3 27 26 23
3 28 29 30
3 30 29 31
3 32 33 34
3 34 33 35
3 35 36 34
3 36 37 34
3 26 37 36
3 38 39 40
3 40 39 41
3 40 42 38
3 40 41 43
3 44 42 40
3 40 43 45
3 44 46 42
3 45 44 40
3 47 46 44
3 47 44 45
3 48 49 50
3 50 49 51
3 22 51 49
3 52 31 53
3 54 34 55
3 56 55 34
3 57 34 54
3 56 58 55
3 37 56 34
3 34 57 32
3 59 57 54
3 59 32 57
3 25 60 61
3 62 61 60
3 25 24 60
3 63 62 60
3 64 60 24
3 65 63 60
3 64 65 60
3 66 67 68
3 69 67 70
3 71 72 73
3 74 73 72
3 71 75 72
3 73 74 70
3 74 72 75
3 71 76 75
3 74 77 70
3 74 75 77
3 76 71 78
3 70 77 79
3 59 54 80
3 81 59 80
3 81 80 78
3 79 82 83
3 84 85 86
3 87 88 89
3 89 90 87
3 91 90 89
3 92 87 90
3 91 93 90
3 90 94 92
3 95 93 91
3 94 90 93
3 93 95 96
3 97 94 93
3 96 98 93
3 99 96 95
3 97 93 100
3 100 93 98
3 101 98 96
3 96 99 102
3 100 98 101
3 101 96 102
3 103 100 101
3 101 102 104
3 103 101 105
3 104 105 101
3 106 103 105
3 104 107 105
3 106 105 108
3 108 105 107
3 109 107 104
3 108 107 110
3 110 107 109
3 110 109 111
3 84 112 85
3 113 84 86
3 114 113 86
3 114 86 27
3 115 116 117
3 117 116 118
3 119 120 121
3 122 121 120
3 119 123 120
3 119 121 124
3 125 122 120
3 121 122 126
3 127 123 119
3 120 123 128
3 124 121 129
3 119 124 130
3 122 125 131
3 120 128 125
3 122 132 126
3 126 129 121
3 127 119 133
3 134 123 127
3 124 129 135
3 133 119 130
3 124 136 130
3 122 131 132
3 126 132 137
3 126 138 129
3 139 127 133
3 127 140 134
3 135 129 141
3 124 135 136
3 142 133 130
3 130 136 143
3 144 132 131
3 145 126 137
3 132 144 137
3 138 126 145
3 129 138 141
3 140 127 139
3 139 133 142
3 146 134 140
3 135 141 147
3 136 135 148
3 142 130 149
3 149 130 143
3 136 150 143
3 151 144 131
3 145 137 152
3 138 145 153
3 141 138 153
3 140 139 154
3 154 139 142
3 146 140 155
3 147 141 156
3 135 147 148
3 150 136 148
3 157 142 149
3 158 149 143
3 143 150 159
3 145 152 160
3 153 145 161
3 141 153 162
3 140 154 163
3 154 142 157
3 155 140 163
3 164 146 155
3 147 156 165
3 162 156 141
3 147 165 148
3 150 148 159
3 149 158 157
3 158 143 166
3 143 159 167
3 145 160 161
3 168 160 152
3 161 162 153
3 163 154 169
3 154 157 169
3 155 163 170
3 164 155 171
3 165 156 172
3 162 173 156
3 165 174 148
3 148 175 159
3 176 157 158
3 158 166 177
3 143 167 166
3 167 159 175
3 161 160 178
3 160 168 178
3 179 162 161
3 163 169 180
3 169 157 176
3 171 155 170
3 170 163 180
3 171 181 164
3 156 173 172
3 165 172 182
3 173 162 179
3 148 174 175
3 183 174 165
3 176 158 177
3 177 166 84
3 184 166 167
3 167 175 184
3 185 161 178
3 178 168 186
3 179 161 185
3 187 180 169
3 169 176 187
3 188 171 170
3 189 170 180
3 190 181 171
3 172 173 191
3 165 182 183
3 191 182 172
3 173 179 192
3 175 174 193
3 174 183 194
3 176 177 113
3 84 166 184
3 177 84 113
3 175 195 184
3 185 178 186
3 179 185 192
3 196 180 187
3 187 176 113
3 190 171 188
3 188 170 52
3 196 189 180
3 170 189 52
3 181 190 197
3 192 191 173
3 183 182 198
3 199 182 191
3 193 174 194
3 175 193 195
3 194 183 200
3 84 184 112
3 184 195 201
3 202 196 187
3 187 113 202
3 190 188 203
3 188 52 204
3 30 189 196
3 31 52 189
3 203 197 190
3 199 191 192
3 183 198 200
3 198 182 199
3 193 194 205
3 193 206 195
3 194 200 207
3 184 201 112
3 201 195 208
3 209 196 202
3 202 113 114
3 204 203 188
3 53 204 52
3 189 30 31
3 203 210 197
3 192 211 199
3 200 198 212
3 198 199 213
3 205 194 207
3 206 193 205
3 208 195 206
3 207 200 212
3 208 214 201
3 62 209 202
3 202 114 62
3 204 215 203
3 216 204 53
3 215 210 203
3 199 211 217
3 198 213 212
3 213 199 218
3 205 207 219
3 206 205 220
3 206 220 208
3 207 212 221
3 214 208 222
3 223 215 204
3 223 204 216
3 224 210 215
3 225 217 211
3 217 218 199
3 212 213 226
3 226 213 218
3 219 207 221
3 220 205 219
3 208 220 222
3 221 212 227
3 215 223 228
3 223 216 48
3 224 215 22
3 229 217 225
3 230 218 217
3 212 226 227
3 218 230 226
3 222 220 219
3 227 231 221
3 223 48 228
3 228 22 215
3 217 229 230
3 229 225 232
3 226 233 227
3 226 230 233
3 234 221 231
3 231 227 235
3 48 50 228
3 51 22 228
3 230 229 236
3 237 232 225
3 229 232 238
3 235 227 233
3 233 230 236
3 239 221 234
3 234 231 235
3 51 228 50
3 236 229 238
3 232 237 240
3 238 232 240
3 233 241 235
3 233 236 241
3 239 234 242
3 234 235 242
3 236 238 243
3 240 237 244
3 238 240 245
3 235 241 246
3 241 236 247
3 239 242 248
3 242 235 246
3 243 238 249
3 236 243 247
3 245 240 244
3 245 249 238
3 246 241 247
3 248 242 250
3 246 250 242
3 251 247 243
3 245 244 252
3 253 249 245
3 251 246 247
3 254 248 250
3 243 255 251
3 253 245 252
3 256 248 254
3 256 254 257
3 118 256 257
3 258 118 257
3 152 259 260
3 259 144 260
3 152 137 259
3 260 168 152
3 144 261 260
3 137 144 259
3 168 260 262
3 260 261 263
3 144 264 261
3 168 262 186
3 260 103 262
3 263 261 264
3 263 265 260
3 151 264 144
3 186 262 106
3 262 103 106
3 265 103 260
3 264 97 263
3 263 97 265
3 266 186 106
3 265 100 103
3 264 94 97
3 100 265 97
3 266 106 267
3 185 186 266
3 267 106 108
3 266 267 268
3 185 266 268
3 267 108 110
3 268 267 269
3 268 270 185
3 267 110 271
3 272 268 269
3 271 269 267
3 192 185 270
3 273 270 268
3 271 110 274
3 272 269 275
3 273 268 272
3 275 269 271
3 273 192 270
3 110 111 274
3 271 274 276
3 277 272 275
3 225 273 272
3 275 271 276
3 211 192 273
3 278 274 111
3 276 274 279
3 225 272 277
3 275 280 277
3 211 273 225
3 275 276 280
3 279 274 278
3 276 279 281
3 277 237 225
3 277 280 282
3 280 276 281
3 279 278 283
3 281 279 283
3 237 277 282
3 282 280 284
3 284 280 281
3 285 283 278
3 281 283 285
3 237 282 284
3 284 281 286
3 281 285 287
3 244 237 284
3 286 281 288
3 289 284 286
3 290 287 285
3 281 287 288
3 244 284 289
3 286 288 291
3 289 286 291
3 287 290 292
3 292 288 287
3 252 244 289
3 293 291 288
3 289 291 294
3 295 292 290
3 293 288 292
3 289 294 252
3 293 292 295
3 293 295 296
3 115 297 116
3 116 297 298
3 297 115 299
3 298 256 116
3 239 298 297
3 299 300 297
3 298 248 256
3 118 116 256
3 297 301 239
3 298 239 248
3 300 302 297
3 303 300 299
3 302 301 297
3 301 221 239
3 304 302 300
3 304 300 303
3 305 303 299
3 302 219 301
3 219 221 301
3 304 222 302
3 306 304 303
3 222 219 302
3 214 222 304
3 306 214 304
3 104 46 109
3 307 109 46
3 38 102 99
3 308 309 310
3 310 16 308
3 12 308 16
3 311 312 310
3 16 310 312
3 77 305 299
3 77 299 115
3 313 314 315
3 316 317 318
3 317 319 320
3 321 314 313
3 314 322 315
3 323 320 319
3 315 322 323
3 316 324 325
3 326 316 318
3 320 318 317
3 327 328 325
3 321 329 314
3 330 322 314
3 322 320 323
3 331 324 316
3 325 324 327
3 326 331 316
3 332 326 318
3 320 332 318
3 333 328 327
3 330 314 329
3 330 334 322
3 322 334 320
3 331 335 324
3 336 327 324
3 337 331 326
3 332 337 326
3 334 332 320
3 333 327 336
3 330 329 338
3 330 339 334
3 337 335 331
3 335 336 324
3 340 337 332
3 332 334 339
3 336 341 333
3 342 330 338
3 339 330 342
3 335 337 343
3 336 335 344
3 345 337 340
3 340 332 339
3 333 341 346
3 336 347 341
3 342 338 348
3 349 339 342
3 343 344 335
3 345 343 337
3 344 350 336
3 351 345 340
3 349 340 339
3 352 346 341
3 341 347 352
3 350 347 336
3 353 348 338
3 348 354 342
3 349 342 354
3 355 344 343
3 343 345 356
3 344 357 350
3 351 356 345
3 351 340 349
3 358 352 347
3 350 358 347
3 348 353 88
3 359 354 348
3 360 349 354
3 355 361 344
3 356 355 343
3 362 350 357
3 361 357 344
3 356 351 363
3 351 349 360
3 364 352 358
3 362 358 350
3 88 359 348
3 365 354 359
3 360 354 365
3 366 361 355
3 367 355 356
3 368 362 357
3 361 368 357
3 356 363 367
3 363 351 369
3 351 360 369
3 370 364 358
3 362 370 358
3 87 359 88
3 92 365 359
3 371 360 365
3 366 368 361
3 367 366 355
3 368 370 362
3 372 367 363
3 363 369 373
3 360 374 369
3 375 364 370
3 92 359 87
3 371 365 92
3 376 360 371
3 377 368 366
3 366 367 378
3 370 368 377
3 372 378 367
3 372 363 373
3 373 369 374
3 376 374 360
3 379 375 370
3 92 380 371
3 376 371 381
3 382 377 366
3 366 378 382
3 379 370 377
3 383 378 372
3 373 384 372
3 373 374 385
3 374 376 385
3 386 375 379
3 381 371 380
3 380 92 94
3 385 376 381
3 387 377 382
3 388 382 378
3 389 379 377
3 383 388 378
3 390 383 372
3 372 384 390
3 384 373 385
3 389 386 379
3 381 380 391
3 380 94 391
3 381 392 385
3 377 387 389
3 382 393 387
3 388 393 382
3 388 383 394
3 394 383 390
3 384 395 390
3 396 384 385
3 392 381 391
3 264 391 94
3 385 392 397
3 398 389 387
3 399 387 393
3 400 393 388
3 401 388 394
3 394 390 402
3 402 390 395
3 395 384 396
3 397 396 385
3 403 392 391
3 391 264 151
3 397 392 404
3 389 398 405
3 387 406 398
3 399 406 387
3 393 400 399
3 407 400 388
3 401 407 388
3 394 408 401
3 409 394 402
3 402 395 410
3 396 410 395
3 410 396 397
3 404 392 403
3 151 403 391
3 397 404 411
3 412 405 398
3 412 398 406
3 399 413 406
3 414 399 400
3 414 400 407
3 407 401 415
3 415 401 408
3 408 394 409
3 409 402 416
3 402 410 416
3 417 410 397
3 131 404 403
3 131 403 151
3 411 417 397
3 404 418 411
3 419 405 412
3 406 413 412
3 414 413 399
3 420 414 407
3 415 420 407
3 408 421 415
3 421 408 409
3 416 422 409
3 416 410 417
3 125 404 131
3 411 423 417
3 424 411 418
3 418 404 125
3 419 412 425
3 425 412 413
3 414 426 413
3 427 414 420
3 415 428 420
3 429 415 421
3 409 430 421
3 430 409 422
3 422 416 431
3 417 423 416
3 424 423 411
3 418 432 424
3 128 418 125
3 433 419 425
3 413 426 425
3 427 426 414
3 434 427 420
3 420 428 434
3 415 435 428
3 436 415 429
3 429 421 430
3 422 437 430
3 438 422 431
3 431 416 423
3 424 431 423
3 439 424 432
3 432 418 128
3 433 425 440
3 440 425 426
3 426 427 434
3 441 434 428
3 435 415 436
3 428 435 441
3 436 429 442
3 430 443 429
3 444 430 437
3 437 422 438
3 439 438 431
3 439 431 424
3 439 432 123
3 123 432 128
3 445 433 440
3 434 440 426
3 441 445 434
3 446 435 436
3 447 441 435
3 429 443 442
3 442 446 436
3 443 430 444
3 444 437 146
3 437 438 146
3 438 439 134
3 134 439 123
3 448 433 445
3 434 445 440
3 445 441 449
3 447 435 446
3 449 441 447
3 442 443 444
3 446 442 181
3 146 164 444
3 146 438 134
3 433 448 450
3 448 445 451
3 449 451 445
3 447 446 452
3 453 449 447
3 442 444 164
3 181 442 164
3 446 181 454
3 455 450 448
3 448 451 456
3 449 457 451
3 458 447 452
3 454 452 446
3 457 449 453
3 453 447 459
3 454 181 197
3 455 448 456
3 460 456 451
3 451 457 460
3 459 447 458
3 461 458 452
3 454 461 452
3 457 453 462
3 463 453 459
3 210 454 197
3 456 464 455
3 464 456 460
3 460 457 465
3 463 459 458
3 463 458 461
3 466 461 454
3 467 457 462
3 453 463 462
3 466 454 210
3 468 464 460
3 468 460 465
3 465 457 467
3 469 463 461
3 466 469 461
3 470 467 462
3 462 463 469
3 466 210 471
3 472 464 468
3 473 468 465
3 465 467 470
3 19 469 466
3 470 462 474
3 462 469 474
3 224 471 210
3 471 19 466
3 311 472 468
3 468 473 311
3 473 465 470
3 469 19 13
3 470 474 475
3 13 474 469
3 18 471 224
3 18 19 471
3 311 473 312
3 312 473 470
3 475 312 470
3 13 475 474
3 18 224 20
3 15 312 475
3 13 15 475
3 224 22 20
3 312 15 16
3 450 476 433
3 476 419 433
3 477 478 386
3 479 477 386
3 478 375 386
3 375 478 480
3 479 386 389
3 405 479 389
3 480 364 375
3 480 352 364
3 480 481 352
3 481 482 352
3 482 346 352
3 483 482 484
3 346 482 483
3 346 483 333
3 285 485 290
3 290 485 486
3 485 285 487
3 485 488 486
3 290 486 295
3 487 285 489
3 488 485 487
3 490 486 488
3 490 295 486
3 490 488 491
3 490 491 492
3 493 494 495
3 493 496 494
3 495 497 493
3 493 497 496
3 498 499 500
3 500 499 501
3 501 502 0
3 498 500 503
3 2 500 501
3 0 2 501
3 0 502 6
3 504 6 502
3 505 506 498
3 498 503 505
3 503 500 507
3 508 500 2
3 504 12 6
3 509 506 505
3 505 503 510
3 510 503 507
3 507 500 508
3 511 508 2
3 512 509 505
3 510 513 505
3 514 510 507
3 507 508 511
3 511 2 3
3 512 515 509
3 505 516 512
3 513 516 505
3 513 510 517
3 517 510 514
3 511 514 507
3 3 518 511
3 512 519 515
3 516 520 512
3 516 513 521
3 517 521 513
3 518 517 514
3 514 511 518
3 10 518 3
3 515 519 522
3 512 520 519
3 523 520 516
3 516 521 524
3 517 525 521
3 526 517 518
3 518 10 527
3 528 522 519
3 529 519 520
3 530 520 523
3 516 524 523
3 524 521 525
3 526 525 517
3 526 518 527
3 10 17 527
3 519 529 528
3 520 530 529
3 531 530 523
3 523 524 532
3 532 524 525
3 525 526 533
3 533 526 527
3 21 527 17
3 534 535 528
3 534 528 529
3 530 536 529
3 523 537 531
3 531 538 530
3 532 539 523
3 532 525 533
3 527 540 533
3 541 527 21
3 535 534 542
3 529 543 534
3 529 536 543
3 530 538 536
3 537 544 531
3 539 537 523
3 531 544 538
3 539 532 545
3 545 532 533
3 546 533 540
3 541 540 527
3 541 21 49
3 534 547 542
3 543 548 534
3 536 549 543
3 538 550 536
3 551 544 537
3 537 539 552
3 550 538 544
3 545 553 539
3 545 533 554
3 554 533 546
3 546 540 555
3 540 541 555
3 48 541 49
3 542 547 556
3 547 534 548
3 543 549 548
3 536 550 549
3 557 544 551
3 537 552 551
3 539 553 552
3 550 544 557
3 545 558 553
3 554 558 545
3 559 554 546
3 559 546 555
3 541 48 555
3 547 560 556
3 548 561 547
3 561 548 549
3 550 562 549
3 563 557 551
3 551 552 564
3 564 552 553
3 550 557 565
3 566 553 558
3 554 559 558
3 559 555 567
3 555 48 216
3 556 560 568
3 547 569 560
3 561 569 547
3 549 570 561
3 549 562 570
3 565 562 550
3 551 571 563
3 563 572 557
3 564 573 551
3 564 553 566
3 557 572 565
3 574 566 558
3 559 575 558
3 216 567 555
3 567 576 559
3 568 560 577
3 560 569 578
3 569 561 570
3 570 562 579
3 579 562 565
3 572 563 571
3 573 571 551
3 573 564 580
3 564 566 574
3 572 581 565
3 574 558 575
3 575 559 576
3 216 53 567
3 567 582 576
3 583 577 560
3 579 578 569
3 578 583 560
3 570 579 569
3 584 579 565
3 571 585 572
3 571 573 586
3 574 580 564
3 580 587 573
3 572 588 581
3 565 581 584
3 575 589 574
3 590 575 576
3 591 567 53
3 582 590 576
3 591 582 567
3 592 577 583
3 593 578 579
3 578 594 583
3 592 595 577
3 584 596 579
3 571 586 585
3 585 588 572
3 573 587 586
3 580 574 589
3 580 597 587
3 588 598 581
3 581 599 584
3 590 589 575
3 31 591 53
3 600 590 582
3 582 591 601
3 583 594 592
3 602 593 579
3 593 603 578
3 578 603 594
3 595 604 605
3 604 595 592
3 584 599 596
3 579 596 602
3 586 606 585
3 607 588 585
3 608 586 587
3 589 597 580
3 609 587 597
3 598 588 607
3 581 598 599
3 589 590 600
3 29 591 31
3 600 582 601
3 591 29 601
3 610 592 594
3 602 611 593
3 593 611 603
3 612 594 603
3 605 604 613
3 592 610 604
3 614 596 599
3 596 614 602
3 606 615 585
3 608 606 586
3 585 616 607
3 608 587 609
3 589 617 597
3 618 609 597
3 598 607 619
3 598 620 599
3 589 600 617
3 621 600 601
3 601 29 28
3 594 612 610
3 602 614 611
3 622 603 611
3 603 622 612
3 613 604 623
3 610 624 604
3 599 625 614
3 585 615 616
3 615 606 626
3 606 608 627
3 616 619 607
3 609 627 608
3 617 628 597
3 618 627 609
3 628 618 597
3 629 598 619
3 598 630 620
3 599 620 625
3 617 600 621
3 601 631 621
3 631 601 28
3 632 610 612
3 614 633 611
3 611 634 622
3 622 635 612
3 623 636 613
3 604 624 623
3 610 632 624
3 625 637 614
3 619 616 615
3 626 638 615
3 627 626 606
3 628 617 639
3 618 640 627
3 618 628 641
3 629 630 598
3 642 629 619
3 630 643 620
3 637 625 620
3 639 617 621
3 631 644 621
3 645 631 28
3 612 646 632
3 614 637 633
3 611 633 634
3 635 622 634
3 612 635 646
3 647 636 623
3 624 648 623
3 624 632 648
3 642 619 615
3 638 649 615
3 626 650 638
3 626 627 640
3 639 651 628
3 641 640 618
3 628 651 641
3 630 629 642
3 630 652 643
3 620 643 653
3 620 653 637
3 639 621 644
3 644 631 645
3 645 28 64
3 632 646 654
3 655 633 637
3 633 655 634
3 634 656 635
3 635 657 646
3 623 648 647
3 648 632 654
3 658 642 615
3 615 649 658
3 638 659 649
3 650 659 638
3 660 650 626
3 640 660 626
3 661 651 639
3 641 662 640
3 641 651 663
3 630 642 664
3 665 643 652
3 664 652 630
3 666 653 643
3 667 637 653
3 639 644 668
3 645 669 644
3 645 64 670
3 637 667 655
3 634 655 656
3 656 671 635
3 635 671 657
3 658 664 642
3 664 658 649
3 672 649 659
3 659 650 673
3 673 650 660
3 660 640 662
3 661 663 651
3 639 668 661
3 641 674 662
3 675 641 663
3 665 666 643
3 652 676 665
3 652 664 672
3 653 666 667
3 668 644 669
3 669 645 670
3 670 64 24
3 677 655 667
3 671 656 655
3 672 664 649
3 659 678 672
3 659 673 679
3 680 673 660
3 662 680 660
3 663 661 681
3 661 668 682
3 680 662 674
3 675 674 641
3 675 663 683
3 665 684 666
3 676 652 685
3 686 665 676
3 685 652 672
3 687 667 666
3 670 668 669
3 26 670 24
3 655 677 671
3 687 677 667
3 678 688 672
3 678 659 679
3 679 673 689
3 680 689 673
3 681 683 663
3 681 661 682
3 682 668 690
3 680 674 691
3 675 691 674
3 683 692 675
3 666 684 687
3 665 321 684
3 685 693 676
3 665 686 321
3 694 686 676
3 672 695 685
3 690 668 670
3 690 670 26
3 687 313 677
3 688 695 672
3 678 696 688
3 679 697 678
3 698 679 689
3 680 699 689
3 683 681 700
3 701 681 682
3 682 690 701
3 691 702 680
3 692 691 675
3 703 692 683
3 321 687 684
3 693 685 695
3 693 353 676
3 686 329 321
3 329 686 694
3 676 353 694
3 701 690 26
3 321 313 687
3 688 696 695
3 697 696 678
3 704 697 679
3 698 704 679
3 698 689 699
3 702 699 680
3 683 700 705
3 700 681 701
3 702 691 706
3 692 703 691
3 683 705 703
3 695 707 693
3 353 693 707
3 694 338 329
3 338 694 353
3 36 701 26
3 696 708 695
3 709 696 697
3 709 697 704
3 704 698 710
3 699 710 698
3 699 702 711
3 705 700 712
3 700 701 36
3 703 706 691
3 706 711 702
3 703 705 713
3 695 708 707
3 707 88 353
3 714 708 696
3 714 696 709
3 704 39 709
3 710 41 704
3 715 710 699
3 711 716 699
3 713 705 712
3 712 700 36
3 706 703 717
3 706 718 711
3 713 717 703
3 88 707 708
3 709 719 714
3 39 720 709
3 41 39 704
3 715 41 710
3 716 715 699
3 711 721 716
3 722 713 712
3 36 35 712
3 706 717 723
3 724 718 706
3 718 721 711
3 717 713 722
3 720 719 709
3 38 720 39
3 715 725 41
3 715 716 721
3 722 712 726
3 726 712 35
3 717 727 723
3 706 723 724
3 724 721 718
3 722 727 717
3 720 99 719
3 38 99 720
3 725 43 41
3 715 728 725
3 721 729 715
3 722 726 730
3 730 726 35
3 731 723 727
3 724 723 731
3 732 721 724
3 733 727 722
3 725 45 43
3 728 45 725
3 729 728 715
3 734 729 721
3 722 730 733
3 35 735 730
3 731 727 736
3 731 737 724
3 721 732 734
3 724 738 732
3 733 736 727
3 739 45 728
3 740 728 729
3 729 734 740
3 733 730 741
3 742 730 735
3 33 735 35
3 731 736 743
3 737 738 724
3 731 744 737
3 732 745 734
3 738 745 732
3 736 733 741
3 47 45 739
3 739 728 740
3 734 746 740
3 741 730 742
3 747 742 735
3 735 33 747
3 743 748 731
3 741 743 736
3 738 737 749
3 737 744 749
3 748 744 731
3 745 746 734
3 745 738 749
3 739 307 47
3 740 750 739
3 746 751 740
3 741 742 495
3 742 747 497
3 32 747 33
3 743 752 748
3 741 752 743
3 749 744 753
3 744 748 754
3 745 755 746
3 745 749 756
3 46 47 307
3 757 307 739
3 750 757 739
3 751 750 740
3 758 751 746
3 495 742 497
3 759 741 495
3 497 747 496
3 496 747 32
3 754 748 752
3 759 752 741
3 760 749 753
3 754 753 744
3 758 746 755
3 756 755 745
3 756 749 760
3 757 761 307
3 762 757 750
3 758 750 751
3 763 759 495
3 764 754 752
3 759 765 752
3 760 753 766
3 753 754 764
3 487 758 755
3 756 767 755
3 768 756 760
3 762 761 757
3 762 750 758
3 763 765 759
3 763 495 769
3 752 765 764
3 766 770 760
3 764 766 753
3 487 489 758
3 487 755 771
3 767 771 755
3 768 767 756
3 768 760 770
3 762 278 761
3 758 489 762
3 763 772 765
3 769 495 494
3 769 773 763
3 772 764 765
3 770 766 774
3 766 764 775
3 771 488 487
3 767 488 771
3 767 768 776
3 770 776 768
3 773 772 763
3 769 494 66
3 777 773 769
3 775 764 772
3 770 774 778
3 766 779 774
3 775 779 766
3 491 488 767
3 776 491 767
3 778 776 770
3 773 780 772
3 66 494 73
3 66 777 769
3 780 773 777
3 775 772 781
3 782 778 774
3 782 774 779
3 775 783 779
3 778 491 776
3 781 772 780
3 494 496 73
3 784 777 66
3 780 777 785
3 783 775 781
3 778 782 786
3 786 782 779
3 783 787 779
3 778 788 491
3 789 781 780
3 785 777 784
3 784 66 68
3 790 780 785
3 783 781 789
3 786 791 778
3 786 779 787
3 787 783 792
3 778 793 788
3 788 492 491
3 789 780 790
3 785 784 794
3 784 68 794
3 790 785 795
3 789 792 783
3 791 786 796
3 791 793 778
3 787 796 786
3 797 787 792
3 793 798 788
3 788 798 492
3 785 794 795
3 69 794 68
3 793 791 799
3 797 796 787
3 798 793 799
3 492 798 490
3 800 795 794
3 69 68 67
3 801 798 799
3 798 295 490
3 295 798 801
3 801 296 295
3 81 32 59
3 21 22 49
3 95 719 99
3 719 95 714
3 714 95 91
3 714 91 708
3 708 91 89
3 708 89 88
3 63 209 62
3 209 63 65
3 28 196 209
3 65 28 209
3 28 65 64
3 30 196 28
3 46 104 42
3 42 104 102
3 42 102 38
3 75 305 77
3 76 305 75
3 303 305 76
3 306 303 802
3 802 303 76
3 78 803 76
3 76 803 802
3 55 80 54
3 80 55 78
3 78 55 803
3 58 201 214
3 112 201 56
3 201 58 56
3 58 803 55
3 26 27 86
3 214 306 58
3 26 86 85
3 26 85 37
3 803 58 802
3 37 85 56
3 802 58 306
3 56 85 112
3 111 761 278
3 109 307 761
3 761 111 109
3 61 23 25
3 62 27 23
3 62 23 61
3 62 114 27
3 278 489 285
3 489 278 762
3 78 71 81
3 496 71 73
3 32 81 71
3 71 496 32
3 69 70 804
3 805 804 83
3 83 82 117
3 806 800 794
3 805 794 69
3 69 804 805
3 807 118 258
3 794 805 806
3 83 804 79
3 806 805 83
3 83 807 806
3 83 117 118
3 79 77 82
3 115 82 77
3 807 258 806
3 800 806 808
3 804 70 79
3 118 807 83
3 115 117 82
3 66 70 67
3 66 73 70
3 809 249 243
3 809 253 249
3 809 252 253
3 809 294 252
3 809 291 294
3 809 293 291
3 809 296 293
3 809 801 296
3 809 799 801
3 809 791 799
3 809 796 791
3 809 797 796
3 809 792 797
3 809 789 792
3 809 790 789
3 809 795 790
3 809 795 800
3 809 800 808
3 809 806 808
3 809 258 806
3 809 257 258
3 809 254 257
3 809 250 254
3 809 246 250
3 809 251 246
3 809 255 251
3 809 243 255
3 810 308 309
3 810 309 310
3 810 310 311
3 810 311 472
3 810 472 464
3 810 464 455
3 810 455 450
3 810 450 476
3 810 476 419
3 810 419 405
3 810 405 479
3 810 479 477
3 810 477 478
3 810 478 480
3 810 480 481
3 810 481 482
3 810 482 484
3 810 484 483
3 810 483 333
3 810 333 328
3 810 328 325
3 810 325 316
3 810 316 317
3 810 317 319
3 810 319 323
3 810 323 315
3 810 315 313
3 810 313 677
3 810 677 671
3 810 671 657
3 810 657 646
3 810 646 654
3 810 654 648
3 810 648 647
3 810 647 636
3 810 636 613
3 810 613 605
3 810 595 605
3 810 595 577
3 810 577 568
3 810 568 556
3 810 556 542
3 810 542 535
3 810 535 528
3 810 528 522
3 810 522 515
3 810 515 509
3 810 509 506
3 810 506 498
3 810 498 499
3 810 499 501
3 810 501 502
3 810 502 504
3 810 504 12
3 810 12 308
