ply
format ascii 1.0
element vertex 330
property float x
property float y
property float z
element face 656
property list uchar int vertex_indices
end_header
0.1342428 -0.8881623 0.00196944
0.1288883 -0.8883689 -0.008132242
0.1338862 -0.8767318 0.001805406
0.1393146 -0.8879332 0.01218769
0.1392228 -0.8765238 0.01191458
0.1450883 -0.8864562 0.02151966
0.1404196 -0.8993526 0.01341799
0.1452996 -0.8991789 0.02234059
0.1364254 -0.9105143 0.01400191
0.1441437 -0.9043081 0.02295895
0.1443116 -0.876296 0.02212558
0.1503334 -0.8989467 0.03257445
0.1459154 -0.9099954 0.0347046
0.1498137 -0.8816027 0.03231658
0.1436307 -0.8648394 0.02209493
0.151012 -0.8875991 0.03198403
0.1484179 -0.9053562 0.03354219
0.1485131 -0.8759971 0.03270201
0.155472 -0.8873209 0.04245424
0.1518818 -0.9084347 0.04451619
0.1527864 -0.875704 0.04324919
0.1481824 -0.8645687 0.03252731
0.1552607 -0.898706 0.04285211
0.1541361 -0.8818272 0.04285746
0.1584269 -0.8863016 0.05393216
0.1560701 -0.9079158 0.05509232
0.156927 -0.8754002 0.05385092
0.1588991 -0.8620306 0.0527723
0.1592473 -0.89839 0.05351728
0.1559595 -0.8528726 0.04193868
0.1615771 -0.8882347 0.06459977
0.1619401 -0.8983142 0.06484324
0.1610679 -0.8750966 0.06445231
0.1640904 -0.8628703 0.06395344
0.1659713 -0.8748539 0.07473996
0.1625623 -0.8973852 0.07676563
0.1679012 -0.8689285 0.07377949
0.1642426 -0.8861176 0.07576273
0.1712509 -0.8727478 0.08482081
0.1673683 -0.8857327 0.08678205
0.1232167 -0.9012222 -0.04240581
0.1261568 -0.9027885 -0.05399525
0.1274196 -0.8902366 -0.04599974
0.1376019 -0.8913202 -0.05540659
0.1223802 -0.9005424 -0.03018637
0.1296893 -0.877569 -0.04611433
0.1227566 -0.8891862 -0.03095568
0.1242768 -0.8784785 -0.03088496
0.1395494 -0.879887 -0.05289825
0.1248911 -0.8886841 -0.018793
0.133038 -0.86748 -0.04114483
0.1410101 -0.8738875 -0.05051704
0.1518052 -0.8804123 -0.05490436
0.126473 -0.8665575 -0.030742
0.1424586 -0.8683907 -0.04806698
0.1259211 -0.8773645 -0.01952806
0.1343178 -0.8560913 -0.04024984
0.1529943 -0.8692281 -0.05229695
0.1258822 -0.8659594 -0.01982302
0.1251886 -0.855768 -0.03224745
0.1441664 -0.8569738 -0.04613797
0.1297748 -0.8770378 -0.00880839
0.1545213 -0.857823 -0.05080417
0.1295388 -0.865617 -0.009022108
0.1262566 -0.8545876 -0.02028815
0.1250222 -0.8437534 -0.03300948
0.1457936 -0.8455618 -0.04440396
0.1287898 -0.8541552 -0.009024631
0.1244979 -0.8430449 -0.01987496
0.1363693 -0.8446513 -0.03749012
0.1556186 -0.846446 -0.05035006
0.1333394 -0.8538843 0.001408489
0.1266223 -0.8425798 -0.008443117
0.1230214 -0.8321597 -0.03188464
0.1359104 -0.8333768 -0.04079524
0.1342312 -0.8653573 0.001352408
0.125761 -0.8325141 -0.03563281
0.1198883 -0.8318004 -0.01942728
0.1396035 -0.8651522 0.0114468
0.1313062 -0.8423196 0.001934863
0.1231099 -0.8307977 -0.007310332
0.1389179 -0.8536956 0.01141828
0.1297935 -0.831695 0.005014827
0.1375286 -0.8421825 0.01167939
0.1440335 -0.85347 0.02161804
0.1365075 -0.8306988 0.01178875
0.1444725 -0.842103 0.02112645
0.1481533 -0.8309416 0.02034443
0.1489858 -0.8532311 0.03188559
0.1517752 -0.8429341 0.02956701
0.1463175 -0.8342226 -0.0453346
0.1567726 -0.8350652 -0.04975897
0.1665973 -0.8472542 -0.05350909
0.1676184 -0.8358821 -0.05323918
0.1752791 -0.8363408 -0.05340321
0.1613199 -0.8872158 -0.05856097
0.1596855 -0.8929281 -0.06141997
0.1667558 -0.8933037 -0.06064521
0.1735891 -0.8935437 -0.05751367
0.1798915 -0.8937196 -0.05374767
0.1906501 -0.8934221 -0.0466311
0.1888455 -0.882399 -0.04543903
0.1766895 -0.880706 -0.05298622
0.1942277 -0.8824229 -0.04062974
0.2006704 -0.8941122 -0.03769067
0.1628077 -0.8814177 -0.05607428
0.2059954 -0.8825012 -0.02788772
0.1946179 -0.8710801 -0.04078779
0.1890612 -0.8710142 -0.04583894
0.1647663 -0.869984 -0.05353945
0.1980801 -0.8711008 -0.03724582
0.207429 -0.8940178 -0.02816695
0.1764226 -0.8705938 -0.05208387
0.2056876 -0.8710745 -0.02807185
0.2140732 -0.8929364 -0.01964352
0.1893993 -0.8596395 -0.04628893
0.1950636 -0.8597463 -0.04190749
0.1772773 -0.8592693 -0.05291944
0.1992348 -0.8597915 -0.0380323
0.2139625 -0.8825036 -0.01886157
0.165697 -0.8586182 -0.05348765
0.2265973 -0.9078861 -0.01107599
0.2166846 -0.9055254 -0.01936047
0.2052913 -0.8596411 -0.02821966
0.2123315 -0.8709711 -0.01850095
0.2170888 -0.8824359 -0.01398819
0.1894282 -0.8482399 -0.04661193
0.1954889 -0.8484136 -0.04307686
0.2214711 -0.8938714 -0.009336148
0.2059978 -0.8482956 -0.02882149
0.1774323 -0.847837 -0.05246736
0.2006505 -0.8485028 -0.03892625
0.2282907 -0.893782 0.0001623326
0.2106881 -0.8594379 -0.01813515
0.2172251 -0.8707276 -0.00820957
0.2327581 -0.9052605 -0.001729052
0.1801812 -0.8365859 -0.05257172
0.1911881 -0.8369787 -0.04764751
0.1953735 -0.8371165 -0.0455525
0.2029004 -0.8372807 -0.04016365
0.2085441 -0.8478643 -0.01756329
0.2084117 -0.8370867 -0.03012646
0.2090617 -0.8363758 -0.01560768
0.2141372 -0.8590788 -0.007249117
0.1786126 -0.8251526 -0.05406146
0.1944069 -0.8257895 -0.04841702
0.2043462 -0.8259944 -0.04106998
0.2106679 -0.8474705 -0.006334093
0.2206784 -0.870369 0.002675103
0.2110802 -0.8258982 -0.03153617
0.2116648 -0.82531 -0.01947023
0.2076658 -0.835757 -0.005206164
0.2154013 -0.8579251 0.006266409
0.208878 -0.846621 0.006912363
0.1703335 -0.8638009 0.07263272
0.1772977 -0.8532597 0.06357669
0.1772063 -0.8637159 0.08210914
0.1792792 -0.8547766 0.06868334
0.1738656 -0.8524879 0.05853804
0.183741 -0.8534719 0.06680081
0.1858519 -0.8486134 0.05347043
0.1873086 -0.8629942 0.0915463
0.1833856 -0.8586775 0.07941366
0.1817079 -0.843406 0.04239487
0.1644807 -0.8532009 0.05011854
0.1757413 -0.8732865 0.09530041
0.1904775 -0.8534419 0.06564189
0.1940583 -0.8565263 0.07493685
0.1962625 -0.8509274 0.04922394
0.171045 -0.8473363 0.04724124
0.1916269 -0.8659956 0.1008497
0.1918833 -0.8448228 0.03740314
0.1670055 -0.8418018 0.03857408
0.1981744 -0.8602605 0.08565883
0.1711199 -0.885398 0.09754375
0.1806775 -0.874049 0.1058647
0.2018456 -0.8642066 0.09690443
0.2011227 -0.8547153 0.06046848
0.1773258 -0.8338308 0.02989255
0.2024001 -0.8521719 0.03439337
0.208542 -0.8602801 0.08110121
0.1957469 -0.8696663 0.1115681
0.2059752 -0.856051 0.04448298
0.1878192 -0.8348942 0.02560417
0.1990902 -0.8449009 0.02390735
0.1632151 -0.8311298 0.02618413
0.2137168 -0.8644309 0.09423903
0.1751483 -0.8850852 0.1081918
0.1859651 -0.875181 0.1157679
0.2064339 -0.8672704 0.107079
0.2146032 -0.8608667 0.06606241
0.2086179 -0.8520547 0.01949207
0.2111269 -0.8574907 0.02908771
0.2191163 -0.8628349 0.07705989
0.1999583 -0.8740357 0.1240029
0.2212227 -0.8653226 0.05129727
0.1963299 -0.8330352 0.01304512
0.206346 -0.8461669 0.01283063
0.2166873 -0.8622988 0.0410791
0.2237815 -0.8659173 0.08789745
0.2211004 -0.8709418 0.1134316
0.1799694 -0.884836 0.1185132
0.1872962 -0.8828065 0.1277489
0.2105419 -0.8711464 0.1178081
0.2257331 -0.8674468 0.06295457
0.1870266 -0.8215631 0.01546092
0.2145606 -0.8578427 0.01718992
0.2230681 -0.8687409 0.02720029
0.2273876 -0.8696423 0.09846953
0.2282963 -0.8677978 0.07339514
0.2040094 -0.8766233 0.1329852
0.2140615 -0.874337 0.1296743
0.2351781 -0.8746704 0.05840989
0.2256346 -0.8698593 0.03758154
0.1944669 -0.8228086 0.00942225
0.2049348 -0.8409481 0.008389899
0.2185335 -0.8627906 0.01568033
0.2335154 -0.871056 0.08364748
0.2259736 -0.8740029 0.1254987
0.1737018 -0.8969957 0.1214394
0.1935875 -0.8844953 0.1406254
0.2394091 -0.876453 0.06903096
0.2309207 -0.8733392 0.04781216
0.2028162 -0.82379 -8.90713E-05
0.2037289 -0.8350345 0.004312448
0.2228042 -0.8699041 0.01410637
0.2358253 -0.882063 0.03369575
0.2372615 -0.876497 0.1199201
0.1781384 -0.8967459 0.13192
0.2081683 -0.8796332 0.1436699
0.2188629 -0.8771068 0.1391737
0.237714 -0.880594 0.04519793
0.2402707 -0.8801636 0.05645154
0.2434741 -0.8791904 0.07953964
0.2398222 -0.8793831 0.1305596
0.1671555 -0.9066147 0.1244115
0.1980973 -0.8851642 0.1479897
0.1828182 -0.8969892 0.1423131
0.2294166 -0.876986 0.1348016
0.2425249 -0.8797089 0.06783002
0.205942 -0.8242171 -0.004807337
0.1711954 -0.906303 0.1350548
0.2105678 -0.8836939 0.1551111
0.190217 -0.895153 0.1515242
0.2229853 -0.880737 0.1498902
0.2450717 -0.8857767 0.05461713
0.2408055 -0.8845976 0.04402732
0.2492924 -0.887734 0.06524722
0.253832 -0.8912153 0.07635563
0.2439242 -0.8833607 0.141294
0.2012982 -0.8908516 0.1591437
0.1976852 -0.8951154 0.1607557
0.1858045 -0.9012578 0.1535173
0.2335206 -0.8809268 0.1455343
0.2141409 -0.8847463 0.1591682
0.2273452 -0.8854921 0.1604556
0.2460922 -0.8926663 0.04205896
0.2497402 -0.8923232 0.05286321
0.2395993 -0.8862866 0.1557373
0.2163584 -0.8878213 0.1651508
0.2056822 -0.8954427 0.169217
0.1898925 -0.9055728 0.1646444
0.1957933 -0.9075114 0.174201
0.2415282 -0.8922229 0.1671756
0.2309762 -0.8923177 0.1715462
0.2203717 -0.8959296 0.1754698
0.2089878 -0.9057626 0.1812354
0.2533264 -0.8976578 0.1638875
0.2435499 -0.8971764 0.1730473
0.2325526 -0.8963694 0.176162
0.2253525 -0.9073215 0.1861015
0.2452192 -0.9031951 0.1782705
0.2129977 -0.9131022 0.1918793
0.2356403 -0.9075227 0.1858302
0.256005 -0.9078404 0.175389
0.2464863 -0.9082877 0.1823372
0.2647984 -0.9107271 0.1698092
0.2602991 -0.8998815 0.1549089
0.2580996 -0.8953883 0.148078
0.2627257 -0.8996844 0.1462801
0.2680317 -0.9058447 0.1442516
0.2473669 -0.8880242 0.1505606
0.2171286 -0.9165875 0.2025882
0.2647939 -0.899481 0.133948
0.2538993 -0.8883173 0.1369438
0.2561909 -0.8890294 0.1240467
0.2500962 -0.8840213 0.1264331
0.2600959 -0.893326 0.1225475
0.2667907 -0.9021191 0.1192982
0.2556908 -0.8897454 0.111455
0.2658506 -0.9017913 0.1081332
0.2617229 -0.8975454 0.09734123
0.2459394 -0.8809749 0.1157467
0.2651896 -0.9024214 0.096039
0.2560896 -0.8902913 0.09947526
0.251882 -0.8855438 0.1010876
0.2420966 -0.8776711 0.1054119
0.2566985 -0.8922122 0.08695152
0.2315434 -0.8727041 0.1091569
0.2434043 -0.8785093 0.09208109
0.237652 -0.874442 0.0943515
0.2477561 -0.8819723 0.09037415
0.2522976 -0.8918929 0.06411672
0.2555925 -0.9027616 0.05072526
0.2586279 -0.9039246 0.06125329
0.2512282 -0.9028775 0.04021134
0.2468956 -0.90293 0.02968222
0.2382861 -0.8933118 0.02065986
0.2436016 -0.9048366 0.01877703
0.2425626 -0.8930189 0.03120558
0.2381011 -0.9037967 0.008698359
0.2336622 -0.8935768 0.01025729
0.2318186 -0.8820505 0.02303004
0.2275639 -0.8817977 0.01142638
0.2238967 -0.881388 0.001643361
0.2195681 -0.8814082 -0.008888314
0.2098496 -0.8248581 -0.01277907
0.1573811 -0.9090076 0.06690336
0.1503606 -0.9141666 0.06995018
0.1566041 -0.9088368 0.08235767
0.1638506 -0.8968533 0.0885416
0.1582648 -0.9059426 0.09110175
0.1641014 -0.9016778 0.1008932
0.160252 -0.9073325 0.102641
0.166787 -0.8964532 0.09963907
0.1685208 -0.9002559 0.111349
0.1638124 -0.9069822 0.1134816
0.1707019 -0.8961316 0.1103336
0.1972366 -0.9007356 0.05800695
0.1686682 -0.8296291 -0.01621218
3 0 1 2
3 3 0 2
3 2 4 3
3 5 6 3
3 3 4 5
3 7 6 5
3 8 6 9
3 4 10 5
3 9 6 7
3 11 7 5
3 12 8 9
3 13 5 10
3 10 4 14
3 11 9 7
3 5 15 11
3 9 16 12
3 15 5 13
3 10 17 13
3 17 10 14
3 16 9 11
3 18 11 15
3 19 12 16
3 18 15 13
3 20 13 17
3 14 21 17
3 22 16 11
3 22 11 18
3 19 16 22
3 13 23 18
3 23 13 20
3 20 17 21
3 24 22 18
3 25 19 22
3 24 18 23
3 26 23 20
3 21 27 20
3 28 22 24
3 22 28 25
3 24 23 26
3 26 20 27
3 27 21 29
3 28 24 30
3 31 25 28
3 24 26 32
3 33 26 27
3 24 32 30
3 28 30 31
3 32 26 33
3 34 30 32
3 31 30 35
3 32 33 36
3 37 30 34
3 32 36 34
3 30 37 35
3 38 37 34
3 38 34 36
3 39 35 37
3 39 37 38
3 40 41 42
3 41 43 42
3 42 44 40
3 45 42 43
3 46 44 42
3 42 45 47
3 43 48 45
3 49 44 46
3 46 42 47
3 45 50 47
3 51 45 48
3 46 47 49
3 51 48 52
3 50 53 47
3 50 45 54
3 54 45 51
3 47 55 49
3 54 51 52
3 55 47 53
3 50 56 53
3 56 50 54
3 1 49 55
3 52 57 54
3 53 58 55
3 56 59 53
3 54 60 56
3 55 61 1
3 62 54 57
3 63 55 58
3 53 64 58
3 65 59 56
3 53 59 64
3 66 56 60
3 60 54 62
3 2 1 61
3 61 55 63
3 63 58 67
3 67 58 64
3 68 59 65
3 56 69 65
3 64 59 68
3 69 56 66
3 66 60 70
3 70 60 62
3 2 61 63
3 71 63 67
3 67 64 72
3 65 73 68
3 74 65 69
3 72 64 68
3 74 69 66
3 63 75 2
3 75 63 71
3 71 67 72
3 73 65 76
3 73 77 68
3 76 65 74
3 72 68 77
3 4 2 75
3 78 75 71
3 72 79 71
3 77 80 72
3 75 78 4
3 71 81 78
3 81 71 79
3 79 72 82
3 82 72 80
3 14 4 78
3 14 78 81
3 79 83 81
3 79 82 83
3 81 84 14
3 84 81 83
3 82 85 83
3 21 14 84
3 83 86 84
3 87 83 85
3 84 88 21
3 84 86 89
3 86 83 87
3 29 21 88
3 84 89 88
3 87 89 86
3 29 88 89
3 66 90 74
3 90 66 70
3 70 91 90
3 91 70 92
3 92 93 91
3 94 93 92
3 95 96 97
3 95 97 98
3 99 100 101
3 98 99 102
3 103 100 104
3 95 98 105
3 101 100 103
3 102 99 101
3 98 102 105
3 106 103 104
3 52 95 105
3 107 101 103
3 102 101 108
3 109 105 102
3 106 110 103
3 104 111 106
3 52 105 57
3 108 101 107
3 110 107 103
3 112 102 108
3 105 109 57
3 109 102 112
3 113 110 106
3 106 111 114
3 115 108 107
3 110 116 107
3 108 117 112
3 62 57 109
3 109 112 117
3 113 118 110
3 119 113 106
3 106 114 119
3 115 117 108
3 107 116 115
3 118 116 110
3 109 120 62
3 117 120 109
3 121 114 122
3 123 118 113
3 124 113 119
3 119 114 125
3 117 115 126
3 126 115 116
3 118 127 116
3 70 62 120
3 117 92 120
3 128 114 121
3 118 123 129
3 124 123 113
3 124 119 125
3 125 114 128
3 126 130 117
3 116 127 126
3 131 127 118
3 120 92 70
3 130 92 117
3 128 121 132
3 129 131 118
3 133 129 123
3 133 123 124
3 124 125 134
3 121 135 132
3 126 136 130
3 137 126 127
3 131 138 127
3 92 130 94
3 129 139 131
3 140 129 133
3 134 133 124
3 94 130 136
3 137 136 126
3 127 138 137
3 139 138 131
3 141 139 129
3 129 140 142
3 140 133 143
3 143 133 134
3 144 94 136
3 137 144 136
3 145 137 138
3 138 139 146
3 141 146 139
3 142 141 129
3 142 140 147
3 147 140 143
3 148 143 134
3 145 144 137
3 146 145 138
3 149 146 141
3 141 142 150
3 151 142 147
3 152 147 143
3 152 143 148
3 150 149 141
3 151 147 153
3 153 147 152
3 36 33 154
3 33 155 154
3 156 36 154
3 155 157 154
3 33 158 155
3 38 36 156
3 156 154 157
3 157 155 159
3 155 158 160
3 33 27 158
3 161 38 156
3 157 162 156
3 155 160 159
3 157 159 162
3 163 160 158
3 158 27 164
3 161 156 162
3 165 38 161
3 160 166 159
3 159 167 162
3 160 163 168
3 158 169 163
3 27 29 164
3 158 164 169
3 161 162 167
3 165 39 38
3 165 161 170
3 159 166 167
3 166 160 168
3 168 163 171
3 169 172 163
3 29 172 164
3 172 169 164
3 167 173 161
3 174 39 165
3 165 170 175
3 170 161 176
3 167 166 177
3 168 177 166
3 171 163 178
3 171 179 168
3 163 172 178
3 29 89 172
3 173 167 180
3 161 173 176
3 175 174 165
3 175 170 181
3 170 176 181
3 177 180 167
3 177 168 182
3 178 183 171
3 184 179 171
3 179 182 168
3 172 185 178
3 89 185 172
3 186 173 180
3 176 173 186
3 187 174 175
3 175 181 188
3 176 189 181
3 177 190 180
3 177 182 190
3 184 171 183
3 184 191 179
3 179 192 182
3 185 89 87
3 186 180 193
3 189 176 186
3 187 175 188
3 194 188 181
3 194 181 189
3 190 193 180
3 190 182 195
3 184 183 196
3 191 192 179
3 184 197 191
3 182 192 198
3 193 199 186
3 200 189 186
3 187 188 201
3 202 188 194
3 189 203 194
3 190 204 193
3 195 204 190
3 195 182 198
3 196 183 205
3 196 197 184
3 191 206 192
3 197 153 191
3 192 207 198
3 208 186 199
3 199 193 209
3 203 189 200
3 200 186 208
3 202 201 188
3 202 194 210
3 194 203 211
3 204 209 193
3 204 195 212
3 195 198 213
3 205 214 196
3 196 215 197
3 192 206 216
3 153 206 191
3 215 153 197
3 192 216 207
3 207 213 198
3 199 217 208
3 199 209 217
3 218 203 200
3 202 219 201
3 210 194 211
3 202 210 220
3 211 203 218
3 204 221 209
3 212 195 222
3 204 212 221
3 195 213 222
3 214 223 196
3 196 224 215
3 206 152 216
3 153 152 206
3 151 153 215
3 207 216 225
3 207 226 213
3 209 221 217
3 218 200 227
3 228 219 202
3 210 211 229
3 220 210 229
3 220 228 202
3 230 211 218
3 212 222 231
3 221 212 232
3 222 213 226
3 223 224 196
3 224 151 215
3 152 148 216
3 148 225 216
3 221 233 217
3 234 218 227
3 228 235 219
3 211 230 229
3 220 229 236
3 237 228 220
3 218 238 230
3 231 232 212
3 226 231 222
3 232 239 221
3 224 223 240
3 240 151 224
3 221 239 233
3 238 218 234
3 241 235 228
3 242 229 230
3 242 236 229
3 220 236 243
3 237 220 243
3 244 230 238
3 232 231 245
3 231 226 246
3 239 232 247
3 239 248 233
3 249 238 234
3 230 244 242
3 250 236 242
3 251 243 236
3 252 237 243
3 238 253 244
3 245 231 246
3 247 232 245
3 239 247 248
3 253 238 249
3 244 254 242
3 250 242 254
3 236 250 251
3 251 252 243
3 244 253 255
3 245 246 256
3 247 245 257
3 253 249 258
3 255 254 244
3 250 254 259
3 260 251 250
3 261 252 251
3 253 258 255
3 256 257 245
3 259 254 255
3 260 250 259
3 251 260 262
3 261 251 262
3 255 258 263
3 259 255 264
3 265 260 259
3 266 262 260
3 258 267 263
3 255 263 264
3 259 264 265
3 260 265 266
3 267 268 263
3 263 269 264
3 269 265 264
3 270 266 265
3 268 269 263
3 271 268 267
3 265 269 270
3 272 266 270
3 273 269 268
3 268 271 273
3 267 274 271
3 269 273 270
3 275 273 271
3 274 275 271
3 267 276 274
3 267 277 276
3 278 277 267
3 277 279 280
3 278 279 277
3 281 278 267
3 282 272 270
3 279 283 280
3 283 279 278
3 258 281 267
3 281 284 278
3 284 283 278
3 249 281 258
3 249 284 281
3 284 285 283
3 286 284 249
3 283 287 288
3 286 285 284
3 285 287 283
3 234 286 249
3 289 290 288
3 289 288 287
3 289 285 286
3 285 289 287
3 227 286 234
3 289 291 290
3 286 292 289
3 227 292 286
3 290 291 293
3 289 294 291
3 295 289 292
3 227 296 292
3 295 294 289
3 294 297 291
3 296 295 292
3 298 296 227
3 297 294 295
3 296 299 295
3 300 296 298
3 227 200 298
3 295 301 297
3 295 299 301
3 296 300 299
3 298 208 300
3 208 298 200
3 248 297 301
3 299 233 301
3 233 299 300
3 217 300 208
3 248 247 302
3 233 248 301
3 300 217 233
3 303 304 302
3 257 302 247
3 257 303 302
3 303 256 305
3 257 256 303
3 306 307 308
3 305 309 306
3 256 309 305
3 310 308 307
3 309 307 306
3 309 256 246
3 307 311 310
3 307 309 226
3 246 226 309
3 311 307 312
3 135 310 311
3 226 312 307
3 312 313 311
3 311 132 135
3 207 312 226
3 313 132 311
3 312 225 313
3 207 225 312
3 313 314 132
3 148 313 225
3 314 315 132
3 148 314 313
3 314 134 315
3 132 315 128
3 148 134 314
3 125 315 134
3 125 128 315
3 240 316 151
3 151 316 142
3 150 142 316
3 25 317 318
3 319 318 317
3 317 25 31
3 317 35 319
3 317 31 35
3 319 35 320
3 319 320 321
3 320 35 39
3 322 321 320
3 323 321 322
3 174 320 39
3 320 324 322
3 325 323 322
3 324 320 174
3 325 322 324
3 326 323 325
3 187 324 174
3 324 327 325
3 219 326 325
3 235 326 219
3 327 324 187
3 219 325 327
3 201 327 187
3 219 327 201
3 328 0 1
3 328 1 49
3 328 49 44
3 328 44 40
3 328 40 41
3 328 41 43
3 328 48 43
3 328 48 52
3 328 52 95
3 328 96 95
3 328 96 97
3 328 97 98
3 328 98 99
3 328 99 100
3 328 100 104
3 328 104 111
3 328 111 114
3 328 122 114
3 328 122 121
3 328 121 135
3 328 135 310
3 328 310 308
3 328 308 306
3 328 306 305
3 328 305 303
3 328 303 304
3 328 304 302
3 328 302 248
3 328 248 297
3 328 297 291
3 328 293 291
3 328 293 290
3 328 290 288
3 328 288 283
3 328 283 280
3 328 280 277
3 328 277 276
3 328 276 274
3 328 274 275
3 328 275 273
3 328 273 270
3 328 270 282
3 328 282 272
3 328 272 266
3 328 266 262
3 328 262 261
3 328 261 252
3 328 252 237
3 328 237 228
3 328 228 241
3 328 241 235
3 328 235 326
3 328 326 323
3 328 323 321
3 328 321 319
3 328 319 318
3 328 318 25
3 328 25 19
3 328 19 12
3 328 12 8
3 328 6 8
3 328 3 6
3 328 3 0
3 329 76 73
3 329 74 76
3 329 90 74
3 329 91 90
3 329 93 91
3 329 94 93
3 329 144 94
3 329 145 144
3 329 146 145
3 329 149 146
3 329 150 149
3 329 316 150
3 329 240 316
3 329 223 240
3 329 214 223
3 329 205 214
3 329 183 205
3 329 178 183
3 329 185 178
3 329 87 185
3 329 85 87
3 329 82 85
3 329 80 82
3 329 77 80
3 329 73 77
