ply
format ascii 1.0
element vertex 384
property float x
property float y
property float z
element face 764
property list uchar int vertex_indices
end_header
-0.1814421 -0.7812141 -0.05512555
-0.1862987 -0.7814605 -0.06543236
-0.1876281 -0.7927559 -0.0645739
-0.1943464 -0.7814763 -0.07490457
-0.1819053 -0.7925788 -0.05462385
-0.1775616 -0.7922913 -0.0441058
-0.1958649 -0.8040264 -0.07345899
-0.1776968 -0.8138145 -0.01881506
-0.1766608 -0.8141525 -0.02418501
-0.1810958 -0.8249446 -0.01710446
-0.1786427 -0.825684 -0.02864178
-0.1755533 -0.8026635 -0.02154956
-0.1826129 -0.8130131 -0.008882799
-0.1766584 -0.8145326 -0.0315494
-0.1812153 -0.8016164 -0.007703295
-0.1853109 -0.8011683 -0.003683979
-0.1907907 -0.8121199 -0.0008826795
-0.3153794 -0.8712108 0.03974186
-0.3098787 -0.8715169 0.02515249
-0.3044761 -0.8602658 0.03463815
-0.2983409 -0.8616558 0.01980176
-0.3094476 -0.860071 0.05069247
-0.3031741 -0.8734224 0.009981944
-0.2934237 -0.8494845 0.02968792
-0.3206344 -0.8705283 0.05552373
-0.2985885 -0.8493523 0.04554205
-0.2911917 -0.8633293 0.005155744
-0.288387 -0.85127 0.01436755
-0.3212022 -0.8676382 0.06641562
-0.305689 -0.8539246 0.05991038
-0.2853975 -0.8428463 0.01543995
-0.2868637 -0.8397586 0.03940711
-0.3116516 -0.8588368 0.06251274
-0.2989169 -0.8484537 0.0569578
-0.280744 -0.8517591 0.0002112976
-0.2831405 -0.8380479 0.0254952
-0.3134219 -0.8581455 0.07389349
-0.299554 -0.8488312 0.06955583
-0.271499 -0.8284198 0.02041352
-0.2798562 -0.8411047 -0.0001989636
-0.324247 -0.8686602 0.07907382
-0.2749924 -0.8294811 0.009756569
-0.2718706 -0.8423373 -0.01499104
-0.3211847 -0.8653076 0.0916982
-0.3075535 -0.8537391 0.08532478
-0.2758273 -0.8300372 -0.002398316
-0.3298106 -0.8735543 0.09507888
-0.3126075 -0.8574903 0.08751924
-0.3242292 -0.8683558 0.1049505
-0.3125066 -0.8581662 0.09981998
-0.3031206 -0.8520843 0.09576876
-0.3219287 -0.8667005 0.1137165
-0.2987295 -0.8511429 0.1062493
-0.3091025 -0.8565663 0.1113194
-0.3181654 -0.864727 0.1269893
-0.2943873 -0.8510331 0.1167727
-0.3312016 -0.8767218 0.1327365
-0.3057856 -0.8557019 0.1216186
-0.3279361 -0.8763695 0.1438907
-0.3117979 -0.8621529 0.1366073
-0.300724 -0.8555493 0.1328916
-0.316814 -0.8660159 0.1387891
-0.3119739 -0.8656653 0.1489732
-0.3074737 -0.8623474 0.1471463
-0.3237516 -0.8762278 0.1542632
-0.2949369 -0.8564838 0.1417968
-0.3159501 -0.8745883 0.163313
-0.304635 -0.8645358 0.1583549
-0.292378 -0.8587134 0.1531222
-0.2991319 -0.8658597 0.1669368
-0.2882395 -0.8620691 0.1638245
-0.2816081 -0.8561734 0.1485552
-0.3101613 -0.8760522 0.1732439
-0.283279 -0.8663451 0.1738712
-0.2997857 -0.8762403 0.1813147
-0.2775823 -0.8601834 0.1593614
-0.2950853 -0.8728769 0.1792772
-0.2934499 -0.8764768 0.1839482
-0.2521355 -0.7970411 -0.0002418126
-0.2581529 -0.7973774 -0.01316974
-0.258345 -0.7858279 -0.01084101
-0.2585196 -0.7864096 -0.02231302
-0.2598481 -0.7817578 -0.02265383
-0.2141238 -0.8614194 -0.07600183
-0.2161195 -0.871744 -0.07884233
-0.2052289 -0.8738818 -0.07972341
-0.2018466 -0.8610303 -0.07624002
-0.2460627 -0.8810799 -0.06180945
-0.2437905 -0.8689726 -0.05664571
-0.2526881 -0.8674828 -0.04800962
-0.2127108 -0.84891 -0.07500049
-0.2545082 -0.879452 -0.05065986
-0.2441069 -0.8569501 -0.05254927
-0.2227841 -0.8480422 -0.06965418
-0.2239947 -0.8594266 -0.07038257
-0.2331504 -0.8584985 -0.06281935
-0.2631142 -0.8786799 -0.04322623
-0.2505034 -0.8565788 -0.04537857
-0.2201097 -0.8254462 -0.06736914
-0.2728801 -0.8775997 -0.03568028
-0.2744088 -0.8819827 -0.0385409
-0.2613849 -0.8670689 -0.03978808
-0.2488446 -0.8451648 -0.04356781
-0.2591603 -0.8556177 -0.03661044
-0.2698205 -0.8639691 -0.02909597
-0.2635965 -0.8550896 -0.03142615
-0.2572163 -0.84452 -0.03428428
-0.2800054 -0.8766937 -0.02391529
-0.2766435 -0.8650114 -0.01728756
-0.2670704 -0.8546075 -0.02603826
-0.2869782 -0.8736359 -0.01073117
-0.264711 -0.8431472 -0.02253522
-0.274985 -0.8598764 -0.01425724
-0.2787265 -0.8646461 -0.01257834
-0.2728168 -0.8536581 -0.01418507
-0.2837291 -0.8639467 -0.004723812
-0.2626714 -0.8318637 -0.02003424
-0.2544138 -0.8326958 -0.02953742
-0.2713888 -0.8307513 -0.01118313
-0.2509252 -0.8215443 -0.02513102
-0.2613484 -0.8203166 -0.01880534
-0.243954 -0.8222334 -0.03614672
-0.2467648 -0.8331016 -0.03918833
-0.2678359 -0.8193601 -0.005006005
-0.2428149 -0.8105866 -0.03041448
-0.2498704 -0.8097871 -0.02295505
-0.2606971 -0.8084438 -0.009250567
-0.2417866 -0.8226287 -0.04133986
-0.2590453 -0.8088601 -0.01543849
-0.2378481 -0.8349022 -0.05343378
-0.2499702 -0.796027 -0.025871
-0.2450953 -0.798925 -0.02829262
-0.2396096 -0.7880331 -0.03224174
-0.2403186 -0.7993845 -0.03175767
-0.2500529 -0.7871897 -0.02778911
-0.2316981 -0.8005736 -0.04498578
-0.2321756 -0.789164 -0.04569288
-0.207482 -0.8033469 -0.07115573
-0.1998579 -0.8152164 -0.07122279
-0.20781 -0.8146732 -0.06975128
-0.2069223 -0.7920052 -0.07200021
-0.2096778 -0.8261009 -0.07206662
-0.2184543 -0.8138431 -0.06578441
-0.2185016 -0.8023537 -0.0644586
-0.2062497 -0.7806565 -0.07257166
-0.2165902 -0.7889802 -0.06516026
-0.2227084 -0.8133881 -0.06181344
-0.2252901 -0.8014573 -0.05481386
-0.2146628 -0.7797975 -0.06550563
-0.2259294 -0.8128041 -0.05416151
-0.224943 -0.7901297 -0.05617166
-0.2237876 -0.778749 -0.05557691
-0.2291517 -0.8239606 -0.05917196
-0.2310597 -0.8357515 -0.06216165
-0.2367899 -0.8232929 -0.04852015
-0.2336451 -0.8123288 -0.04453824
-0.2313986 -0.7778286 -0.04640653
-0.2319384 -0.8471138 -0.06208759
-0.2402326 -0.8482491 -0.05330616
-0.1962828 -0.8151052 -0.07165193
-0.1969156 -0.8195624 -0.07232221
-0.188259 -0.8041074 -0.06400321
-0.188289 -0.8155071 -0.06367997
-0.1884082 -0.8268995 -0.06331994
-0.1966011 -0.8269674 -0.07396634
-0.1820996 -0.8039652 -0.05423296
-0.1826783 -0.8153209 -0.0536837
-0.1996484 -0.8382763 -0.07532293
-0.1838027 -0.826633 -0.05290971
-0.1898034 -0.8381898 -0.06243438
-0.1955365 -0.8383662 -0.07238036
-0.2112823 -0.8375114 -0.07374632
-0.179044 -0.8149767 -0.04287358
-0.1772633 -0.8037172 -0.04391764
-0.1817289 -0.8261639 -0.0414569
-0.1855337 -0.8378965 -0.05188585
-0.2008993 -0.8496633 -0.0761484
-0.1836515 -0.8374121 -0.04035434
-0.1913352 -0.8494691 -0.06149266
-0.1872596 -0.8491601 -0.0508642
-0.1959434 -0.8497353 -0.07190184
-0.1754042 -0.8032309 -0.03237676
-0.1751165 -0.7918519 -0.03280613
-0.1805371 -0.8370217 -0.02924173
-0.1853176 -0.843542 -0.03949737
-0.1915291 -0.8608556 -0.06110206
-0.1860353 -0.8486632 -0.03983762
-0.196745 -0.8610732 -0.07126091
-0.1740443 -0.791335 -0.02156566
-0.1813554 -0.8483901 -0.02894656
-0.1878395 -0.8605158 -0.05031456
-0.185965 -0.8545589 -0.03892893
-0.1962241 -0.8725168 -0.07116432
-0.1906068 -0.8723313 -0.06117071
-0.1869123 -0.8719919 -0.05038527
-0.1849884 -0.8599976 -0.03702394
-0.1934014 -0.8841447 -0.07201567
-0.1843123 -0.883602 -0.05114504
-0.1852785 -0.871373 -0.03652902
-0.1846236 -0.8595031 -0.0270257
-0.188161 -0.8839291 -0.06186697
-0.1817972 -0.8893214 -0.05203019
-0.1834489 -0.8830361 -0.03919391
-0.1860752 -0.888341 -0.06261008
-0.1790342 -0.8954417 -0.04265164
-0.1781326 -0.8954985 -0.05337881
-0.2599617 -0.8568851 0.1415564
-0.269435 -0.8568795 0.1485272
-0.2710772 -0.8551731 0.1442079
-0.2565998 -0.8620611 0.1507267
-0.2670145 -0.8598194 0.154977
-0.1737972 -0.9007462 -0.03038257
-0.1695826 -0.9028078 -0.01974709
-0.1798775 -0.8985296 -0.01560203
-0.1833392 -0.8926086 -0.02615385
-0.1757378 -0.9018659 -0.004900786
-0.1881023 -0.8916398 -0.01153782
-0.186094 -0.8986264 -0.0007020514
-0.1849367 -0.8825257 -0.03099801
-0.186334 -0.8821703 -0.02569936
-0.1912385 -0.8812199 -0.01286739
-0.1967102 -0.8922051 0.003243389
-0.1865767 -0.8707488 -0.02591048
-0.1899109 -0.8699003 -0.0132614
-0.1969781 -0.8802562 -0.0007254824
-0.1924012 -0.9002668 0.01427765
-0.1969471 -0.8687276 0.001451302
-0.2038957 -0.8904852 0.01444093
-0.1998385 -0.8798198 0.004474786
-0.1879813 -0.8589645 -0.01317201
-0.2026638 -0.895435 0.01839423
-0.1977698 -0.9010705 0.031374
-0.1942601 -0.8568932 0.001486119
-0.2025821 -0.8677892 0.01322115
-0.2068409 -0.8900266 0.01997581
-0.2039085 -0.8791813 0.01221304
-0.2088594 -0.8951743 0.03327576
-0.1858205 -0.8473024 -0.01321956
-0.2014232 -0.8562966 0.0159862
-0.2073397 -0.8785847 0.01987036
-0.2104587 -0.8893861 0.02826689
-0.1996882 -0.9007306 0.04195447
-0.2014588 -0.8449048 0.01543772
-0.1926864 -0.8461537 0.001222117
-0.2048513 -0.8673816 0.01853464
-0.2047728 -0.8994153 0.04402342
-0.2124906 -0.8889394 0.03460906
-0.2086452 -0.8551251 0.03046827
-0.1918461 -0.8348162 0.0006233453
-0.2100991 -0.8780578 0.02693886
-0.2123 -0.8775528 0.03421952
-0.1847203 -0.8359731 -0.01368427
-0.2081001 -0.844012 0.02517815
-0.2095849 -0.8662706 0.03047899
-0.2144441 -0.8878723 0.04803994
-0.2155198 -0.8767383 0.04633873
-0.200643 -0.8337476 0.01131589
-0.2152336 -0.8411783 0.03516247
-0.2096496 -0.8329706 0.01952947
-0.1914492 -0.8234611 -0.0001443745
-0.2146724 -0.8653916 0.04592163
-0.210704 -0.8946593 0.05867314
-0.1841972 -0.8244223 -0.0105135
-0.2142637 -0.854036 0.04517556
-0.2177965 -0.8318148 0.02923841
-0.2162583 -0.8873681 0.0607735
-0.2191622 -0.8756741 0.06281535
-0.2011272 -0.8224748 0.007949565
-0.2215308 -0.8414334 0.05063792
-0.2261163 -0.8308018 0.03868913
-0.2191032 -0.8548298 0.06089625
-0.2190289 -0.8643188 0.06174966
-0.2171342 -0.8877912 0.07272072
-0.2207756 -0.8749697 0.07462925
-0.2219972 -0.86347 0.07482139
-0.2249717 -0.8518921 0.07571911
-0.2202572 -0.8857782 0.08703338
-0.2225618 -0.875104 0.08727696
-0.2237053 -0.8630552 0.0809145
-0.2204341 -0.8854491 0.09321005
-0.232038 -0.8509938 0.09062329
-0.2260245 -0.8625128 0.0887864
-0.2247175 -0.8733844 0.1008659
-0.2287045 -0.8620387 0.09814273
-0.2263178 -0.8730006 0.1064808
-0.2293275 -0.8723804 0.1150706
-0.2343975 -0.8628834 0.1148712
-0.2321111 -0.8718509 0.1221664
-0.2307153 -0.8615024 0.1030246
-0.2379156 -0.8602914 0.118296
-0.2356747 -0.8712378 0.1299909
-0.2399221 -0.8666874 0.132683
-0.2374794 -0.8537567 0.1056134
-0.2421884 -0.8596786 0.1253057
-0.2492766 -0.8584296 0.1360377
-0.2455948 -0.8687796 0.1468952
-0.2534693 -0.8705539 0.159979
-0.2628838 -0.8677265 0.165938
-0.2003655 -0.7998152 0.005396741
-0.2011963 -0.8111746 0.005586072
-0.2112267 -0.7989993 0.008839518
-0.2116753 -0.8103335 0.009952484
-0.2208493 -0.7983589 0.01029181
-0.1902956 -0.8006831 4.165568E-05
-0.2237101 -0.8072798 0.01269263
-0.2111504 -0.8216037 0.01341692
-0.2382352 -0.7974775 0.007573961
-0.2207908 -0.8207074 0.01980828
-0.2343846 -0.8107401 0.01483704
-0.2483701 -0.8090432 0.008520563
-0.2196326 -0.8252558 0.02350467
-0.2563111 -0.8081597 0.001249839
-0.2305439 -0.821045 0.02616638
-0.2448417 -0.8187789 0.0229259
-0.2631421 -0.8187042 0.006939018
-0.2586137 -0.8195155 0.01483673
-0.2405912 -0.8229682 0.03211822
-0.2554265 -0.8221679 0.02591371
-0.2512807 -0.8253993 0.03660954
-0.2676843 -0.8279473 0.03114549
-0.2472646 -0.8290975 0.04746176
-0.2359645 -0.8291238 0.04455042
-0.2619567 -0.8285585 0.04147382
-0.2771775 -0.8333715 0.03522327
-0.2577879 -0.8304449 0.05176492
-0.2430004 -0.8320543 0.05801105
-0.2325481 -0.8336568 0.05372806
-0.2727959 -0.8325905 0.04571208
-0.2282153 -0.8406351 0.0648516
-0.2535681 -0.8324133 0.06239547
-0.2685046 -0.8333446 0.05628029
-0.2834703 -0.8382707 0.05082662
-0.2642653 -0.8349832 0.06689388
-0.2494092 -0.8354227 0.07307984
-0.2389423 -0.8367772 0.06878404
-0.2946327 -0.8452465 0.05509687
-0.2601918 -0.8378673 0.07994429
-0.2784584 -0.8378772 0.06316444
-0.236844 -0.8397799 0.07446317
-0.2349692 -0.8429478 0.07963153
-0.2901852 -0.8433459 0.06552796
-0.2744586 -0.837965 0.07119476
-0.2457785 -0.8394246 0.08267461
-0.2707423 -0.8395128 0.08202258
-0.2558814 -0.8398767 0.08820456
-0.2858093 -0.8426576 0.07602143
-0.2413525 -0.8458838 0.09467807
-0.2814731 -0.8426497 0.08655012
-0.2665193 -0.8414303 0.09265061
-0.2393039 -0.8497152 0.1003976
-0.2771964 -0.8436539 0.0971313
-0.262354 -0.8443297 0.1033296
-0.2517788 -0.843841 0.09893841
-0.2961643 -0.8474175 0.0814494
-0.2878584 -0.8467134 0.1020107
-0.2779822 -0.8466254 0.1090351
-0.2928664 -0.8466848 0.09137673
-0.2472967 -0.8486539 0.1094048
-0.2709691 -0.8472071 0.1129449
-0.2836486 -0.8477598 0.1122381
-0.2794269 -0.8497002 0.1228674
-0.258456 -0.8481151 0.1135314
-0.2438205 -0.8559751 0.1206226
-0.2688055 -0.848428 0.1184358
-0.2541299 -0.8519413 0.1247805
-0.2901017 -0.8518832 0.1273459
-0.2752294 -0.8520504 0.1335177
-0.2646458 -0.8514204 0.1291193
-0.2858615 -0.8535091 0.1379586
-0.3279402 -0.8736363 0.06965908
-0.3349802 -0.8786731 0.08432518
-0.335769 -0.8784413 0.09767855
-0.3408215 -0.8814568 0.09985231
-0.3352443 -0.8780349 0.1109173
-0.3471944 -0.884216 0.1148897
-0.3427918 -0.883077 0.1253603
-0.3327618 -0.8765553 0.1210303
-0.3383737 -0.8816746 0.135817
-0.333979 -0.8806724 0.1462944
-0.3491427 -0.8854609 0.1403783
-0.3296274 -0.8803982 0.1568093
-0.3253596 -0.8815526 0.1673982
-0.2108386 -0.790269 -0.02809393
-0.2547922 -0.8794942 0.04678872
3 0 1 2
3 1 3 2
3 2 4 0
3 5 0 4
3 2 3 6
3 7 8 9
3 9 8 10
3 7 11 8
3 7 9 12
3 13 10 8
3 11 13 8
3 11 7 14
3 14 7 12
3 15 14 12
3 12 16 15
3 17 18 19
3 19 18 20
3 21 17 19
3 22 20 18
3 19 20 23
3 24 17 21
3 21 19 25
3 20 22 26
3 23 20 27
3 25 19 23
3 24 21 28
3 21 25 29
3 26 27 20
3 23 27 30
3 25 23 31
3 21 32 28
3 32 21 29
3 25 33 29
3 27 26 34
3 23 30 35
3 27 34 30
3 31 23 35
3 36 28 32
3 32 29 37
3 37 29 33
3 30 38 35
3 34 39 30
3 40 28 36
3 36 32 37
3 30 41 38
3 30 39 41
3 42 39 34
3 43 40 36
3 44 36 37
3 39 45 41
3 39 42 45
3 40 43 46
3 36 47 43
3 47 36 44
3 48 46 43
3 49 43 47
3 50 47 44
3 48 43 49
3 49 47 50
3 51 48 49
3 52 49 50
3 51 49 53
3 53 49 52
3 51 53 54
3 53 52 55
3 51 54 56
3 53 57 54
3 53 55 57
3 58 56 54
3 59 54 57
3 60 57 55
3 54 61 58
3 57 60 59
3 61 54 59
3 62 58 61
3 59 60 63
3 62 61 59
3 58 62 64
3 59 63 62
3 60 65 63
3 66 64 62
3 67 62 63
3 67 63 65
3 66 62 67
3 65 68 67
3 66 67 69
3 67 68 70
3 65 71 68
3 69 67 70
3 72 66 69
3 70 68 71
3 73 69 70
3 74 72 69
3 71 75 70
3 69 73 76
3 70 75 73
3 69 76 74
3 73 77 76
3 77 74 76
3 78 79 80
3 81 80 79
3 81 82 80
3 83 84 85
3 83 85 86
3 87 88 89
3 90 83 86
3 89 91 87
3 88 92 89
3 93 94 83
3 83 90 93
3 92 88 95
3 96 91 89
3 97 89 92
3 93 95 94
3 98 93 90
3 99 100 96
3 101 96 89
3 101 89 97
3 97 92 102
3 101 99 96
3 101 97 103
3 103 97 102
3 104 99 101
3 101 103 105
3 103 102 106
3 107 99 104
3 101 105 104
3 105 103 106
3 108 107 104
3 109 104 105
3 110 107 108
3 105 106 111
3 108 104 112
3 104 109 112
3 109 105 111
3 108 113 110
3 113 108 112
3 109 114 112
3 114 109 111
3 115 110 113
3 115 113 112
3 115 112 114
3 111 42 114
3 26 115 34
3 115 114 34
3 114 42 34
3 42 111 116
3 111 117 116
3 42 116 118
3 116 117 119
3 111 106 117
3 45 42 118
3 118 116 120
3 117 121 119
3 116 119 120
3 117 106 122
3 45 118 123
3 118 120 123
3 119 121 124
3 117 122 121
3 125 120 119
3 106 102 122
3 123 120 126
3 121 127 124
3 125 119 124
3 121 122 127
3 128 120 125
3 122 102 129
3 126 120 128
3 130 125 124
3 129 127 122
3 130 128 125
3 126 128 79
3 124 131 130
3 79 128 130
3 78 126 79
3 132 130 131
3 133 131 124
3 79 130 81
3 132 134 130
3 133 132 131
3 133 124 135
3 130 134 81
3 132 133 136
3 136 133 135
3 134 82 81
3 6 137 138
3 137 139 138
3 140 137 6
3 139 141 138
3 137 142 139
3 140 143 137
3 144 140 6
3 141 139 142
3 143 142 137
3 145 143 140
3 140 144 145
3 6 3 144
3 142 98 141
3 146 142 143
3 145 147 143
3 144 148 145
3 98 142 146
3 143 149 146
3 147 149 143
3 150 147 145
3 145 148 151
3 98 146 152
3 149 152 146
3 135 149 147
3 136 147 150
3 150 145 151
3 152 153 98
3 154 152 149
3 155 149 135
3 135 147 136
3 136 150 151
3 129 153 152
3 93 98 153
3 154 129 152
3 154 149 155
3 135 124 155
3 151 156 136
3 129 157 153
3 153 157 93
3 129 154 127
3 127 154 155
3 127 155 124
3 158 157 129
3 157 95 93
3 95 157 158
3 129 102 158
3 92 95 158
3 92 158 102
3 6 138 159
3 138 160 159
3 6 159 161
3 159 160 162
3 141 160 138
3 159 162 161
3 6 161 2
3 160 163 162
3 141 164 160
3 165 161 162
3 165 2 161
3 166 162 163
3 160 164 163
3 167 164 141
3 162 166 165
3 4 2 165
3 163 168 166
3 163 164 169
3 167 170 164
3 141 171 167
3 172 165 166
3 173 4 165
3 174 166 168
3 168 163 175
3 169 164 170
3 175 163 169
3 170 167 176
3 171 141 98
3 176 167 171
3 172 166 174
3 173 165 172
3 5 4 173
3 174 168 177
3 177 168 175
3 169 170 178
3 175 169 179
3 176 180 170
3 90 171 98
3 171 90 176
3 13 172 174
3 181 173 172
3 182 5 173
3 183 174 177
3 175 184 177
3 178 170 180
3 179 169 178
3 175 179 184
3 180 176 86
3 86 176 90
3 172 13 181
3 174 10 13
3 173 181 182
3 177 184 183
3 10 174 183
3 178 180 185
3 179 178 185
3 179 186 184
3 86 187 180
3 181 13 11
3 182 181 188
3 184 189 183
3 185 180 187
3 185 190 179
3 184 186 189
3 186 179 191
3 187 86 192
3 188 181 11
3 185 187 193
3 179 190 191
3 190 185 194
3 189 186 191
3 193 187 192
3 192 86 85
3 194 185 193
3 190 195 191
3 195 190 194
3 189 191 195
3 193 192 196
3 194 193 197
3 194 198 195
3 189 195 199
3 196 200 193
3 197 193 200
3 198 194 197
3 197 200 201
3 197 202 198
3 201 200 203
3 197 201 202
3 201 204 202
3 201 205 204
3 206 207 208
3 207 71 208
3 209 207 206
3 71 207 75
3 210 207 209
3 207 210 75
3 211 212 213
3 214 204 211
3 214 211 213
3 215 213 212
3 202 204 214
3 216 214 213
3 213 215 217
3 218 202 214
3 219 214 216
3 216 213 217
3 219 218 214
3 198 202 218
3 220 219 216
3 216 217 221
3 218 219 222
3 222 198 218
3 223 219 220
3 216 224 220
3 225 221 217
3 216 221 224
3 222 219 223
3 222 195 198
3 223 220 226
3 226 220 224
3 227 221 225
3 228 224 221
3 222 223 229
3 199 195 222
3 229 223 226
3 228 226 224
3 227 225 230
3 228 221 227
3 231 230 225
3 199 222 229
3 229 226 232
3 226 228 233
3 234 227 230
3 227 235 228
3 230 231 236
3 199 229 237
3 232 226 238
3 237 229 232
3 233 228 235
3 238 226 233
3 227 234 239
3 240 234 230
3 239 235 227
3 236 231 241
3 240 230 236
3 189 199 237
3 232 238 242
3 237 232 243
3 239 233 235
3 233 244 238
3 239 234 240
3 236 241 245
3 246 240 236
3 237 183 189
3 232 242 243
3 242 238 247
3 237 243 248
3 244 233 239
3 238 244 247
3 240 249 239
3 245 246 236
3 240 246 250
3 251 183 237
3 248 243 242
3 247 252 242
3 248 251 237
3 244 239 253
3 247 244 253
3 250 249 240
3 253 239 249
3 254 246 245
3 255 250 246
3 183 251 9
3 242 256 248
3 257 252 247
3 258 242 252
3 251 248 259
3 247 253 260
3 249 250 253
3 255 246 254
3 254 245 261
3 260 250 255
3 9 10 183
3 9 251 262
3 259 248 256
3 256 242 258
3 257 247 263
3 264 252 257
3 264 258 252
3 259 262 251
3 253 250 260
3 260 263 247
3 255 254 265
3 265 254 261
3 266 260 255
3 12 9 262
3 256 267 259
3 267 256 258
3 268 257 263
3 269 264 257
3 262 259 16
3 263 260 270
3 255 265 266
3 271 260 266
3 16 12 262
3 16 259 267
3 269 257 268
3 268 263 270
3 260 271 270
3 266 265 272
3 273 271 266
3 270 271 274
3 273 266 272
3 274 271 273
3 270 274 275
3 273 272 276
3 274 273 277
3 275 274 278
3 273 276 277
3 277 278 274
3 277 276 279
3 280 275 278
3 281 278 277
3 277 279 282
3 280 278 281
3 281 277 282
3 283 282 284
3 280 281 283
3 281 282 283
3 283 284 285
3 283 285 286
3 286 285 287
3 286 288 283
3 289 286 287
3 287 290 291
3 283 288 292
3 292 288 286
3 292 286 289
3 293 289 287
3 293 287 291
3 294 291 295
3 294 293 291
3 295 296 209
3 295 206 294
3 210 209 296
3 209 206 295
3 210 296 297
3 297 75 210
3 298 299 300
3 301 302 300
3 300 299 301
3 299 298 303
3 301 304 302
3 305 301 299
3 303 16 299
3 306 302 304
3 307 304 301
3 299 267 305
3 301 305 307
3 267 299 16
3 15 16 303
3 308 306 304
3 78 306 309
3 307 308 304
3 258 305 267
3 307 305 310
3 306 308 309
3 78 309 311
3 307 312 308
3 305 258 310
3 310 312 307
3 309 308 313
3 311 126 78
3 314 311 309
3 312 313 308
3 310 258 264
3 312 310 264
3 313 315 309
3 123 126 311
3 123 311 314
3 314 309 315
3 316 313 312
3 312 264 269
3 317 315 313
3 45 123 314
3 314 315 38
3 313 316 318
3 269 316 312
3 315 317 319
3 317 313 318
3 45 314 41
3 319 38 315
3 41 314 38
3 320 318 316
3 321 316 269
3 322 319 317
3 317 318 322
3 38 319 323
3 322 318 320
3 316 321 320
3 268 321 269
3 322 323 319
3 323 35 38
3 324 322 320
3 325 320 321
3 326 321 268
3 327 323 322
3 31 35 323
3 324 320 325
3 327 322 324
3 321 326 325
3 326 268 328
3 327 31 323
3 324 325 329
3 327 324 330
3 328 325 326
3 328 268 270
3 331 31 327
3 324 329 332
3 333 329 325
3 332 330 324
3 331 327 330
3 334 325 328
3 328 270 275
3 31 331 335
3 336 332 329
3 329 333 336
3 325 334 333
3 337 330 332
3 331 330 337
3 328 338 334
3 328 275 339
3 25 31 335
3 335 331 340
3 336 341 332
3 342 336 333
3 333 334 338
3 337 332 341
3 331 337 340
3 338 328 339
3 339 275 280
3 33 25 335
3 340 33 335
3 343 341 336
3 344 336 342
3 338 342 333
3 337 341 345
3 340 337 345
3 339 342 338
3 339 280 346
3 37 33 340
3 341 343 347
3 343 336 348
3 336 344 348
3 346 344 342
3 347 345 341
3 345 37 340
3 342 339 346
3 346 280 349
3 350 347 343
3 343 348 350
3 351 348 344
3 352 344 346
3 353 345 347
3 353 37 345
3 349 280 283
3 352 346 349
3 347 350 354
3 355 350 348
3 348 351 355
3 344 352 351
3 353 347 356
3 37 353 44
3 349 283 292
3 352 349 357
3 354 350 355
3 354 356 347
3 351 358 355
3 351 352 357
3 353 356 50
3 44 353 50
3 357 349 292
3 359 354 355
3 354 50 356
3 355 358 360
3 361 358 351
3 361 351 357
3 357 292 362
3 354 359 55
3 359 355 360
3 52 50 354
3 358 363 360
3 363 358 361
3 361 357 364
3 357 362 364
3 292 289 362
3 52 354 55
3 365 55 359
3 359 360 365
3 366 360 363
3 367 363 361
3 361 364 367
3 364 362 293
3 362 289 293
3 55 365 60
3 368 365 360
3 360 366 368
3 363 367 366
3 294 367 364
3 364 293 294
3 60 365 65
3 365 368 65
3 368 366 208
3 208 366 367
3 206 367 294
3 71 65 368
3 368 208 71
3 367 206 208
3 24 28 369
3 40 369 28
3 370 369 40
3 46 370 40
3 370 371 372
3 371 370 46
3 373 372 371
3 48 371 46
3 373 371 48
3 374 373 375
3 373 48 51
3 373 376 375
3 377 375 376
3 373 51 376
3 378 379 377
3 376 56 377
3 56 376 51
3 378 377 56
3 56 58 378
3 380 378 64
3 64 378 58
3 66 380 64
3 381 380 66
3 382 0 1
3 382 1 3
3 382 3 144
3 382 144 148
3 382 148 151
3 382 151 156
3 382 136 156
3 382 136 132
3 382 132 134
3 382 134 82
3 382 82 80
3 382 80 78
3 382 78 306
3 382 306 302
3 382 302 300
3 382 300 298
3 382 298 303
3 382 303 15
3 382 15 14
3 382 14 11
3 382 188 11
3 382 188 182
3 382 182 5
3 382 5 0
3 383 17 18
3 383 18 22
3 383 22 26
3 383 26 115
3 383 115 110
3 383 110 107
3 383 107 99
3 383 99 100
3 383 100 96
3 383 96 91
3 383 91 87
3 383 88 87
3 383 88 95
3 383 95 94
3 383 94 83
3 383 84 83
3 383 84 85
3 383 85 192
3 383 192 196
3 383 196 200
3 383 200 203
3 383 203 201
3 383 201 205
3 383 205 204
3 383 204 211
3 383 211 212
3 383 212 215
3 383 217 215
3 383 217 225
3 383 225 231
3 383 231 241
3 383 241 245
3 383 245 261
3 383 261 265
3 383 265 272
3 383 272 276
3 383 276 279
3 383 279 282
3 383 282 284
3 383 284 285
3 383 285 287
3 383 287 290
3 383 290 291
3 383 291 295
3 383 295 296
3 383 296 297
3 383 297 75
3 383 75 73
3 383 73 77
3 383 77 74
3 383 74 72
3 383 72 66
3 383 66 381
3 383 381 380
3 383 380 378
3 383 378 379
3 383 377 379
3 383 377 375
3 383 375 374
3 383 373 374
3 383 373 372
3 383 372 370
3 383 370 369
3 383 369 24
3 383 24 17
