ply
format ascii 1.0
element vertex 441
property float x
property float y
property float z
element face 878
property list uchar int vertex_indices
end_header
-0.4589152 0.6082634 0.003254256
-0.4713833 0.6089499 0.00231592
-0.4609119 0.6105576 -0.002040635
-0.4674358 0.5951281 0.01297732
-0.4570484 0.6025223 0.008903167
-0.4814506 0.5985369 0.01037298
-0.45604 0.5971481 0.01239617
-0.4824596 0.6028209 0.007090234
-0.4941545 0.5997864 0.01262302
-0.4789164 0.6089165 -0.006866781
-0.4974758 0.6098691 -0.0007684837
-0.4922229 0.5880539 0.0162266
-0.4864611 0.6085095 -0.003732546
-0.5075393 0.6087559 0.004986335
-0.5033939 0.5888494 0.01892115
-0.5007649 0.610151 -0.01050753
-0.5095692 0.611052 -0.0003893971
-0.5040809 0.5986645 0.0153456
-0.5042402 0.5774889 0.01907326
-0.5181558 0.6075628 0.009413746
-0.5158731 0.6008633 0.01625885
-0.5146227 0.5910735 0.02119785
-0.514093 0.6112058 -0.00590796
-0.5212003 0.5787124 0.02378591
-0.5273713 0.6016373 0.01816313
-0.522331 0.6102926 -0.001256142
-0.5257669 0.5896307 0.02537749
-0.5288322 0.6053538 0.01389345
-0.5328851 0.6101663 0.003116205
-0.6616367 0.6147029 0.01931843
-0.6657816 0.6179458 0.008621961
-0.6510729 0.6149946 0.01493765
-0.6553163 0.6165667 0.004327274
-0.6404915 0.615589 0.01054103
-0.6975821 0.6152041 0.02186075
-0.7017474 0.6181022 0.01118228
-0.6869349 0.6169164 0.01740668
-0.6959909 0.6119683 0.0263535
-0.6911946 0.6182076 0.006811012
-0.6938291 0.6052874 0.03290169
-0.6818856 0.6107195 0.02780932
-0.6763259 0.6179809 0.0129859
-0.6920778 0.6009214 0.03800309
-0.6722771 0.6130971 0.02376705
-0.6792646 0.6002854 0.03936694
-0.6706626 0.6105741 0.02817826
-0.6899738 0.5971104 0.04385286
-0.6682888 0.6071872 0.03460113
-0.6750026 0.5883414 0.04937321
-0.6628691 0.5991023 0.04461585
-0.6569092 0.6096193 0.02907661
-0.6534631 0.6000713 0.04201066
-0.6637295 0.5884215 0.04931951
-0.6525772 0.5876248 0.04658026
-0.6429766 0.6052086 0.03650089
-0.6464322 0.6098303 0.02721079
-0.6417164 0.5868089 0.04313605
-0.6411619 0.5981501 0.04227929
-0.6363505 0.6122743 0.02124133
-0.6329077 0.6075236 0.03052512
-0.6296 0.5859075 0.04261182
-0.6289504 0.5974232 0.04209809
-0.6257893 0.6125271 0.01686243
-0.6299009 0.6163377 0.006136677
-0.6187121 0.5967501 0.03912253
-0.6223347 0.6067472 0.02637488
-0.6152244 0.6128379 0.01248067
-0.6182199 0.585294 0.04053603
-0.6073185 0.5965723 0.03484054
-0.6088004 0.6064354 0.02202856
-0.6194142 0.6153215 0.001823262
-0.6046935 0.6125785 0.008128184
-0.6090135 0.6128432 -0.002414613
-0.6071464 0.5844921 0.03760568
-0.5963704 0.597369 0.03129592
-0.6003453 0.6065047 0.01986798
-0.5900722 0.6081398 0.01452062
-0.5959028 0.5837014 0.03508687
-0.5838187 0.6048898 0.02361689
-0.594229 0.6111813 0.003834553
-0.584687 0.5829089 0.0325006
-0.5835471 0.5942887 0.03305757
-0.5794953 0.6086534 0.0101283
-0.5838612 0.6081399 -0.0003744715
-0.5749304 0.6052246 0.02188037
-0.571686 0.593614 0.03201542
-0.5647324 0.6066235 0.01639645
-0.5613906 0.6023962 0.02533336
-0.5540891 0.6082734 0.01194546
-0.5690482 0.6069635 0.005849638
-0.5517584 0.6035806 0.02375714
-0.5434538 0.6097875 0.007501598
-0.5391429 0.6031284 0.01926418
-0.5364897 0.5912632 0.02801304
-0.5468129 0.5921146 0.03275519
-0.6865425 0.5885593 0.05384733
-0.6448707 0.6148471 5.027351E-05
-0.6492056 0.6081415 -0.01060262
-0.6701986 0.6165622 -0.001835681
-0.6806463 0.6182394 0.002443524
-0.6852695 0.6096118 -0.007107488
-0.6859593 0.595978 -0.006133664
-0.6743624 0.608799 -0.01043892
-0.5372689 0.6093459 -0.007370606
-0.5267841 0.6082973 -0.01168235
-0.6964333 0.5970651 -0.001802986
-0.695455 0.6104722 -0.002032223
-0.7030361 0.6110011 -0.0004145861
-0.6748282 0.5974635 -0.009367698
-0.6618546 0.6080916 -0.009904402
-0.6631684 0.5967003 -0.01088177
-0.6511582 0.5959601 -0.01154908
-0.6413759 0.5953264 -0.01269137
-0.6371459 0.6066566 -0.009576321
-0.6265842 0.5945162 -0.0115466
-0.6221129 0.606643 -0.009770261
-0.6157631 0.5929242 -0.0111112
-0.6126133 0.6052099 -0.009673404
-0.5625074 0.601351 -0.007153747
-0.5585405 0.606301 0.001518099
-0.5478671 0.608467 -0.002959532
-0.5515301 0.6012784 -0.01337804
-0.5423564 0.6014127 -0.01818422
-0.5312409 0.5998535 -0.02207229
-0.5921302 0.6040326 -0.009163328
-0.588828 0.5973999 -0.01034936
-0.5873237 0.6038132 -0.007942207
-0.5808289 0.5914349 -0.01326605
-0.6017557 0.5930892 -0.01092897
-0.573887 0.6030886 -0.004365656
-0.6002861 0.6044907 -0.009575005
-0.5986836 0.6091579 -0.006590312
-0.4747286 0.5229968 -0.01858095
-0.4760678 0.5280007 -0.0228055
-0.4897737 0.5309394 -0.02418741
-0.478535 0.5394773 -0.02933504
-0.463217 0.526943 -0.02365717
-0.7099507 0.5529938 -0.0260671
-0.7101926 0.5416732 -0.02445482
-0.697945 0.5536625 -0.02701899
-0.6806239 0.5540158 -0.02046228
-0.667906 0.5511931 -0.01308413
-0.6682854 0.5626817 -0.01214842
-0.7036282 0.5760196 -0.0151867
-0.6942856 0.5637992 -0.02010158
-0.6922771 0.5750257 -0.01610333
-0.68744 0.5635105 -0.01789959
-0.7081149 0.5633498 -0.02121374
-0.7020742 0.5806282 -0.0123083
-0.6920488 0.5518423 -0.02799741
-0.6785753 0.5746073 -0.01402689
-0.6888991 0.5867633 -0.01148234
-0.6801922 0.5631963 -0.01573593
-0.6858476 0.551519 -0.02720132
-0.6679522 0.5740407 -0.01291001
-0.6765453 0.5879433 -0.01168797
-0.6711323 0.5856445 -0.01293
-0.6650976 0.5852685 -0.01334543
-0.6534883 0.5618927 -0.01058821
-0.6527025 0.5845537 -0.01308333
-0.6534806 0.5731977 -0.01276621
-0.6421595 0.5618721 -0.01160327
-0.6406643 0.5832935 -0.01293443
-0.6404324 0.5723991 -0.01338277
-0.629278 0.5717294 -0.01366094
-0.6291386 0.560434 -0.01112769
-0.6281025 0.5831115 -0.01301771
-0.6173304 0.5709851 -0.01447902
-0.6160523 0.582374 -0.01358803
-0.6176198 0.5596615 -0.01298134
-0.6100776 0.5820296 -0.01345777
-0.6059263 0.570205 -0.01661049
-0.6049736 0.5758982 -0.01540334
-0.6065136 0.5588618 -0.01583271
-0.6038464 0.5816467 -0.01378251
-0.5954746 0.5694652 -0.01904402
-0.6002805 0.5584811 -0.01683481
-0.5923615 0.5808719 -0.01571909
-0.5897521 0.5923485 -0.0116122
-0.5836406 0.5573058 -0.01993969
-0.5835748 0.5686147 -0.02197711
-0.5833654 0.5460193 -0.01707793
-0.5815029 0.5800559 -0.01916827
-0.57334 0.5451483 -0.02254009
-0.5723887 0.5678201 -0.02463528
-0.5704111 0.5792552 -0.0220546
-0.5727692 0.5564906 -0.0233579
-0.5678786 0.5892916 -0.01785447
-0.5620421 0.5556659 -0.02712421
-0.5612501 0.5670226 -0.02740726
-0.5593283 0.5784539 -0.02496174
-0.5629234 0.5443032 -0.02705661
-0.5478154 0.5833688 -0.02689124
-0.5513574 0.5435337 -0.02879709
-0.5500056 0.566232 -0.02992473
-0.5568711 0.5899205 -0.02122196
-0.5485896 0.5776299 -0.02870081
-0.55098 0.5548633 -0.03008188
-0.5461473 0.5890956 -0.02499742
-0.5366007 0.5774369 -0.03152905
-0.5388168 0.5417303 -0.02972917
-0.5394554 0.5540911 -0.03192246
-0.538939 0.5654296 -0.03287145
-0.5354391 0.5882697 -0.02880961
-0.5282916 0.5440336 -0.03283514
-0.5279695 0.5646209 -0.03605286
-0.5263051 0.5757095 -0.03465968
-0.5244099 0.5874648 -0.03184691
-0.5288941 0.5532555 -0.03609011
-0.5181034 0.5446336 -0.03818746
-0.5227549 0.564276 -0.03679778
-0.5126185 0.5867102 -0.03304322
-0.5208482 0.5981145 -0.02526654
-0.5201116 0.5523027 -0.0445547
-0.5165784 0.5412307 -0.03382299
-0.5150526 0.5752451 -0.03672628
-0.5120215 0.5520155 -0.04090661
-0.5167097 0.5631342 -0.03839774
-0.5109927 0.5918592 -0.03009513
-0.5029387 0.5745118 -0.03714287
-0.516282 0.6075392 -0.01600906
-0.5049749 0.5517685 -0.03766863
-0.5085245 0.5982847 -0.02534961
-0.5009384 0.5859119 -0.03406583
-0.5042801 0.5631187 -0.03818703
-0.5036402 0.5413154 -0.03149849
-0.4973077 0.5974922 -0.02793333
-0.4914032 0.5734167 -0.03760857
-0.5059139 0.6045036 -0.02021828
-0.4925583 0.5532749 -0.03636307
-0.5147567 0.5301545 -0.02681252
-0.4890197 0.5852021 -0.03539551
-0.4907681 0.562326 -0.03816205
-0.5016815 0.529376 -0.02531998
-0.4898944 0.5399259 -0.02872263
-0.4955121 0.6020446 -0.02445715
-0.4844922 0.5973295 -0.02919362
-0.476833 0.5844736 -0.03563645
-0.4800668 0.5616511 -0.03905578
-0.4797805 0.5503654 -0.03616749
-0.4790325 0.5730239 -0.0387532
-0.4908139 0.6082154 -0.01424641
-0.4744588 0.5940444 -0.0317305
-0.4668462 0.5722954 -0.03899535
-0.4680143 0.5609137 -0.03962068
-0.4672687 0.5442523 -0.03457266
-0.4803772 0.6063456 -0.01851566
-0.4699187 0.6048499 -0.02280433
-0.4678195 0.5496221 -0.03695347
-0.4663702 0.5384128 -0.03125585
-0.4766787 0.6089323 -0.01003621
-0.4678338 0.6076759 -0.01829053
-0.4652856 0.6099125 -0.01253661
-0.6064942 0.5469058 -0.01408033
-0.6178329 0.5483428 -0.01130014
-0.5948138 0.5467964 -0.01505363
-0.6174408 0.5432141 -0.009351211
-0.6051579 0.5363417 -0.008164674
-0.6292305 0.5491233 -0.009153174
-0.593922 0.5355505 -0.01070293
-0.5822945 0.5335613 -0.01205673
-0.6413124 0.5498587 -0.008658962
-0.5718302 0.5327817 -0.01647052
-0.561281 0.5321617 -0.02070902
-0.5525743 0.533049 -0.02304623
-0.5376454 0.531601 -0.02315702
-0.5359397 0.5262699 -0.01797911
-0.5254885 0.5296974 -0.02324207
-0.5107961 0.5214207 -0.01593144
-0.5213559 0.5211914 -0.01155376
-0.5800701 0.5376676 0.02252482
-0.5840005 0.531986 0.01408411
-0.5937107 0.5363641 0.01963057
-0.5885586 0.5282019 0.003750103
-0.5735687 0.530035 0.009818935
-0.5896006 0.5423791 0.02844285
-0.5989056 0.5315967 0.00794089
-0.5780827 0.5269988 -0.0005535479
-0.6020244 0.5383 0.02137309
-0.5993781 0.5479406 0.03359564
-0.6064997 0.5377847 0.01827421
-0.6150828 0.5414657 0.02669231
-0.6092104 0.5357112 0.01209432
-0.6088769 0.5508171 0.0359402
-0.6212758 0.5384783 0.01749088
-0.60322 0.5319595 -0.002607095
-0.6230291 0.5510632 0.03550776
-0.6253764 0.5457683 0.03083626
-0.6136238 0.534386 0.001633555
-0.6192632 0.5648938 0.03989153
-0.6305541 0.5396719 0.01944663
-0.6240803 0.5359147 0.005920426
-0.6365775 0.5515728 0.03600479
-0.6345939 0.5364731 0.01025746
-0.6317762 0.5633231 0.04186114
-0.6404585 0.5423648 0.02484846
-0.6425807 0.5400019 0.02015404
-0.6435252 0.5640805 0.04315975
-0.650874 0.5445932 0.02909932
-0.6451069 0.5370455 0.01459365
-0.6462895 0.5534467 0.03851275
-0.6537845 0.5407952 0.02276939
-0.6556072 0.5628192 0.04404142
-0.6583977 0.5533274 0.0391092
-0.6555994 0.5379636 0.01891223
-0.6612676 0.5471989 0.03333071
-0.6654909 0.5405138 0.02437325
-0.670092 0.5540884 0.04053892
-0.6716212 0.550477 0.03752721
-0.6763161 0.5420197 0.02776892
-0.6864426 0.5431878 0.0314404
-0.692651 0.5515499 0.04620365
-0.6976268 0.5443783 0.03551367
-0.6906638 0.5557959 0.05020479
-0.6821076 0.551498 0.04184038
-0.6806513 0.5549241 0.04471134
-0.6777468 0.566902 0.05185008
-0.6665603 0.5655087 0.04739803
-0.6871337 0.565964 0.05680215
-0.4915129 0.5225391 0.0007032842
-0.5020066 0.5234336 0.005022876
-0.4862263 0.5295481 0.01217963
-0.4810137 0.5217318 -0.003620787
-0.4759555 0.5291693 0.007217953
-0.4705621 0.5201163 -0.007903385
-0.4711535 0.5396233 0.01684819
-0.4659882 0.5241696 0.002416743
-0.4607513 0.5290958 0.01216565
-0.5692037 0.5353782 0.02224031
-0.565901 0.5465465 0.03129989
-0.5631551 0.5277725 0.005569946
-0.5752815 0.5480832 0.03213034
-0.555649 0.5348371 0.02733963
-0.558727 0.5293463 0.01601788
-0.5676014 0.5258903 -0.004862204
-0.5872508 0.5488262 0.03289674
-0.5743482 0.5574256 0.03404237
-0.5514756 0.5465888 0.03027744
-0.5483123 0.527106 0.01176773
-0.5617939 0.5587451 0.03283548
-0.5501536 0.5579806 0.0312744
-0.5433375 0.533659 0.02257558
-0.5528169 0.5242327 0.00138672
-0.5851964 0.5602662 0.03566279
-0.5724944 0.5707842 0.03268879
-0.5385816 0.5572115 0.02954894
-0.5397782 0.545828 0.02885493
-0.5969619 0.5610225 0.0369217
-0.5849195 0.5715889 0.03413545
-0.5611407 0.5700926 0.03221719
-0.5494471 0.5693316 0.03078463
-0.5329314 0.5331743 0.01796305
-0.5718855 0.582129 0.03196406
-0.5376246 0.5685791 0.02966429
-0.5277731 0.5563922 0.02597864
-0.5269149 0.5449711 0.02689747
-0.608566 0.5617894 0.03856919
-0.5961533 0.5723802 0.03667825
-0.5598885 0.5814798 0.03304515
-0.5484995 0.5806987 0.03087719
-0.5315695 0.5681562 0.02836511
-0.5373555 0.5799015 0.02811813
-0.5266476 0.5677208 0.02651067
-0.5203943 0.5327374 0.0185165
-0.55919 0.5928306 0.03253656
-0.5187491 0.5557579 0.02396303
-0.5228514 0.527654 0.01353681
-0.5174083 0.5427198 0.02382833
-0.6076505 0.5731542 0.03858487
-0.5262652 0.5791007 0.02522859
-0.5160546 0.5669373 0.02240999
-0.5274655 0.5229148 0.003252305
-0.5124836 0.5246157 0.00932773
-0.5080891 0.5333179 0.01830871
-0.6210817 0.5740718 0.04107147
-0.5054141 0.5548024 0.02063058
-0.5377858 0.5267674 0.007419347
-0.5170488 0.520708 -0.0009996782
-0.5054494 0.5434954 0.0227418
-0.5047544 0.5661503 0.02002778
-0.5318663 0.5218099 -0.007219848
-0.4969793 0.5312212 0.01500097
-0.6304255 0.5747166 0.04292766
-0.4933142 0.5653726 0.01798347
-0.4939437 0.5540267 0.01865937
-0.5423441 0.5229769 -0.002914209
-0.493713 0.5427371 0.02141287
-0.6423636 0.5754615 0.04376917
-0.4920731 0.576759 0.01878498
-0.482527 0.5532474 0.01655854
-0.480652 0.5419023 0.02010839
-0.4818717 0.564595 0.01594512
-0.4778134 0.5758647 0.01769109
-0.480366 0.5873036 0.0151891
-0.4688424 0.5647727 0.01457765
-0.4702132 0.5524725 0.01556526
-0.4583548 0.5517771 0.01559068
-0.4693091 0.5866436 0.01499084
-0.4685498 0.575246 0.01624982
-0.4576477 0.5631281 0.01510198
-0.4587834 0.5404441 0.01675166
-0.456316 0.5745205 0.01612275
-0.455802 0.5858591 0.01516784
-0.6753653 0.5778816 0.05308791
-0.664068 0.5770944 0.05069809
-0.653065 0.5762879 0.04759849
-0.685551 0.578742 0.05816275
-0.4853753 0.5212901 -0.01412703
-0.4959861 0.5201982 -0.00970497
-0.5001109 0.5237823 -0.02041904
-0.5065464 0.5199556 -0.005326582
-0.5465721 0.5248096 -0.01353804
-0.5571143 0.5248817 -0.009175909
-0.5927534 0.5305972 -0.006902529
-0.6159279 0.5371636 -0.004501365
-0.6275237 0.5393274 -0.003104825
-0.6386476 0.5387029 -0.000541956
-0.6549874 0.5394953 -0.00379274
-0.6524713 0.5474992 -0.007779914
-0.6786447 0.5400028 -0.02089928
-0.6686143 0.5398955 -0.01155504
-0.6858193 0.5402161 -0.02493627
-0.6738264 0.530091 0.006155525
-0.6917945 0.5342166 0.02167375
-0.6936845 0.5314561 0.01762053
-0.7022597 0.5356022 0.02596798
-0.6812922 0.5334663 0.01734661
-0.6838018 0.5305758 0.01181374
-0.6859089 0.5286817 0.007064446
-0.6965172 0.5276291 0.01148461
-0.7009889 0.5253158 0.001074809
-0.6907977 0.5296867 -0.0167081
-0.696339 0.5397871 -0.02644375
-0.705352 0.5248467 -0.009430129
-0.7087176 0.5322673 -0.01904529
-0.7063273 0.6139437 0.0008677084
-0.7067218 0.607231 0.001214064
-0.6598526 0.6131512 -0.006025533
-0.6344315 0.6130216 -0.004221483
-0.4644048 0.5676665 -0.009862821
-0.6983667 0.572906 0.01398972
3 0 1 2
3 1 0 3
3 0 4 3
3 3 5 1
3 6 3 4
3 1 5 7
3 5 8 7
3 9 1 7
3 8 10 7
3 11 8 5
3 12 9 7
3 7 10 12
3 13 10 8
3 11 14 8
3 10 15 12
3 13 16 10
3 17 13 8
3 14 17 8
3 18 14 11
3 10 16 15
3 16 13 19
3 17 20 13
3 14 21 17
3 14 18 21
3 13 20 19
3 22 16 19
3 21 20 17
3 21 18 23
3 20 24 19
3 25 22 19
3 20 21 26
3 23 26 21
3 26 24 20
3 19 24 27
3 19 28 25
3 27 28 19
3 29 30 31
3 31 30 32
3 31 32 33
3 34 35 36
3 36 37 34
3 36 35 38
3 39 37 40
3 40 37 36
3 36 38 41
3 42 39 40
3 36 43 40
3 36 41 43
3 42 40 44
3 45 40 43
3 43 41 29
3 46 42 44
3 40 47 44
3 40 45 47
3 29 45 43
3 48 46 44
3 49 44 47
3 47 45 50
3 50 45 29
3 44 49 48
3 47 51 49
3 47 50 51
3 29 31 50
3 52 48 49
3 53 49 51
3 50 54 51
3 31 55 50
3 53 52 49
3 51 56 53
3 57 51 54
3 50 55 54
3 55 31 58
3 57 56 51
3 59 57 54
3 54 55 59
3 59 55 58
3 58 31 33
3 57 60 56
3 61 57 59
3 62 59 58
3 58 33 63
3 61 60 57
3 61 59 64
3 65 59 62
3 63 62 58
3 64 60 61
3 59 65 64
3 66 65 62
3 62 63 66
3 64 67 60
3 64 65 68
3 69 65 66
3 66 63 70
3 67 64 68
3 68 65 69
3 66 71 69
3 66 70 72
3 68 73 67
3 69 74 68
3 71 75 69
3 72 71 66
3 73 68 74
3 69 75 74
3 75 71 76
3 74 77 73
3 74 75 78
3 78 75 76
3 76 71 79
3 74 80 77
3 81 74 78
3 76 82 78
3 76 79 83
3 81 80 74
3 81 78 84
3 83 82 76
3 82 84 78
3 80 81 85
3 81 84 85
3 84 82 86
3 85 84 87
3 87 84 86
3 87 86 88
3 86 89 88
3 87 88 90
3 90 88 91
3 91 92 90
3 92 91 27
3 92 93 90
3 27 91 28
3 24 92 27
3 90 93 94
3 93 92 24
3 48 95 46
3 33 96 63
3 97 96 32
3 98 30 41
3 41 38 99
3 100 101 102
3 98 100 102
3 99 100 98
3 25 103 104
3 28 103 25
3 103 28 91
3 100 105 101
3 106 105 100
3 105 106 107
3 102 108 109
3 109 108 110
3 102 101 108
3 109 110 111
3 111 97 109
3 112 97 111
3 97 112 113
3 113 112 114
3 114 115 113
3 114 116 115
3 115 116 117
3 118 119 89
3 88 89 119
3 119 118 120
3 88 119 120
3 120 118 121
3 120 91 88
3 121 103 120
3 91 120 103
3 121 122 103
3 103 122 123
3 123 104 103
3 124 125 126
3 126 125 127
3 128 125 124
3 124 126 83
3 126 127 129
3 130 128 124
3 83 126 129
3 129 127 118
3 130 116 128
3 131 130 124
3 83 129 89
3 89 129 118
3 117 116 130
3 132 133 134
3 134 133 135
3 133 132 136
3 135 133 136
3 137 138 139
3 140 141 142
3 143 144 145
3 145 144 146
3 143 147 144
3 148 143 145
3 144 149 146
3 145 146 150
3 144 147 139
3 148 145 151
3 149 140 146
3 144 139 149
3 146 152 150
3 151 145 150
3 147 137 139
3 146 140 152
3 149 153 140
3 154 150 152
3 150 155 151
3 152 140 142
3 150 154 156
3 152 142 154
3 101 151 155
3 156 155 150
3 151 101 105
3 156 154 157
3 154 142 158
3 155 108 101
3 155 156 110
3 156 157 110
3 157 154 159
3 158 160 154
3 155 110 108
3 110 157 159
3 159 154 160
3 160 158 161
3 159 111 110
3 159 160 162
3 163 160 161
3 112 111 159
3 159 162 112
3 160 163 162
3 161 164 163
3 112 162 114
3 162 163 164
3 161 165 164
3 114 162 166
3 162 164 166
3 164 165 167
3 114 166 116
3 166 164 168
3 168 164 167
3 167 165 169
3 166 168 116
3 168 167 170
3 167 169 171
3 116 168 170
3 167 172 170
3 167 171 172
3 171 169 173
3 116 170 128
3 170 172 174
3 172 171 175
3 176 171 173
3 170 174 128
3 172 177 174
3 175 171 176
3 172 175 177
3 128 174 178
3 178 174 177
3 175 176 179
3 177 175 180
3 128 178 125
3 178 177 127
3 181 179 176
3 179 180 175
3 180 182 177
3 125 178 127
3 177 182 127
3 179 181 183
3 180 179 184
3 182 180 184
3 127 182 185
3 183 186 179
3 184 179 186
3 184 185 182
3 185 187 127
3 186 183 188
3 184 186 189
3 185 184 189
3 118 127 187
3 187 185 190
3 188 183 191
3 189 186 188
3 189 190 185
3 118 187 121
3 190 192 187
3 188 191 193
3 189 188 194
3 190 189 194
3 121 187 195
3 192 195 187
3 192 190 196
3 193 197 188
3 194 188 197
3 194 196 190
3 195 198 121
3 195 192 198
3 192 196 199
3 197 193 200
3 194 197 201
3 196 194 199
3 198 122 121
3 198 192 199
3 200 201 197
3 201 202 194
3 199 194 202
3 122 198 123
3 199 203 198
3 201 200 204
3 202 201 205
3 202 206 199
3 123 198 203
3 199 207 203
3 208 201 204
3 205 201 208
3 202 205 206
3 199 206 207
3 203 207 123
3 208 204 209
3 205 208 210
3 206 205 210
3 207 206 211
3 207 212 123
3 209 213 208
3 209 204 214
3 208 213 210
3 206 210 215
3 212 207 211
3 211 206 215
3 123 212 104
3 216 213 209
3 216 209 214
3 213 217 210
3 210 217 215
3 211 218 212
3 211 215 219
3 212 220 104
3 217 213 216
3 221 216 214
3 215 217 219
3 218 222 212
3 218 211 223
3 211 219 223
3 104 220 22
3 220 212 222
3 217 216 224
3 216 221 224
3 221 214 225
3 219 217 224
3 218 226 222
3 218 223 226
3 223 219 227
3 22 220 228
3 222 228 220
3 224 221 229
3 225 214 230
3 229 221 225
3 219 224 227
3 228 222 226
3 226 223 231
3 223 227 231
3 228 15 22
3 232 224 229
3 230 233 225
3 225 234 229
3 224 232 227
3 226 235 228
3 231 236 226
3 231 227 237
3 228 235 15
3 229 238 232
3 234 225 233
3 239 229 234
3 227 232 240
3 235 226 236
3 231 237 236
3 237 227 240
3 235 241 15
3 232 238 240
3 229 239 238
3 234 233 134
3 239 234 135
3 241 235 236
3 237 242 236
3 237 240 243
3 240 238 243
3 238 239 244
3 135 234 134
3 239 135 245
3 236 246 241
3 236 242 247
3 243 238 244
3 244 239 248
3 245 248 239
3 245 135 249
3 241 246 250
3 236 247 246
3 136 249 135
3 250 246 251
3 251 246 247
3 252 250 251
3 241 250 9
3 1 9 250
3 241 9 12
3 1 250 252
3 15 241 12
3 1 252 2
3 176 173 253
3 173 254 253
3 176 253 255
3 254 256 253
3 169 254 173
3 253 257 255
3 176 255 181
3 253 256 257
3 256 254 258
3 169 258 254
3 257 259 255
3 255 259 181
3 165 258 169
3 181 259 260
3 165 261 258
3 181 260 183
3 161 261 165
3 183 260 262
3 183 262 191
3 191 262 263
3 191 263 264
3 193 191 264
3 193 264 200
3 200 264 265
3 266 265 264
3 265 204 200
3 265 266 267
3 265 267 204
3 214 204 267
3 214 267 230
3 230 267 268
3 267 269 268
3 104 22 25
3 270 271 272
3 271 273 272
3 274 271 270
3 272 275 270
3 272 273 276
3 271 277 273
3 274 277 271
3 272 278 275
3 276 278 272
3 278 279 275
3 276 280 278
3 278 281 279
3 278 280 281
3 276 282 280
3 281 283 279
3 281 280 284
3 280 282 284
3 276 285 282
3 283 281 286
3 284 287 281
3 282 288 284
3 282 285 288
3 286 281 287
3 286 289 283
3 284 290 287
3 284 288 291
3 286 287 292
3 289 286 292
3 287 290 292
3 293 290 284
3 291 293 284
3 292 294 289
3 292 290 295
3 290 293 296
3 292 297 294
3 295 298 292
3 295 290 296
3 296 293 299
3 292 300 297
3 298 300 292
3 295 296 298
3 296 299 301
3 297 300 302
3 300 298 303
3 298 296 301
3 301 299 304
3 302 300 303
3 303 298 305
3 298 301 305
3 301 304 306
3 302 303 307
3 303 305 307
3 305 301 306
3 307 305 308
3 305 306 308
3 308 306 309
3 309 310 308
3 311 310 312
3 313 314 311
3 314 310 311
3 315 314 313
3 310 314 308
3 314 315 307
3 315 313 316
3 307 308 314
3 307 315 317
3 313 318 316
3 315 316 317
3 307 317 302
3 319 320 321
3 321 322 319
3 323 322 321
3 323 324 322
3 323 321 325
3 326 324 323
3 323 325 327
3 327 326 323
3 274 270 328
3 328 270 329
3 328 330 274
3 270 331 329
3 332 328 329
3 333 330 328
3 330 334 274
3 331 270 335
3 329 331 336
3 332 329 337
3 333 328 332
3 330 333 338
3 335 270 275
3 331 335 336
3 329 336 339
3 340 337 329
3 337 341 332
3 333 332 341
3 338 342 330
3 341 338 333
3 335 275 279
3 335 343 336
3 339 336 344
3 329 339 340
3 337 340 345
3 346 341 337
3 347 335 279
3 343 335 347
3 343 348 336
3 348 344 336
3 339 344 349
3 349 340 339
3 350 345 340
3 345 346 337
3 346 351 341
3 279 283 347
3 348 343 347
3 80 344 348
3 352 349 344
3 350 340 349
3 353 345 350
3 346 345 354
3 355 351 346
3 283 356 347
3 347 357 348
3 80 348 357
3 352 344 80
3 358 349 352
3 359 350 349
3 345 353 360
3 361 353 350
3 354 345 362
3 354 355 346
3 363 351 355
3 356 283 289
3 357 347 356
3 357 77 80
3 352 80 85
3 349 358 359
3 358 352 364
3 350 359 361
3 345 360 362
3 353 361 360
3 365 354 362
3 354 365 355
3 363 366 351
3 363 355 367
3 356 289 368
3 356 368 357
3 77 357 368
3 352 85 364
3 364 359 358
3 93 361 359
3 369 362 360
3 361 369 360
3 365 362 370
3 365 367 355
3 366 371 351
3 363 372 366
3 367 373 363
3 289 374 368
3 368 73 77
3 364 85 87
3 94 359 364
3 361 93 26
3 359 94 93
3 362 369 23
3 369 361 26
3 370 375 365
3 370 362 23
3 367 365 375
3 351 371 376
3 366 377 371
3 373 372 363
3 372 377 366
3 378 373 367
3 294 374 289
3 73 368 374
3 364 87 90
3 94 364 90
3 93 24 26
3 23 369 26
3 379 375 370
3 370 23 18
3 375 378 367
3 371 380 376
3 373 320 372
3 378 381 373
3 294 382 374
3 374 67 73
3 18 379 370
3 375 379 383
3 378 375 384
3 376 380 385
3 381 320 373
3 386 381 378
3 382 294 387
3 374 382 60
3 67 374 60
3 18 383 379
3 383 384 375
3 384 386 378
3 320 381 321
3 321 381 386
3 387 294 297
3 56 382 387
3 60 382 56
3 388 383 18
3 383 389 384
3 386 384 389
3 321 386 390
3 387 297 302
3 388 391 383
3 11 388 18
3 391 389 383
3 389 390 386
3 321 390 325
3 392 391 388
3 388 11 393
3 389 391 394
3 389 395 390
3 395 325 390
3 393 392 388
3 391 392 394
3 5 393 11
3 394 395 389
3 325 395 396
3 393 397 392
3 398 394 392
3 393 5 3
3 395 394 399
3 400 325 396
3 399 396 395
3 393 3 397
3 397 398 392
3 394 398 401
3 399 394 401
3 400 327 325
3 402 397 3
3 397 401 398
3 402 401 397
3 402 3 6
3 317 403 404
3 404 403 48
3 317 316 403
3 317 404 405
3 404 48 52
3 95 48 403
3 316 406 403
3 405 302 317
3 52 405 404
3 403 406 95
3 302 405 387
3 53 405 52
3 53 387 405
3 56 387 53
3 324 132 407
3 407 322 324
3 134 407 132
3 322 407 408
3 408 319 322
3 134 233 409
3 134 409 407
3 409 408 407
3 409 233 230
3 410 320 319
3 319 408 410
3 320 410 372
3 372 410 377
3 230 268 409
3 408 409 268
3 268 410 408
3 410 268 269
3 269 377 410
3 377 269 371
3 351 376 341
3 341 376 338
3 371 269 380
3 269 267 266
3 266 380 269
3 376 385 338
3 338 385 342
3 380 266 411
3 411 385 380
3 264 411 266
3 385 411 412
3 264 412 411
3 412 342 385
3 342 412 330
3 264 263 412
3 330 412 334
3 412 263 262
3 262 334 412
3 274 334 277
3 334 262 277
3 277 262 260
3 413 273 277
3 277 260 413
3 273 413 276
3 276 413 285
3 259 413 260
3 413 259 257
3 257 285 413
3 285 257 288
3 288 257 414
3 288 414 291
3 257 256 414
3 256 415 414
3 291 414 415
3 415 293 291
3 258 415 256
3 415 416 293
3 416 299 293
3 258 261 415
3 261 416 415
3 416 417 299
3 417 416 261
3 417 304 299
3 161 158 418
3 418 158 142
3 419 420 141
3 421 153 149
3 420 417 418
3 421 419 140
3 417 422 304
3 423 424 425
3 426 427 424
3 427 428 429
3 429 424 427
3 430 429 428
3 431 430 428
3 149 432 421
3 420 419 431
3 419 421 431
3 427 426 422
3 421 432 431
3 422 306 304
3 426 310 309
3 431 433 430
3 432 434 431
3 433 431 434
3 434 432 138
3 312 423 425
3 420 431 422
3 424 423 426
3 309 422 426
3 141 140 419
3 149 139 432
3 140 153 421
3 310 423 312
3 139 138 432
3 142 141 418
3 141 420 418
3 418 417 261
3 426 423 310
3 420 422 417
3 306 422 309
3 428 427 422
3 431 428 422
3 161 418 261
3 99 106 100
3 38 106 99
3 435 107 35
3 107 38 35
3 436 105 107
3 107 106 38
3 41 99 98
3 98 102 109
3 30 98 437
3 109 437 98
3 437 32 30
3 437 109 97
3 32 437 97
3 124 83 79
3 131 124 79
3 131 79 71
3 71 72 131
3 130 131 72
3 72 117 130
3 63 96 438
3 97 113 96
3 113 438 96
3 115 72 70
3 115 70 63
3 438 113 115
3 115 117 72
3 63 438 115
3 29 41 30
3 33 32 96
3 316 318 406
3 86 82 89
3 83 89 82
3 15 16 22
3 439 2 0
3 439 252 2
3 439 251 252
3 439 247 251
3 439 242 247
3 439 237 242
3 439 243 237
3 439 244 243
3 439 248 244
3 439 245 248
3 439 249 245
3 439 136 249
3 439 132 136
3 439 324 132
3 439 326 324
3 439 327 326
3 439 400 327
3 439 396 400
3 439 399 396
3 439 401 399
3 439 402 401
3 439 6 402
3 439 4 6
3 439 0 4
3 440 34 35
3 440 35 435
3 440 435 107
3 440 107 436
3 440 436 105
3 440 105 151
3 440 151 148
3 440 148 143
3 440 143 147
3 440 147 137
3 440 137 138
3 440 138 434
3 440 434 433
3 440 433 430
3 440 430 429
3 440 429 424
3 440 424 425
3 440 425 312
3 440 312 311
3 440 311 313
3 440 313 318
3 440 318 406
3 440 406 95
3 440 95 46
3 440 46 42
3 440 42 39
3 440 39 37
3 440 37 34
