ply
format ascii 1.0
element vertex 480
property float x
property float y
property float z
element face 956
property list uchar int vertex_indices
end_header
0.6894587 0.5094427 0.05170188
0.6853683 0.5068858 0.04387851
0.6761051 0.5097036 0.04709907
0.69548 0.4994872 0.03989436
0.7023697 0.5084339 0.05488748
0.6999747 0.502192 0.05028414
0.7120689 0.4963951 0.04543565
0.5768105 0.5366887 0.01397802
0.5664286 0.5407917 0.01824631
0.5700657 0.548946 0.02549472
0.5562743 0.5491765 0.02222113
0.5628381 0.5375825 0.00647246
0.5502601 0.5474585 0.0124337
0.7058821 0.4970297 0.03565545
0.7031641 0.4956501 0.02932258
0.5894895 0.4685919 -0.001654865
0.5852579 0.4703629 -0.01227528
0.579139 0.4719225 0.002539092
0.5748835 0.4732859 -0.008060289
0.5999041 0.4663463 -0.005904889
0.582229 0.477325 -0.02098452
0.5956694 0.4680624 -0.01652247
0.593124 0.4765113 -0.02434562
0.5711909 0.4788647 -0.01811173
0.6072761 0.4648587 -0.009284079
0.5816656 0.4830109 -0.02345718
0.5614823 0.478736 -0.01522079
0.6073404 0.4748399 -0.02291667
0.5937079 0.4876612 -0.02419715
0.5689037 0.4892832 -0.0256906
0.5644361 0.4749709 -0.00378155
0.5496616 0.476804 -0.01003955
0.6061845 0.4871451 -0.02467202
0.5538614 0.4744928 0.0006090103
0.5686924 0.473623 0.006817034
0.6286376 0.5089562 -0.01896141
0.6215926 0.5092379 -0.02152417
0.6330864 0.497222 -0.02002126
0.6236109 0.5198561 -0.01717787
0.6358117 0.5086433 -0.01685577
0.639679 0.5220662 -0.01200653
0.6467292 0.4965264 -0.01796526
0.6316111 0.5329782 -0.009571179
0.6487718 0.5077944 -0.01464063
0.6411437 0.531604 -0.008368044
0.6585958 0.4956241 -0.01861184
0.6514193 0.5194448 -0.0110289
0.6444714 0.5387812 -0.001681385
0.6643947 0.5104463 -0.009628772
0.6549932 0.531982 -0.006304431
0.6724395 0.4953831 -0.01084339
0.6636603 0.5188621 -0.008382931
0.6777576 0.5179768 -0.00712861
0.6679866 0.5303096 -0.00288443
0.6887168 0.5039285 -0.006457352
0.669659 0.5346836 0.0003276488
0.6839855 0.5178348 -0.005143428
0.6740301 0.5300333 -0.001354976
0.6920381 0.5175266 -0.00194697
0.6796047 0.5244575 -0.003510602
0.6836343 0.5295656 0.007006111
0.6943939 0.5228763 0.002734395
0.7042473 0.515924 -0.0009408822
0.6992031 0.529319 0.01287777
0.710144 0.5273888 0.01012893
0.717144 0.5161178 -0.0006593568
0.7197807 0.5221677 0.004568299
0.7302845 0.5153813 3.27727E-05
0.7230093 0.5278088 0.01131291
0.7151539 0.5046819 -0.003270279
0.7344661 0.5267575 0.01219752
0.7272563 0.5039478 -0.003714883
0.5121855 0.5145135 -0.04387825
0.5033078 0.5025831 -0.04129071
0.514589 0.5031351 -0.04037312
0.5124801 0.5257403 -0.04425137
0.5290579 0.5256471 -0.04018068
0.5044238 0.53843 -0.04242878
0.5175431 0.5374215 -0.03997811
0.5069446 0.5493817 -0.03794518
0.5007158 0.5717158 -0.02743441
0.5099643 0.5609095 -0.03291715
0.5128438 0.5711474 -0.02201916
0.5047187 0.5774519 -0.01882762
0.5192423 0.5470971 -0.03580819
0.5000272 0.4927201 -0.03752082
0.5290717 0.5136945 -0.04052062
0.5091246 0.5786481 -0.008360238
0.5253224 0.5605009 -0.02714089
0.5165561 0.4917036 -0.0341111
0.5275511 0.5030543 -0.03847321
0.5311684 0.5366101 -0.03659227
0.5453798 0.5243614 -0.03602837
0.5204253 0.5729496 -0.01379063
0.5296636 0.5692227 -0.01660561
0.5349877 0.5492468 -0.03098361
0.5413886 0.501838 -0.03499644
0.5413979 0.5131431 -0.03716833
0.5134832 0.5790359 0.002148854
0.5380751 0.5596745 -0.02430081
0.5295969 0.4912879 -0.03160255
0.5442734 0.5352805 -0.03320117
0.5238783 0.5764637 -0.002084177
0.5342082 0.5722386 -0.005902326
0.5398496 0.5630892 -0.02065482
0.5437668 0.5594496 -0.02217719
0.5505581 0.5483368 -0.02538983
0.5445195 0.5687761 -0.01041915
0.5525133 0.5590943 -0.01910332
0.5489918 0.571824 -0.001472093
0.5547442 0.5632979 -0.01450238
0.5593234 0.5674443 -0.004187021
0.5598778 0.5587956 -0.01650466
0.4907673 0.4875953 -0.03524961
0.4927854 0.4821522 -0.02929101
0.5002862 0.4818447 -0.0267095
0.4945928 0.478916 -0.02427281
0.5029485 0.4735446 -0.002937195
0.4986497 0.4741722 -0.01349868
0.4880476 0.4732249 -0.009084114
0.5054861 0.4848207 -0.02894322
0.5071769 0.481569 -0.02420506
0.5094029 0.4776934 -0.01804617
0.5185976 0.4818101 -0.02196475
0.5134757 0.4732201 -0.007286259
0.5241212 0.4749026 -0.01173896
0.5310261 0.4867167 -0.02724332
0.5283012 0.4722531 -0.001072892
0.5342109 0.4790077 -0.01801172
0.5413274 0.4923995 -0.0311661
0.5389164 0.4734229 -0.005499202
0.5433982 0.4803751 -0.01864848
0.5578879 0.4891531 -0.02665516
0.5432907 0.474081 0.004996148
0.6129052 0.4867762 -0.02416777
0.6178457 0.4750772 -0.02398618
0.6190526 0.4864614 -0.02326723
0.6140224 0.4980885 -0.02493866
0.6330498 0.4883854 -0.02047041
0.6196766 0.497807 -0.02395608
0.6287981 0.4742673 -0.02720928
0.6428089 0.4785824 -0.0239993
0.6464626 0.4852044 -0.01641294
0.6413757 0.4735645 -0.02650503
0.6551192 0.4729385 -0.02298508
0.6420531 0.4657201 -0.02333565
0.6454824 0.4734027 -0.02496478
0.6593046 0.4842885 -0.01953916
0.6682724 0.4791737 -0.02223249
0.6728411 0.4838254 -0.01179573
0.6665857 0.4721625 -0.02496617
0.6837518 0.4821911 -0.0152047
0.6736674 0.4717826 -0.02426427
0.6893619 0.4945443 -0.007828444
0.6797124 0.4714959 -0.02293669
0.6981854 0.4824271 -0.01001489
0.69168 0.4707529 -0.02370676
0.701338 0.4939983 -0.004769246
0.6936146 0.4777018 -0.02035882
0.7030268 0.5054144 -0.002885719
0.7085544 0.4786868 -0.01424635
0.7104705 0.4817642 -0.01019099
0.7054473 0.4701493 -0.01980837
0.7090099 0.5050657 -0.002830203
0.7130872 0.4928555 -0.003788457
0.716913 0.4693525 -0.02211135
0.718905 0.4753538 -0.01844003
0.7221979 0.4810054 -0.01154152
0.7243686 0.4907296 -0.008159374
0.72797 0.4685495 -0.02508189
0.7293304 0.473291 -0.02269951
0.7335932 0.4797252 -0.01214585
0.7324314 0.4683509 -0.02384843
0.5747843 0.5582379 -0.01033605
0.5796106 0.5537304 -0.012211
0.5858411 0.5583059 -0.003475728
0.5953569 0.5560282 -0.004395072
0.5765399 0.5463096 -0.01822635
0.5740768 0.565253 0.002089192
0.5890251 0.5453817 -0.01550409
0.5694145 0.5466306 -0.02012059
0.5695643 0.5622418 -0.008284478
0.6045765 0.5451163 -0.01001543
0.5860457 0.5340998 -0.02274656
0.5760564 0.5357487 -0.02328361
0.5646866 0.5530185 -0.01833768
0.5670411 0.55852 -0.01368906
0.5987242 0.532836 -0.01893982
0.6093795 0.5538124 0.0001112096
0.5626863 0.5469283 -0.02201219
0.6144556 0.5331101 -0.01385698
0.6178202 0.5433297 -0.003096925
0.5969642 0.5219829 -0.02385496
0.5841053 0.523145 -0.02563867
0.5591223 0.5351473 -0.02787098
0.6078373 0.5201674 -0.02230284
0.6135347 0.550741 0.01079905
0.5709231 0.5233302 -0.02740191
0.5642673 0.5236034 -0.0296859
0.6234543 0.5447158 0.006960959
0.5947667 0.5105335 -0.02696665
0.588457 0.510901 -0.02702899
0.5822836 0.5112424 -0.02744197
0.5564202 0.5239061 -0.032756
0.6097804 0.5097617 -0.02482571
0.5679188 0.5119389 -0.03030404
0.5940419 0.499181 -0.02652111
0.5882574 0.4995149 -0.02663596
0.5814623 0.4998837 -0.02722931
0.5669566 0.5006244 -0.02939322
0.555371 0.5125323 -0.03309414
0.6065822 0.4984757 -0.02590758
0.5549984 0.501203 -0.03179768
0.5483907 0.5128366 -0.03514399
0.6145165 0.4617553 0.00049541
0.6051105 0.4663319 0.004264175
0.5939177 0.4701656 0.00879304
0.583618 0.4743609 0.01294238
0.5350887 0.4818764 0.01354086
0.5329157 0.4769985 0.009211359
0.5231539 0.4863436 0.01273993
0.5363441 0.4932638 0.01437704
0.5478368 0.4808941 0.01603085
0.558274 0.4758031 0.01107044
0.7298851 0.4824966 0.02611553
0.7227795 0.4712704 0.02174018
0.7243693 0.4826798 0.0233845
0.7312934 0.4648271 0.01369035
0.7209194 0.4677627 0.01790477
0.7113771 0.4837667 0.02138686
0.716539 0.4670008 0.007414752
0.7166754 0.4715165 0.01955927
0.7272266 0.4585706 0.001963506
0.7084479 0.4718576 0.01679959
0.7182689 0.458717 -0.00539908
0.7060254 0.4675566 0.01175185
0.722105 0.4560269 -0.006913714
0.7120534 0.4644493 -0.002982402
0.6959222 0.4727234 0.01537358
0.711033 0.4591918 -0.004439089
0.7015409 0.4650237 0.001353741
0.6976805 0.4591067 -0.00687179
0.6908019 0.4617476 0.00588846
0.6805889 0.4674217 0.009961645
0.6872707 0.4605426 -0.002452783
0.6784347 0.4616385 0.005853693
0.6700426 0.4738141 0.0145796
0.6756582 0.4572959 -4.525639E-05
0.665365 0.4623693 0.003716453
0.6551988 0.4680793 0.008130193
0.6593139 0.4612278 -0.005710518
0.6712487 0.4560403 -0.01050957
0.6506801 0.4649637 -0.002238358
0.6759573 0.4970513 0.02549429
0.6815106 0.4981785 0.03338895
0.6906034 0.4902808 0.02984029
0.5087388 0.5397266 -0.001735029
0.496677 0.5399859 -0.002271496
0.4969042 0.5513526 -0.002303902
0.5129848 0.5518826 0.002375486
0.5030269 0.5635784 0.006442016
0.4970602 0.5291839 0.001930355
0.498538 0.4840627 0.01428618
0.4895535 0.4959368 0.01411713
0.4984337 0.4974949 0.01142312
0.50913 0.517143 0.003603109
0.4975834 0.5179137 0.0053907
0.5153 0.5627683 0.009722213
0.5091421 0.5284485 0.001435979
0.5103042 0.4833064 0.01302925
0.4978191 0.5066245 0.008156845
0.5088696 0.5066037 0.006465514
0.5218945 0.5394875 -0.0003551197
0.5260809 0.5525932 0.00790298
0.5213568 0.5272699 0.0001903029
0.5074755 0.4767987 0.007424002
0.5104351 0.4946197 0.01114865
0.4970915 0.4795655 0.01164713
0.5137827 0.5168756 0.003720097
0.4924314 0.4740427 0.001402792
0.520621 0.5625715 0.01196709
0.5178367 0.4736487 0.003220785
0.5216439 0.516436 0.00415303
0.5337618 0.5383123 -0.0006470142
0.516975 0.5646777 0.013419
0.5220208 0.5051561 0.007260105
0.5364404 0.5488719 0.006480657
0.5332725 0.5269754 0.0003675146
0.534196 0.5067225 0.008436383
0.5469066 0.5375659 0.001854354
0.5464225 0.5237788 0.001729181
0.534078 0.5157238 0.004509842
0.5400639 0.5154079 0.005204767
0.5491658 0.498182 0.0143274
0.5477644 0.4926847 0.01615863
0.5593989 0.5256338 0.004120039
0.5592514 0.5044718 0.01044596
0.5621859 0.4919035 0.01744212
0.559022 0.5143042 0.0054061
0.5654812 0.5254112 0.006734089
0.5646074 0.5140792 0.007404878
0.5747415 0.5251131 0.01150254
0.5756486 0.501605 0.01492736
0.5627411 0.4806353 0.02097945
0.5737419 0.5137426 0.01128428
0.5694719 0.4915212 0.01833026
0.5804079 0.51345 0.01320513
0.5808495 0.5248166 0.01271232
0.5752806 0.4912347 0.01939434
0.5734394 0.4798557 0.01698469
0.5878024 0.5244422 0.01337334
0.5884064 0.5018725 0.01922518
0.5874343 0.5131132 0.01468059
0.5897219 0.5358734 0.01581371
0.5865316 0.4791398 0.01908956
0.5882418 0.4905573 0.02102474
0.5980918 0.5354741 0.01760813
0.5987943 0.4909718 0.01873246
0.5992659 0.5010566 0.01577884
0.599542 0.5123795 0.01424918
0.5918796 0.541171 0.02002427
0.6017827 0.5302251 0.0162233
0.597284 0.4779734 0.01994976
0.600232 0.5237296 0.01371964
0.6037091 0.5352634 0.01992267
0.6104326 0.5003854 0.01364684
0.6117381 0.4890424 0.01842421
0.6111661 0.522001 0.01308821
0.6114172 0.4777165 0.01984548
0.6100001 0.511537 0.00983222
0.6175977 0.5345196 0.02132352
0.6088247 0.4705865 0.0149348
0.623557 0.4882895 0.01729443
0.6212933 0.510842 0.009223057
0.6285744 0.5239593 0.01762746
0.6185186 0.4665695 0.009278983
0.6229111 0.4995515 0.01353795
0.6249816 0.4769191 0.01983757
0.6340164 0.4876859 0.01750696
0.636201 0.4980755 0.01500579
0.6366572 0.5105638 0.014223
0.6293039 0.4648464 0.005827704
0.6357955 0.4762597 0.01937497
0.634297 0.4713292 0.01669394
0.6415318 0.5218142 0.02469693
0.6250613 0.461725 -0.003868917
0.6509544 0.4868579 0.02074977
0.6474903 0.4754987 0.0179454
0.649587 0.4982461 0.01861792
0.6522377 0.5103314 0.02052758
0.6401069 0.4645056 0.00215103
0.6345509 0.463842 -0.007854943
0.6447189 0.4692076 0.01243751
0.6300765 0.463402 -0.01831472
0.6595135 0.4760308 0.01706297
0.6553066 0.4979604 0.01959452
0.6625869 0.4862667 0.02253825
0.6632238 0.4976131 0.02188032
0.6755832 0.4848003 0.02440669
0.6833265 0.4732654 0.01547446
0.6886408 0.4849203 0.0261158
0.6854929 0.477094 0.01999136
0.6997375 0.4841199 0.02324143
0.7012265 0.4915845 0.0254071
0.6936148 0.4965524 0.03593468
0.6693202 0.5086529 0.03814955
0.7269823 0.4956878 0.05717972
0.7247994 0.4919139 0.05261198
0.7201419 0.495948 0.05442993
0.7075921 0.4588108 -0.01377228
0.7309601 0.4910663 0.03776081
0.7266743 0.4919136 0.02718776
0.7159164 0.4949639 0.03155799
0.7205831 0.4939468 0.04197796
0.7334971 0.5342394 0.0355332
0.7292277 0.5353665 0.02494571
0.7395358 0.5313104 0.02078931
0.7373316 0.5285069 0.04595866
0.7258511 0.5295275 0.04785776
0.7267559 0.5252094 0.05089403
0.7251909 0.5184193 0.05311109
0.7273236 0.507015 0.05580779
0.7160244 0.5076364 0.05498159
0.7230617 0.5361263 0.03980162
0.724629 0.5308911 0.01464753
0.7188378 0.538028 0.02917416
0.7137226 0.5302599 0.0482396
0.7135759 0.5189455 0.05008139
0.7125678 0.537021 0.04412114
0.7143095 0.5347511 0.01881414
0.7083724 0.5394108 0.0334687
0.7031088 0.531092 0.05227999
0.7019337 0.5355296 0.04856401
0.7025988 0.5197537 0.05324445
0.6920483 0.5205901 0.05743786
0.6978238 0.5393711 0.03783647
0.7038592 0.5363872 0.02309541
0.6932434 0.5352079 0.02752218
0.6871269 0.5368134 0.04233433
0.6928239 0.5313472 0.05185997
0.680719 0.521208 0.05651303
0.6823421 0.5321641 0.03161752
0.6907238 0.5302761 0.02236179
0.6781228 0.5311607 0.04621586
0.6682562 0.5216333 0.05056008
0.6884624 0.5276302 0.01738383
0.6718387 0.532293 0.03669308
0.6772469 0.5306885 0.02054838
0.6741567 0.5374366 0.01071476
0.6608503 0.5210721 0.04153531
0.6609468 0.5240213 0.04119672
0.6574211 0.5218652 0.04271498
0.6654989 0.5084797 0.0274121
0.6561632 0.5163977 0.03106078
0.6590886 0.5327862 0.03498116
0.6689343 0.5424781 0.0127393
0.6679166 0.5425757 0.02454069
0.653012 0.521583 0.03222394
0.6528616 0.532997 0.03197483
0.6572331 0.542769 0.02853546
0.6592856 0.5425725 0.004509293
0.6641168 0.5460593 0.01463575
0.6537018 0.5482946 0.01888615
0.6441138 0.533331 0.02848687
0.6424201 0.5458943 0.02403813
0.6474014 0.543321 0.004552059
0.649254 0.5463851 0.008455375
0.6328957 0.5338826 0.02640085
0.6306424 0.5452797 0.02342824
0.6388472 0.5496283 0.01267523
0.6283016 0.5487801 0.01706358
0.624049 0.5454343 0.01891517
0.6154377 0.5458094 0.01637834
0.6058247 0.5467075 0.02283697
0.6086638 0.5574322 0.01263279
0.6059032 0.5570181 0.001462898
0.6036874 0.5626374 0.01455091
0.5992828 0.5614674 0.004082123
0.6058279 0.5580124 0.020648
0.5971633 0.558973 0.02939675
0.5965735 0.5476171 0.03022785
0.588909 0.5644028 0.008296476
0.5933738 0.5665994 0.01871224
0.5820587 0.5596123 0.02458551
0.5815983 0.5481318 0.02415535
0.5784591 0.5660443 0.01257746
0.5690241 0.560182 0.02078196
0.5599152 0.5498086 0.03065481
0.5678032 0.564184 0.01703934
0.5591972 0.559734 0.01989545
0.5637429 0.568872 0.006268352
0.542299 0.5615053 0.01530106
0.5369951 0.578332 0.02940686
0.5446352 0.5732176 0.02436051
0.5372457 0.5739872 0.03085991
0.5547836 0.5723835 0.0111844
0.5432237 0.5786354 0.01449622
0.5324581 0.5742961 0.03139501
0.530831 0.5633947 0.01734017
0.5328503 0.5815812 0.01871012
0.5386664 0.5748621 0.004161874
0.5282894 0.5777481 0.008378858
0.5219105 0.5743846 0.02109741
0.5363991 0.5681902 0.02993016
0.5177571 0.5779861 0.01273232
0.5138884 0.5745119 0.01442853
0.5044382 0.5748886 0.0109674
0.5030047 0.5801954 0.006454913
0.7285786 0.4604979 -0.02203943
0.7306342 0.4574203 -0.01644948
0.7197909 0.4582373 -0.012963
0.7180439 0.4606986 -0.01768386
0.693165 0.4602764 -0.01806461
0.6843038 0.4597102 -0.01677779
0.6677395 0.4619563 -0.02018144
0.6575025 0.4627409 -0.01521623
0.6462975 0.4641674 -0.01272643
0.6205777 0.4635711 -0.0151159
0.7291753 0.4927683 0.01738814
0.5000464 0.521535 -0.01280741
3 0 1 2
3 3 1 0
3 4 5 0
3 4 6 5
3 7 8 9
3 9 8 10
3 7 11 8
3 8 11 10
3 10 11 12
3 13 14 3
3 15 16 17
3 17 16 18
3 16 15 19
3 16 20 18
3 19 21 16
3 16 22 20
3 18 20 23
3 21 22 16
3 21 19 24
3 25 20 22
3 25 23 20
3 23 26 18
3 22 21 27
3 27 21 24
3 25 22 28
3 29 23 25
3 26 30 18
3 29 26 23
3 28 22 27
3 25 28 29
3 30 26 31
3 27 32 28
3 31 33 30
3 17 18 34
3 34 18 30
3 35 36 37
3 38 36 35
3 35 37 39
3 38 35 40
3 39 37 41
3 35 39 40
3 42 38 40
3 39 41 43
3 39 43 40
3 42 40 44
3 43 41 45
3 40 43 46
3 42 44 47
3 40 46 44
3 43 45 48
3 46 43 48
3 47 44 49
3 46 49 44
3 45 50 48
3 46 48 51
3 51 49 46
3 48 50 52
3 48 52 51
3 49 51 53
3 52 50 54
3 53 51 52
3 49 53 55
3 56 52 54
3 53 52 57
3 55 53 57
3 56 54 58
3 59 52 56
3 52 59 57
3 60 55 57
3 59 56 58
3 60 57 59
3 59 58 61
3 59 61 60
3 61 58 62
3 60 61 63
3 61 62 64
3 61 64 63
3 64 62 65
3 65 66 64
3 66 65 67
3 66 68 64
3 65 69 67
3 66 67 70
3 68 66 70
3 67 69 71
3 72 73 74
3 75 72 76
3 77 75 78
3 79 77 78
3 80 81 82
3 83 80 82
3 84 81 79
3 73 85 74
3 86 72 74
3 75 76 78
3 76 72 86
3 79 78 84
3 83 82 87
3 81 88 82
3 81 84 88
3 85 89 74
3 86 74 90
3 78 76 91
3 76 86 92
3 84 78 91
3 82 93 87
3 82 88 94
3 84 95 88
3 90 74 89
3 90 96 86
3 91 76 92
3 92 86 97
3 84 91 95
3 98 87 93
3 93 82 94
3 88 99 94
3 88 95 99
3 90 89 100
3 96 90 100
3 96 97 86
3 91 92 101
3 101 95 91
3 93 102 98
3 103 93 94
3 99 104 94
3 99 95 105
3 95 101 106
3 102 93 103
3 103 94 104
3 104 99 105
3 95 106 105
3 104 107 103
3 104 105 107
3 105 106 108
3 107 109 103
3 105 108 107
3 109 107 110
3 108 110 107
3 109 110 111
3 110 108 112
3 110 112 111
3 113 114 115
3 115 114 116
3 85 113 115
3 117 118 119
3 115 116 118
3 85 115 120
3 121 115 118
3 85 120 89
3 120 115 121
3 121 118 122
3 89 120 123
3 120 121 123
3 124 122 118
3 123 121 122
3 100 89 123
3 122 124 125
3 123 122 125
3 100 123 126
3 127 125 124
3 123 125 128
3 126 123 128
3 129 100 126
3 125 127 130
3 130 128 125
3 126 128 131
3 129 126 131
3 131 128 130
3 129 131 132
3 131 130 31
3 132 131 26
3 33 31 130
3 131 31 26
3 29 132 26
3 130 133 33
3 134 27 135
3 134 32 27
3 135 136 134
3 32 134 137
3 137 134 136
3 136 135 138
3 136 139 137
3 138 135 140
3 139 136 138
3 36 137 139
3 140 141 138
3 139 138 37
3 37 36 139
3 138 141 142
3 140 143 141
3 138 41 37
3 141 144 142
3 138 142 41
3 145 143 140
3 141 143 146
3 144 147 142
3 141 146 144
3 41 142 45
3 146 143 145
3 142 147 45
3 144 148 147
3 45 147 50
3 149 147 148
3 144 150 148
3 147 149 50
3 148 151 149
3 148 150 152
3 50 149 153
3 153 149 151
3 148 154 151
3 148 152 154
3 50 153 54
3 151 155 153
3 151 154 156
3 54 153 157
3 151 158 155
3 153 155 157
3 156 158 151
3 54 157 159
3 158 160 155
3 157 155 161
3 158 156 162
3 163 159 157
3 58 54 159
3 158 162 160
3 161 155 160
3 157 161 164
3 62 159 163
3 157 164 163
3 58 159 62
3 160 162 165
3 161 160 166
3 164 161 167
3 62 163 65
3 163 164 69
3 165 166 160
3 166 167 161
3 167 168 164
3 163 69 65
3 69 164 71
3 166 165 169
3 167 166 170
3 71 164 168
3 168 167 171
3 169 170 166
3 167 170 171
3 170 169 172
3 173 174 175
3 174 176 175
3 177 174 173
3 173 175 178
3 174 179 176
3 174 177 179
3 180 177 173
3 181 173 178
3 176 179 182
3 177 183 179
3 180 184 177
3 185 180 173
3 181 186 173
3 187 182 179
3 176 182 188
3 179 183 187
3 177 184 183
3 189 184 180
3 185 189 180
3 186 185 173
3 186 181 111
3 187 190 182
3 188 182 191
3 183 192 187
3 184 193 183
3 189 194 184
3 108 189 185
3 112 185 186
3 112 186 111
3 195 190 187
3 191 182 190
3 196 188 191
3 187 192 195
3 183 193 192
3 197 193 184
3 194 198 184
3 106 194 189
3 108 106 189
3 108 185 112
3 195 38 190
3 190 42 191
3 191 199 196
3 192 200 195
3 193 201 192
3 202 193 197
3 198 197 184
3 194 203 198
3 194 106 101
3 195 36 38
3 190 38 42
3 199 191 42
3 200 204 195
3 192 201 200
3 201 193 202
3 197 205 202
3 198 205 197
3 198 203 205
3 101 203 194
3 195 204 36
3 200 206 204
3 201 207 200
3 201 202 208
3 205 209 202
3 205 203 210
3 101 92 203
3 204 137 36
3 204 206 211
3 200 207 206
3 208 207 201
3 202 209 208
3 212 209 205
3 205 210 212
3 203 213 210
3 92 213 203
3 137 204 211
3 206 28 211
3 28 206 207
3 207 208 28
3 209 29 208
3 209 212 132
3 212 210 213
3 97 213 92
3 137 211 32
3 211 28 32
3 208 29 28
3 209 132 29
3 129 132 212
3 213 96 212
3 213 97 96
3 129 212 96
3 96 100 129
3 214 24 215
3 215 19 216
3 216 15 217
3 216 19 15
3 218 219 220
3 219 127 220
3 133 219 218
3 218 220 221
3 219 130 127
3 133 218 222
3 222 218 221
3 222 33 133
3 223 33 222
3 224 225 226
3 227 228 225
3 226 225 229
3 230 228 227
3 225 228 231
3 229 225 231
3 230 231 228
3 227 232 230
3 231 233 229
3 230 233 231
3 232 234 230
3 230 235 233
3 232 236 234
3 234 237 230
3 233 235 238
3 230 237 235
3 239 237 234
3 240 238 235
3 235 237 240
3 237 239 241
3 240 242 238
3 241 240 237
3 240 241 242
3 238 242 243
3 242 241 244
3 242 244 243
3 243 244 245
3 245 246 243
3 247 245 244
3 245 248 246
3 245 247 248
3 248 249 246
3 250 248 247
3 248 250 249
3 251 250 247
3 250 252 249
3 253 254 255
3 256 257 258
3 259 258 260
3 261 257 256
3 262 263 264
3 261 265 266
3 256 258 259
3 267 259 260
3 268 261 256
3 264 269 262
3 264 270 271
3 270 266 271
3 266 265 271
3 268 265 261
3 256 259 272
3 273 259 267
3 256 274 268
3 269 275 262
3 276 269 264
3 276 264 271
3 262 275 277
3 271 265 278
3 265 268 278
3 277 117 279
3 273 272 259
3 272 274 256
3 267 280 273
3 268 274 278
3 281 275 269
3 269 276 220
3 271 220 276
3 275 117 277
3 271 278 282
3 119 279 117
3 283 272 273
3 274 272 283
3 280 267 284
3 282 278 274
3 281 269 220
3 285 220 271
3 275 124 117
3 285 271 282
3 283 273 286
3 283 287 274
3 282 274 287
3 220 127 281
3 288 220 285
3 285 282 288
3 289 283 286
3 290 287 283
3 291 282 287
3 288 221 220
3 282 291 288
3 289 286 12
3 290 283 289
3 287 290 292
3 291 287 292
3 221 288 293
3 288 291 292
3 12 11 289
3 290 289 11
3 293 292 290
3 221 293 294
3 293 288 292
3 295 290 11
3 293 290 296
3 221 294 222
3 297 294 293
3 298 290 295
3 299 295 11
3 290 298 296
3 297 293 296
3 222 294 297
3 300 298 295
3 295 299 300
3 11 301 299
3 296 298 300
3 297 296 302
3 297 303 222
3 299 304 300
3 301 304 299
3 7 301 11
3 302 296 300
3 297 302 305
3 303 223 222
3 303 297 305
3 302 300 304
3 306 304 301
3 307 301 7
3 308 305 302
3 223 303 309
3 303 305 309
3 306 302 304
3 301 307 306
3 7 310 307
3 308 309 305
3 308 302 311
3 309 34 223
3 302 306 312
3 306 307 310
3 313 310 7
3 314 309 308
3 315 308 311
3 312 311 302
3 34 309 217
3 310 312 306
3 310 313 316
3 314 217 309
3 314 308 315
3 315 311 317
3 312 318 311
3 17 34 217
3 310 319 312
3 316 313 320
3 310 316 321
3 216 217 314
3 322 314 315
3 311 318 317
3 315 317 322
3 319 318 312
3 217 15 17
3 323 319 310
3 324 321 316
3 323 310 321
3 216 314 322
3 317 318 325
3 322 317 326
3 318 319 325
3 319 323 327
3 327 321 324
3 327 323 321
3 322 215 216
3 326 317 325
3 326 328 322
3 319 329 325
3 329 319 327
3 327 324 330
3 331 215 322
3 325 332 326
3 328 326 332
3 328 331 322
3 325 329 333
3 333 329 327
3 327 330 334
3 335 215 331
3 336 332 325
3 332 337 328
3 328 335 331
3 336 325 333
3 333 327 334
3 335 214 215
3 332 336 338
3 338 337 332
3 337 335 328
3 333 339 336
3 333 334 340
3 214 335 341
3 336 339 338
3 338 342 337
3 335 337 343
3 340 339 333
3 344 340 334
3 341 335 343
3 341 345 214
3 346 338 339
3 342 343 337
3 338 347 342
3 340 348 339
3 340 344 349
3 343 350 341
3 351 345 341
3 346 347 338
3 346 339 348
3 342 352 343
3 347 352 342
3 349 348 340
3 351 341 350
3 352 350 343
3 351 353 345
3 347 346 354
3 355 346 348
3 347 249 352
3 355 348 349
3 350 352 249
3 356 354 346
3 354 249 347
3 346 355 357
3 357 355 349
3 249 252 350
3 357 356 346
3 246 354 356
3 249 354 246
3 253 356 357
3 246 356 358
3 358 356 253
3 358 359 246
3 360 358 253
3 359 243 246
3 361 359 358
3 360 361 358
3 360 253 255
3 243 359 238
3 359 361 238
3 361 360 362
3 255 362 360
3 362 238 361
3 363 362 255
3 233 238 362
3 362 363 229
3 364 363 255
3 233 362 229
3 364 255 254
3 14 363 364
3 364 254 1
3 3 14 364
3 254 365 1
3 364 1 3
3 365 2 1
3 366 367 368
3 239 369 241
3 370 224 371
3 224 226 371
3 226 229 372
3 229 363 372
3 226 372 371
3 363 14 372
3 370 371 372
3 372 373 370
3 372 14 13
3 3 0 5
3 5 13 3
3 374 375 376
3 377 378 374
3 379 378 377
3 377 380 379
3 381 366 382
3 382 366 368
3 380 381 382
3 6 13 5
3 6 372 13
3 373 372 6
3 367 373 6
3 6 368 367
3 6 382 368
3 70 376 375
3 375 374 383
3 374 378 383
3 384 70 375
3 384 375 385
3 383 385 375
3 386 378 379
3 386 379 380
3 378 386 383
3 387 380 382
3 387 386 380
3 382 6 4
3 387 382 4
3 384 68 70
3 385 383 388
3 383 386 388
3 385 389 384
3 68 384 389
3 389 385 390
3 388 390 385
3 386 391 388
3 388 391 392
3 386 387 393
3 4 393 387
3 393 391 386
3 4 0 393
3 0 394 393
3 389 64 68
3 388 395 390
3 392 395 388
3 390 396 389
3 64 389 396
3 396 390 395
3 395 397 396
3 398 395 392
3 393 399 391
3 391 399 392
3 393 394 399
3 398 392 399
3 394 0 400
3 394 400 399
3 0 2 400
3 63 64 396
3 395 401 397
3 398 401 395
3 402 63 396
3 402 396 397
3 402 397 401
3 399 403 398
3 403 399 400
3 401 398 403
3 400 2 404
3 400 404 403
3 2 365 404
3 253 365 254
3 60 63 405
3 406 401 403
3 402 407 405
3 407 60 405
3 401 407 402
3 408 60 407
3 407 401 406
3 365 409 404
3 410 403 404
3 409 410 404
3 410 406 403
3 409 411 410
3 253 412 365
3 365 412 409
3 409 412 413
3 253 357 412
3 410 414 406
3 408 55 60
3 415 408 407
3 55 408 415
3 416 415 407
3 416 407 406
3 414 416 406
3 417 410 411
3 417 411 409
3 417 414 410
3 409 413 417
3 417 418 414
3 357 349 412
3 412 349 413
3 349 417 413
3 414 419 416
3 414 418 419
3 420 55 415
3 49 55 420
3 421 415 416
3 421 420 415
3 416 419 421
3 421 419 422
3 423 418 417
3 423 419 418
3 349 344 417
3 417 344 423
3 419 424 422
3 423 424 419
3 425 49 420
3 425 47 49
3 426 420 421
3 426 421 422
3 426 425 420
3 426 422 424
3 423 344 427
3 424 423 427
3 424 427 428
3 334 427 344
3 425 426 429
3 424 429 426
3 425 429 47
3 428 429 424
3 42 47 429
3 428 430 429
3 428 431 430
3 427 334 330
3 428 427 330
3 330 431 428
3 42 429 199
3 430 199 429
3 431 199 430
3 432 431 330
3 432 199 431
3 432 330 324
3 196 199 432
3 324 433 432
3 196 432 433
3 196 433 434
3 433 324 316
3 434 435 196
3 196 435 188
3 435 434 436
3 436 437 435
3 433 438 434
3 436 434 438
3 439 438 433
3 439 433 440
3 433 316 320
3 433 320 440
3 176 188 435
3 437 176 435
3 436 441 437
3 176 437 441
3 442 436 438
3 438 439 442
3 442 441 436
3 443 439 440
3 439 443 442
3 313 444 320
3 320 444 440
3 444 443 440
3 313 7 444
3 175 176 441
3 442 445 441
3 175 441 445
3 443 445 442
3 446 443 444
3 446 445 443
3 7 9 444
3 444 9 446
3 10 447 9
3 445 178 175
3 178 445 448
3 446 448 445
3 9 449 446
3 9 447 449
3 446 449 448
3 447 10 449
3 12 449 10
3 181 178 450
3 450 111 181
3 448 450 178
3 12 451 449
3 12 286 451
3 452 453 454
3 111 450 455
3 455 109 111
3 455 450 448
3 455 448 449
3 451 453 455
3 455 453 456
3 454 457 452
3 453 451 458
3 459 453 452
3 459 456 453
3 459 452 457
3 402 405 63
3 458 273 280
3 460 103 109
3 455 460 109
3 456 460 455
3 456 461 460
3 459 461 456
3 457 462 459
3 462 457 463
3 458 280 462
3 102 460 461
3 462 464 461
3 102 103 460
3 462 284 465
3 466 98 465
3 267 466 465
3 267 260 466
3 462 465 464
3 267 465 284
3 87 98 467
3 286 458 451
3 464 98 102
3 453 458 463
3 463 458 462
3 466 467 98
3 102 461 464
3 280 284 462
3 286 273 458
3 98 464 465
3 449 451 455
3 462 461 459
3 454 463 457
3 453 463 454
3 118 117 124
3 124 281 127
3 281 124 275
3 133 130 219
3 34 30 223
3 223 30 33
3 172 468 469
3 236 470 234
3 236 469 470
3 470 239 234
3 468 471 469
3 469 471 470
3 468 169 165
3 165 471 468
3 470 369 239
3 470 471 369
3 165 162 471
3 162 369 471
3 472 369 162
3 472 241 369
3 472 244 241
3 162 156 472
3 156 473 472
3 472 473 244
3 156 154 473
3 244 473 247
3 473 154 152
3 247 473 251
3 474 473 152
3 474 251 473
3 152 150 474
3 474 150 144
3 144 475 474
3 251 474 250
3 250 474 475
3 476 252 250
3 475 476 250
3 252 476 350
3 144 476 475
3 350 476 351
3 144 146 476
3 146 145 476
3 353 351 476
3 476 145 353
3 140 353 145
3 345 353 477
3 345 477 214
3 214 477 24
3 140 135 353
3 135 477 353
3 477 135 27
3 172 169 468
3 27 24 477
3 215 24 19
3 478 67 70
3 478 70 376
3 478 376 374
3 478 374 377
3 478 377 380
3 478 380 381
3 478 381 366
3 478 366 367
3 478 373 367
3 478 373 370
3 478 370 224
3 478 224 225
3 478 225 227
3 478 227 232
3 478 232 236
3 478 236 469
3 478 469 172
3 478 172 170
3 478 170 171
3 478 171 168
3 478 168 71
3 478 71 67
3 479 72 73
3 479 73 85
3 479 85 113
3 479 113 114
3 479 114 116
3 479 116 118
3 479 118 119
3 479 119 279
3 479 279 277
3 479 277 262
3 479 262 263
3 479 264 263
3 479 264 270
3 479 270 266
3 479 266 261
3 479 261 257
3 479 257 258
3 479 260 258
3 479 260 466
3 479 466 467
3 479 467 87
3 479 87 83
3 479 83 80
3 479 80 81
3 479 81 79
3 479 79 77
3 479 77 75
3 479 75 72
