ply
format ascii 1.0
element vertex 314
property float x
property float y
property float z
element face 624
property list uchar int vertex_indices
end_header
-0.7123768 0.6166904 0.01562097
-0.7017474 0.6181022 0.01118228
-0.7077978 0.611873 0.0256128
-0.6975821 0.6152041 0.02186075
-0.6959909 0.6119683 0.0263535
-0.6869349 0.6169164 0.01740668
-0.6938291 0.6052874 0.03290169
-0.6911946 0.6182076 0.006811012
-0.7048607 0.6019318 0.03781467
-0.6818856 0.6107195 0.02780932
-0.6920778 0.6009214 0.03800309
-0.7005385 0.5968027 0.04823446
-0.6792646 0.6002854 0.03936694
-0.6899738 0.5971104 0.04385286
-0.7500754 0.5873576 0.01970264
-0.7456616 0.5886895 0.03016306
-0.7563787 0.5857843 0.03467881
-0.7402038 0.5916464 0.04014706
-0.7403516 0.5918177 0.02787983
-0.7520886 0.585009 0.04524785
-0.7386079 0.5908862 0.01514671
-0.7368953 0.5903034 0.05113799
-0.7301496 0.5994061 0.03577333
-0.7345363 0.5985366 0.02528926
-0.7328218 0.5924852 0.04939229
-0.7364919 0.6022759 0.01367282
-0.7327607 0.5868807 0.06184385
-0.7259986 0.5962641 0.04646458
-0.7248495 0.6026143 0.03349176
-0.7318429 0.6025389 0.02406502
-0.7219328 0.591981 0.05617756
-0.7273986 0.612833 0.009620669
-0.7111351 0.5959492 0.05264435
-0.7171028 0.6023356 0.03691087
-0.722129 0.6124031 0.01977492
-0.7079363 0.5901228 0.06154471
-0.7152482 0.5997379 0.0419197
-0.719224 0.6058635 0.03107438
-0.7167785 0.6155686 0.00514959
-0.6970914 0.5898439 0.05795781
-0.6865425 0.5885593 0.05384733
-0.7307079 0.5901345 0.006241804
-0.7298566 0.6014953 0.006101651
-0.7174941 0.6033902 0.005777963
-0.7183287 0.6120281 0.002072764
-0.7067218 0.607231 0.001214064
-0.7090563 0.6111075 -0.005208588
-0.7063273 0.6139437 0.0008677084
-0.7727524 0.5452088 -0.02717877
-0.7638374 0.5458096 -0.03562329
-0.758539 0.5554271 -0.02462499
-0.7476197 0.5536417 -0.02773778
-0.7181266 0.6004573 0.006204751
-0.720713 0.5892616 0.0007059904
-0.7070061 0.5980998 0.002297813
-0.7096356 0.5881574 -0.003939742
-0.6964333 0.5970651 -0.001802986
-0.695455 0.6104722 -0.002032223
-0.7030361 0.6110011 -0.0004145861
-0.7356716 0.5430575 -0.02664326
-0.7306199 0.5428913 -0.02411043
-0.7324652 0.555069 -0.02404652
-0.7213976 0.5537711 -0.02403884
-0.7345273 0.5348714 -0.0222741
-0.7215966 0.5424533 -0.02232313
-0.7099507 0.5529938 -0.0260671
-0.7101926 0.5416732 -0.02445482
-0.717559 0.5703729 -0.01794257
-0.7081149 0.5633498 -0.02121374
-0.7036282 0.5760196 -0.0151867
-0.7020742 0.5806282 -0.0123083
-0.7124929 0.5828049 -0.00805488
-0.7151163 0.5767941 -0.01325818
-0.7192607 0.5652167 -0.02107315
-0.7272136 0.5762073 -0.01254423
-0.7229646 0.5840771 -0.003754675
-0.7308379 0.5659854 -0.01935934
-0.7375734 0.5770073 -0.007880527
-0.7335272 0.5838041 0.0006252392
-0.7427287 0.5651832 -0.01810262
-0.744392 0.5823709 0.004684093
-0.7533771 0.5667045 -0.01428034
-0.7489131 0.5752269 -0.005095698
-0.8466609 0.5270761 0.03668112
-0.8479816 0.5298946 0.03292629
-0.8503701 0.5303034 0.0381287
-0.856689 0.5358944 0.04059187
-0.8400022 0.5289609 0.02188978
-0.8503116 0.5387328 0.0255504
-0.8568252 0.5425726 0.03948242
-0.8502405 0.5428385 0.02528699
-0.8423647 0.5400379 0.01461791
-0.8454257 0.5480972 0.03559649
-0.8391523 0.5491598 0.02064667
-0.8329098 0.5510754 0.01801031
-0.83481 0.5492742 0.03116991
-0.778062 0.5757384 0.04392883
-0.7823843 0.5759639 0.03338806
-0.7659777 0.5819733 0.03875633
-0.770179 0.5817317 0.02817808
-0.7885736 0.5722371 0.03605164
-0.7735671 0.5784486 0.05431792
-0.7870398 0.5714824 0.02310739
-0.7605878 0.5821794 0.04884323
-0.7761748 0.5759444 0.01849394
-0.7608304 0.5838116 0.02425144
-0.7977924 0.5608166 0.02854919
-0.7585409 0.5809007 0.06035482
-0.7792756 0.5704513 0.01203118
-0.7633137 0.5812759 0.01871332
-0.7916934 0.5651137 0.01288937
-0.7934912 0.5664258 0.03824594
-0.7494473 0.5832266 0.05652709
-0.8022814 0.5605711 0.01739633
-0.7810009 0.5675979 0.008395459
-0.7971907 0.5599316 0.002615631
-0.8131211 0.5594154 0.02191498
-0.8069631 0.5585158 0.007066405
-0.7864451 0.5596206 -0.003275474
-0.8122457 0.5500795 -0.004123301
-0.8176914 0.5554199 0.01159209
-0.7904456 0.5544375 -0.01198369
-0.8176153 0.5492167 -0.0005941782
-0.8010758 0.5530123 -0.007544314
-0.8235836 0.5506752 0.02626576
-0.7791474 0.5566632 -0.01495672
-0.8149992 0.5372465 -0.008316593
-0.8039064 0.5477506 -0.013396
-0.8219563 0.5483372 0.002610969
-0.8284031 0.5526119 0.0161027
-0.7832366 0.5460495 -0.02282497
-0.8247318 0.5381367 -0.002147238
-0.8306249 0.5505846 0.01110057
-0.8011446 0.547264 -0.01968308
-0.7913492 0.5464802 -0.02371653
-0.805434 0.5363452 -0.01488999
-0.8332536 0.5438488 0.006025818
-0.7951372 0.5483795 -0.02220026
-0.7833847 0.534735 -0.02098606
-0.7954133 0.535474 -0.02036333
-0.7956433 0.5467636 -0.02311527
-0.7952917 0.5457506 -0.02206462
-0.7689461 0.5560301 -0.02003752
-0.7644229 0.5645469 -0.01070795
-0.7622573 0.5685096 -0.006219129
-0.7719566 0.5339565 -0.02306
-0.7595273 0.5740747 -0.0006702952
-0.7750966 0.5623809 -0.006230344
-0.7708163 0.5696643 0.003727806
-0.7809887 0.5247464 -0.01322662
-0.7654648 0.5787263 0.01398468
-0.7708289 0.5293138 -0.01941906
-0.7555733 0.5807826 0.009442757
-0.8282447 0.5168275 0.02344026
-0.8204566 0.5158257 0.01372089
-0.8303399 0.5196501 0.01780344
-0.8252395 0.5261625 0.002117017
-0.8135264 0.5206056 -0.001506472
-0.8334777 0.5290336 0.008359917
-0.8098922 0.5146272 0.008480639
-0.8147877 0.5259557 -0.005609223
-0.8341523 0.5390475 0.004775994
-0.8369097 0.5393584 0.007661789
-0.8040616 0.525131 -0.009378073
-0.7698061 0.572512 0.0627533
-0.7781833 0.5726758 0.05638631
-0.7897057 0.572827 0.04619519
-0.7895977 0.5590261 0.04933286
-0.7926265 0.5731964 0.05002735
-0.7853054 0.5731169 0.05682512
-0.7881169 0.5842494 0.04783471
-0.7866348 0.5843338 0.05141707
-0.7053382 0.5805012 0.0697238
-0.7057537 0.5691693 0.07091634
-0.7188147 0.5818693 0.06953408
-0.7694883 0.5421658 0.04129535
-0.7709648 0.5370847 0.03869674
-0.7800568 0.5434622 0.04553988
-0.7588715 0.5433625 0.03686766
-0.7777561 0.5494734 0.04977496
-0.7610362 0.5362074 0.0330011
-0.7567455 0.5477948 0.04116975
-0.7897545 0.5501505 0.0492317
-0.7666225 0.5486755 0.04699016
-0.7512968 0.5353176 0.02684779
-0.7479358 0.5463998 0.0328568
-0.7924824 0.5387299 0.04607725
-0.7749391 0.5551003 0.05552263
-0.7435298 0.551185 0.04262723
-0.7540851 0.5510329 0.04700092
-0.8041435 0.5529686 0.04496962
-0.7646165 0.5512893 0.05135354
-0.7378953 0.5413744 0.02823866
-0.733085 0.5494516 0.03835084
-0.7790689 0.5613446 0.0570619
-0.7729433 0.5610952 0.05920482
-0.7360518 0.5460953 0.03179852
-0.7389684 0.5550238 0.05295831
-0.749429 0.5564855 0.05724885
-0.7615373 0.5599661 0.06298568
-0.7179993 0.5495172 0.04482768
-0.7233459 0.5452635 0.03477102
-0.7240596 0.5554778 0.0590983
-0.7457762 0.560848 0.06527216
-0.753889 0.5719259 0.06952078
-0.7085492 0.5456879 0.03871189
-0.734313 0.5590608 0.06291731
-0.7136841 0.5525705 0.05488256
-0.7031795 0.5518575 0.0505535
-0.7214603 0.5583613 0.0648503
-0.7095349 0.5586348 0.06378067
-0.7297981 0.5635151 0.07357859
-0.7397451 0.5714936 0.07725082
-0.692651 0.5515499 0.04620365
-0.7435548 0.5827127 0.06664212
-0.7003943 0.5566863 0.05637935
-0.6976268 0.5443783 0.03551367
-0.719366 0.5615683 0.06931332
-0.726644 0.5708559 0.07981221
-0.7293033 0.5812683 0.07133082
-0.6906638 0.5557959 0.05020479
-0.7163771 0.5700009 0.0749336
-0.6983476 0.5603024 0.06064703
-0.6954037 0.5683198 0.06623857
-0.8541714 0.5423229 0.04545696
-0.8416675 0.5416714 0.04707098
-0.8305334 0.5482686 0.04175106
-0.8182589 0.5504283 0.03661111
-0.8261707 0.5487253 0.05225665
-0.8156067 0.5490266 0.04787526
-0.8089661 0.5563385 0.032603
-0.8098026 0.5511316 0.0454152
-0.7975748 0.5615553 0.04006907
-0.685551 0.578742 0.05816275
-0.8421178 0.5304038 0.04701294
-0.8320782 0.5415118 0.05489878
-0.8365476 0.5197047 0.03269561
-0.8321713 0.5203949 0.04318926
-0.8300699 0.5172774 0.03008023
-0.8274602 0.530118 0.05274081
-0.8245385 0.5412123 0.0576807
-0.8262311 0.5157896 0.0285319
-0.8223408 0.5176546 0.03761699
-0.816946 0.5292838 0.04845854
-0.8148523 0.540319 0.05139877
-0.8039299 0.5395072 0.04810365
-0.8158165 0.5135452 0.02428175
-0.8115532 0.5167045 0.03402121
-0.8065411 0.5288711 0.04382902
-0.7959995 0.5271139 0.04051972
-0.7126707 0.5379077 0.03021498
-0.7022597 0.5356022 0.02596798
-0.8052947 0.5131232 0.0199378
-0.8011963 0.5159848 0.02933508
-0.7901708 0.51724 0.02588877
-0.7849566 0.5252051 0.03700399
-0.7261097 0.5339141 0.02833209
-0.7336894 0.5342749 0.02669122
-0.7145578 0.5331438 0.02655743
-0.7040765 0.5323029 0.02219677
-0.6917945 0.5342166 0.02167375
-0.6936845 0.5314561 0.01762053
-0.8039706 0.5145543 0.007026559
-0.7952176 0.5146468 0.01572462
-0.7989585 0.515262 0.004932532
-0.7794804 0.5196922 0.0213964
-0.7839525 0.5173692 0.01098712
-0.7743075 0.5243241 0.03305842
-0.7637493 0.5231857 0.02894237
-0.7398613 0.5345396 0.02479241
-0.7280995 0.5286025 0.02453191
-0.7431831 0.5251732 0.01854533
-0.7176719 0.5265794 0.02027045
-0.7071146 0.5267659 0.01589498
-0.6965172 0.5276291 0.01148461
-0.7009889 0.5253158 0.001074809
-0.7116779 0.5228897 0.005565834
-0.705352 0.5248467 -0.009430129
-0.8029861 0.5205035 -0.005866953
-0.7882822 0.5174711 0.0004526018
-0.7533861 0.522307 0.02430222
-0.7477026 0.5233591 0.02046571
-0.7449932 0.5228968 0.01459186
-0.7327296 0.5235929 0.01426112
-0.722253 0.5224047 0.009956586
-0.7689558 0.5193169 0.01705004
-0.7265807 0.5225387 -0.0005794656
-0.7087176 0.5322673 -0.01904529
-0.7159416 0.5241166 -0.005026732
-0.719633 0.5310256 -0.01640313
-0.7904693 0.5242015 -0.01191354
-0.7732701 0.5196823 0.006501921
-0.7775791 0.5201346 -0.004050552
-0.758432 0.5189329 0.012704
-0.747748 0.5212712 0.008217527
-0.7373348 0.5219117 0.003889334
-0.7307048 0.5261405 -0.01129447
-0.7626815 0.5203972 0.00209931
-0.7662196 0.5227928 -0.009126702
-0.7414234 0.5232101 -0.006777424
-0.7501234 0.5219424 -0.004282326
-0.7333257 0.5319073 -0.0187798
-0.7390167 0.5321611 -0.02034193
-0.7426724 0.5432206 -0.03145378
-0.7454239 0.5289173 -0.01760116
-0.7561848 0.5252643 -0.01304693
-0.7640837 0.5384068 -0.03478323
-0.7469867 0.5325387 -0.02210018
-0.760395 0.5334446 -0.02311797
-0.7493951 0.5351169 -0.02845008
-0.7535848 0.5435067 -0.03833726
-0.6871337 0.565964 0.05680215
-0.6948384 0.5796615 0.06540771
-0.6960784 0.5685728 0.01409415
3 0 1 2
3 1 3 2
3 4 2 3
3 3 1 5
3 2 4 6
3 5 4 3
3 5 1 7
3 2 6 8
3 6 4 9
3 9 4 5
3 10 8 6
3 10 6 9
3 11 8 10
3 10 9 12
3 10 13 11
3 13 10 12
3 14 15 16
3 17 16 15
3 14 18 15
3 19 16 17
3 17 15 18
3 14 20 18
3 21 19 17
3 17 18 22
3 18 20 23
3 21 17 24
3 24 17 22
3 22 18 23
3 20 25 23
3 21 24 26
3 22 27 24
3 22 23 28
3 25 29 23
3 24 30 26
3 30 24 27
3 22 28 27
3 28 23 29
3 29 25 31
3 30 27 32
3 28 33 27
3 28 29 34
3 31 34 29
3 35 30 32
3 27 36 32
3 33 36 27
3 33 28 37
3 34 37 28
3 34 31 38
3 11 35 32
3 36 11 32
3 36 33 8
3 33 37 2
3 34 2 37
3 38 0 34
3 39 35 11
3 36 8 11
3 33 2 8
3 2 34 0
3 13 39 11
3 40 39 13
3 20 41 25
3 25 41 42
3 25 42 31
3 43 44 31
3 31 44 38
3 44 43 45
3 38 44 46
3 45 46 44
3 46 47 38
3 0 38 1
3 48 49 50
3 49 51 50
3 52 53 54
3 54 53 55
3 54 43 52
3 54 55 56
3 45 43 54
3 45 54 56
3 56 57 58
3 42 41 52
3 41 53 52
3 59 60 61
3 61 60 62
3 60 59 63
3 62 60 64
3 62 64 65
3 65 64 66
3 67 68 69
3 69 70 71
3 67 69 72
3 67 73 68
3 55 71 70
3 71 72 69
3 62 65 68
3 67 72 74
3 73 62 68
3 73 67 74
3 71 55 53
3 72 71 75
3 75 74 72
3 62 73 76
3 74 76 73
3 53 75 71
3 75 77 74
3 61 62 76
3 76 74 77
3 53 78 75
3 78 77 75
3 61 76 79
3 77 79 76
3 41 78 53
3 78 80 77
3 79 51 61
3 77 81 79
3 80 78 41
3 80 82 77
3 51 79 81
3 82 81 77
3 80 41 20
3 83 84 85
3 84 86 85
3 83 87 84
3 84 88 86
3 87 88 84
3 88 89 86
3 90 88 87
3 88 90 89
3 87 91 90
3 89 90 92
3 91 93 90
3 92 90 93
3 91 94 93
3 93 95 92
3 93 94 95
3 96 97 98
3 98 97 99
3 100 97 96
3 101 96 98
3 97 102 99
3 98 99 16
3 100 102 97
3 98 103 101
3 99 102 104
3 16 99 105
3 103 98 16
3 106 102 100
3 101 103 107
3 104 102 108
3 104 109 99
3 99 109 105
3 16 105 14
3 16 19 103
3 110 102 106
3 106 100 111
3 107 103 112
3 102 110 108
3 109 14 105
3 112 103 19
3 113 110 106
3 108 110 114
3 113 115 110
3 106 116 113
3 110 115 114
3 113 117 115
3 117 113 116
3 114 115 118
3 119 115 117
3 116 120 117
3 121 118 115
3 122 119 117
3 119 123 115
3 122 117 120
3 120 116 124
3 115 123 121
3 118 121 125
3 126 119 122
3 127 123 119
3 128 122 120
3 129 120 124
3 127 121 123
3 130 125 121
3 131 126 122
3 119 126 127
3 131 122 128
3 120 132 128
3 129 132 120
3 124 94 129
3 127 133 121
3 134 130 121
3 127 126 135
3 131 128 136
3 132 136 128
3 94 132 129
3 94 124 95
3 135 133 127
3 133 137 121
3 138 130 134
3 137 134 121
3 91 136 132
3 91 132 94
3 135 139 133
3 133 140 137
3 139 138 134
3 137 140 134
3 139 141 133
3 141 140 133
3 141 139 134
3 134 140 141
3 81 50 51
3 81 142 50
3 48 50 142
3 143 142 81
3 142 130 48
3 144 143 81
3 143 125 142
3 145 48 130
3 125 130 142
3 146 144 81
3 144 147 143
3 147 125 143
3 130 138 145
3 81 82 146
3 146 148 144
3 148 147 144
3 125 147 118
3 149 145 138
3 80 146 82
3 148 146 150
3 147 148 114
3 118 147 114
3 151 145 149
3 152 146 80
3 108 148 150
3 146 152 150
3 108 114 148
3 20 152 80
3 108 150 104
3 109 150 152
3 14 152 20
3 104 150 109
3 109 152 14
3 153 154 155
3 156 155 154
3 157 156 154
3 156 158 155
3 154 159 157
3 157 160 156
3 161 158 156
3 155 158 87
3 131 156 160
3 158 161 162
3 131 161 156
3 158 91 87
3 162 161 136
3 158 162 91
3 136 161 131
3 91 162 136
3 160 126 131
3 126 160 135
3 135 160 163
3 164 165 101
3 96 101 165
3 164 101 107
3 111 166 167
3 166 168 167
3 166 111 100
3 169 167 168
3 168 166 170
3 166 100 96
3 171 169 168
3 166 96 170
3 168 170 171
3 172 173 174
3 175 176 177
3 176 175 178
3 179 175 177
3 178 180 176
3 181 178 175
3 179 177 182
3 183 175 179
3 178 184 180
3 178 181 185
3 175 183 181
3 186 182 177
3 179 182 167
3 187 183 179
3 185 184 178
3 188 185 181
3 189 181 183
3 182 186 190
3 182 190 167
3 179 167 187
3 191 183 187
3 184 185 192
3 185 188 193
3 181 189 188
3 183 191 189
3 167 194 187
3 191 187 195
3 196 192 185
3 197 193 188
3 193 196 185
3 197 188 189
3 198 189 191
3 195 187 194
3 194 167 169
3 191 195 199
3 200 193 197
3 201 196 193
3 189 198 197
3 191 199 198
3 165 195 194
3 169 165 194
3 199 195 164
3 201 193 200
3 200 197 202
3 203 197 198
3 203 198 199
3 164 195 165
3 204 199 164
3 201 200 205
3 197 206 202
3 200 202 207
3 206 197 203
3 199 204 203
3 204 164 107
3 208 205 200
3 209 202 206
3 210 207 202
3 200 207 208
3 206 203 211
3 212 203 204
3 204 107 112
3 205 208 213
3 202 209 210
3 209 206 211
3 210 208 207
3 203 212 211
3 214 212 204
3 112 214 204
3 215 213 208
3 213 216 205
3 209 217 210
3 209 211 217
3 215 208 210
3 218 211 212
3 214 219 212
3 214 112 21
3 220 213 215
3 173 210 217
3 221 217 211
3 222 215 210
3 211 218 221
3 218 212 219
3 219 214 26
3 112 19 21
3 21 26 214
3 222 220 215
3 210 173 223
3 217 221 173
3 223 222 210
3 224 92 225
3 225 92 226
3 224 89 92
3 226 92 95
3 226 95 227
3 227 95 124
3 228 226 227
3 227 124 116
3 227 229 228
3 116 230 227
3 229 227 231
3 231 227 230
3 230 116 106
3 230 190 231
3 230 106 232
3 230 232 190
3 232 106 111
3 190 232 167
3 232 111 167
3 39 40 233
3 224 86 89
3 85 86 224
3 85 224 225
3 85 225 234
3 234 83 85
3 225 226 235
3 234 225 235
3 226 228 235
3 236 87 83
3 155 87 236
3 83 234 237
3 236 83 237
3 238 236 237
3 239 234 235
3 239 237 234
3 240 235 228
3 240 239 235
3 229 240 228
3 153 155 236
3 153 236 238
3 241 153 238
3 242 238 237
3 242 241 238
3 240 243 239
3 237 239 243
3 243 242 237
3 244 229 231
3 244 240 229
3 244 243 240
3 245 231 190
3 245 244 231
3 190 186 245
3 153 241 246
3 154 153 246
3 243 247 242
3 241 242 247
3 247 246 241
3 245 248 244
3 244 248 243
3 248 247 243
3 249 245 186
3 249 248 245
3 249 186 177
3 205 250 201
3 205 251 250
3 154 246 252
3 252 159 154
3 253 248 249
3 253 247 248
3 246 247 253
3 253 252 246
3 249 254 253
3 177 255 249
3 255 254 249
3 255 177 176
3 256 196 201
3 256 192 196
3 256 257 192
3 250 258 201
3 201 258 256
3 251 259 250
3 250 259 258
3 260 261 251
3 251 261 259
3 252 262 159
3 216 251 205
3 157 159 262
3 263 253 254
3 263 252 253
3 263 262 252
3 263 264 262
3 263 254 265
3 265 266 263
3 176 267 255
3 254 255 267
3 267 265 254
3 176 268 267
3 180 268 176
3 257 269 192
3 192 269 184
3 256 270 257
3 269 257 270
3 271 269 270
3 272 258 259
3 258 272 256
3 256 272 270
3 273 259 261
3 261 274 273
3 259 273 272
3 274 275 276
3 276 273 274
3 275 277 276
3 216 260 251
3 160 157 278
3 266 279 263
3 263 279 264
3 184 280 180
3 180 280 268
3 271 281 269
3 281 184 269
3 281 280 184
3 271 282 281
3 283 271 270
3 278 163 160
3 282 271 283
3 284 272 273
3 273 276 284
3 267 285 265
3 270 284 283
3 286 284 276
3 287 288 277
3 276 288 286
3 287 289 288
3 64 289 287
3 135 163 290
3 290 278 279
3 291 292 279
3 282 293 281
3 272 284 270
3 280 293 285
3 291 285 293
3 282 294 293
3 295 283 284
3 284 286 295
3 295 282 283
3 295 294 282
3 288 289 296
3 297 298 292
3 296 286 288
3 286 296 299
3 138 290 149
3 66 64 287
3 295 300 294
3 294 300 293
3 268 285 267
3 301 296 289
3 59 302 63
3 293 300 297
3 303 59 61
3 300 298 297
3 290 163 278
3 304 299 296
3 278 262 264
3 304 300 299
3 151 298 305
3 63 302 301
3 138 139 290
3 301 302 296
3 306 49 48
3 298 149 292
3 285 291 266
3 302 304 296
3 151 149 298
3 59 303 302
3 301 64 60
3 266 265 285
3 303 307 302
3 290 279 292
3 302 307 304
3 303 61 51
3 285 268 280
3 63 301 60
3 308 151 305
3 279 266 291
3 299 295 286
3 293 280 281
3 301 289 64
3 276 277 288
3 305 298 300
3 149 290 292
3 303 309 307
3 278 264 279
3 295 299 300
3 278 157 262
3 309 308 307
3 305 307 308
3 308 145 151
3 290 139 135
3 303 310 309
3 49 310 51
3 293 297 291
3 310 49 306
3 292 291 297
3 310 306 309
3 304 305 300
3 306 48 145
3 306 308 309
3 304 307 305
3 51 310 303
3 306 145 308
3 31 52 43
3 31 42 52
3 1 38 47
3 47 58 1
3 47 46 58
3 58 7 1
3 45 56 58
3 58 57 7
3 58 46 45
3 171 170 96
3 169 171 96
3 169 96 165
3 311 220 222
3 223 311 222
3 233 311 223
3 223 312 233
3 312 223 173
3 233 312 39
3 312 172 39
3 173 172 312
3 39 172 35
3 174 173 221
3 221 218 174
3 218 219 174
3 172 174 35
3 219 26 174
3 26 30 174
3 30 35 174
3 313 7 5
3 313 57 7
3 313 56 57
3 313 55 56
3 313 70 55
3 313 69 70
3 313 68 69
3 313 65 68
3 313 66 65
3 313 287 66
3 313 277 287
3 313 275 277
3 313 274 275
3 313 261 274
3 313 260 261
3 313 216 260
3 313 213 216
3 313 220 213
3 313 311 220
3 313 233 311
3 313 40 233
3 313 13 40
3 313 12 13
3 313 9 12
3 313 5 9
