ply
format ascii 1.0
element vertex 329
property float x
property float y
property float z
element face 654
property list uchar int vertex_indices
end_header
0.8431507 0.4782539 0.07288159
0.8308263 0.4789734 0.07278991
0.8301731 0.4804054 0.07092512
0.8275403 0.4791283 0.07204973
0.8574127 0.4776621 0.07765369
0.8552435 0.4743094 0.07303685
0.8499593 0.4779695 0.0751245
0.8445528 0.4499102 -0.008139723
0.8407823 0.4510834 -0.01752421
0.8359749 0.4525726 -0.004661288
0.829949 0.4546486 -0.01454742
0.8240793 0.4604487 4.821658E-05
0.8362593 0.4603441 -0.03030817
0.8370519 0.4518244 0.00456492
0.8270699 0.4635271 -0.02559248
0.8508476 0.4513383 -0.02310843
0.8283268 0.4589463 0.01065486
0.8374437 0.4739544 -0.03078853
0.819718 0.4600123 -0.0104586
0.8458732 0.4612132 -0.03299057
0.8178158 0.4595516 0.01498952
0.830412 0.4532738 0.01682094
0.8160965 0.4645342 -0.02013189
0.8141538 0.4748122 -0.02684693
0.8101806 0.464861 -0.006642611
0.8182151 0.4540017 0.01703774
0.8052055 0.4663042 -0.01694645
0.7447742 0.514896 0.006721664
0.7543492 0.514109 0.002805609
0.7598498 0.5180534 0.01274153
0.7504744 0.5014158 -0.006793857
0.7654865 0.5082818 -0.001649312
0.7643245 0.513947 0.01100124
0.7621077 0.5016496 -0.008565732
0.775835 0.5049161 -0.005841423
0.7604893 0.4970267 -0.01159771
0.7699794 0.5109603 0.008741792
0.7734852 0.5008677 -0.01076103
0.7739889 0.5144013 0.01780983
0.7855095 0.5014936 -0.01165991
0.780395 0.5087364 0.004490763
0.7703657 0.4912858 -0.01647479
0.7847438 0.513327 0.01415932
0.790867 0.5074665 0.000190395
0.7962019 0.5003343 -0.01544549
0.7952744 0.5124645 0.009922895
0.801339 0.506199 -0.004109893
0.8077579 0.4985709 -0.01925154
0.8067212 0.5112256 0.005727176
0.8118001 0.5047454 -0.008400812
0.822211 0.5024382 -0.01264766
0.8166386 0.5102153 0.002286791
0.8268281 0.5072274 -0.00236543
0.8180396 0.4965301 -0.02162994
0.8371243 0.502971 -0.006511587
0.8317603 0.4983235 -0.01863461
0.8293869 0.5097296 0.003362515
0.8270935 0.4873419 -0.02783448
0.843117 0.4962847 -0.02120317
0.8359196 0.4848478 -0.02884517
0.8520669 0.5036461 -0.0003575973
0.8577997 0.4957185 -0.01489558
0.8416957 0.5069819 0.003810591
0.8536101 0.4857349 -0.02583718
0.8623461 0.4994501 -0.004532399
0.868186 0.4955051 -0.006842382
0.8667308 0.5002857 0.005953494
0.8678681 0.4877267 -0.01882252
0.8722616 0.495814 0.00378584
0.8654734 0.4833719 -0.02379142
0.8724709 0.492272 -0.008527914
0.8767866 0.491935 0.002018479
0.8716804 0.4973015 0.01732406
0.8719389 0.4831679 -0.02038337
0.8619183 0.4713889 -0.02787535
0.8820722 0.4826329 -0.01223963
0.8810134 0.4845453 0.01297741
0.8857939 0.4822473 -0.001446058
0.8748357 0.4858779 0.02804706
0.8775525 0.4718863 -0.02258741
0.8893038 0.4705602 0.00885219
0.8825311 0.4723465 0.02248646
0.8894367 0.4710011 -0.01497093
0.8924128 0.471398 -0.003889972
0.8771065 0.4718604 0.03863576
0.8933688 0.460853 0.02018983
0.8954976 0.4603841 0.007457346
0.887434 0.4616425 0.03511114
0.8954366 0.459754 -0.004824254
0.8938769 0.4491118 0.008435729
0.8975909 0.4494497 0.01921305
0.8848139 0.449225 -0.0001123154
0.8929954 0.4407277 0.02135335
0.8887845 0.4428507 0.01071447
0.8739083 0.4429522 0.004545852
0.8779442 0.438464 0.01324788
0.8703768 0.4496461 -0.006659633
0.8831025 0.4390625 0.02630924
0.8631703 0.4395279 0.00907477
0.8592156 0.4461756 -0.001783581
0.8672343 0.43507 0.01984754
0.854614 0.4511698 -0.01124708
0.8733439 0.4862304 0.04057109
0.8710588 0.4754983 0.05125801
0.8757874 0.4866699 0.05187168
0.7590528 0.4901436 -0.01374878
0.7582127 0.4787838 -0.01358205
0.7686329 0.4779389 -0.01808989
0.8907382 0.4594949 -0.01519601
0.8819573 0.4595625 -0.02388677
0.880613 0.4513569 -0.01078253
0.8764864 0.4549153 -0.02149526
0.8753024 0.4598789 -0.02533534
0.8658364 0.4531527 -0.0170386
0.8620243 0.4582002 -0.02874131
0.8493648 0.4725376 -0.03082846
0.8253367 0.4740175 -0.02951184
0.815126 0.4861807 -0.02669481
0.8031032 0.4756155 -0.02386113
0.8032626 0.4869305 -0.0256727
0.790074 0.4878252 -0.02335338
0.7949573 0.4644972 -0.0128976
0.7904611 0.4763947 -0.02315941
0.7792609 0.4771076 -0.02209608
0.7798978 0.4658187 -0.0188679
0.7809673 0.4892985 -0.02032056
0.7690473 0.4663313 -0.01482794
0.7608653 0.466711 -0.02325028
0.7586866 0.4663482 -0.01001479
0.8565314 0.5061916 0.01001446
0.8721995 0.4776954 0.05360164
0.8701733 0.4757173 0.05449437
0.8684981 0.4640249 0.04726902
0.8738043 0.4756792 0.05789044
0.8613285 0.4721715 0.05825258
0.8785722 0.4631572 0.04192456
0.8657762 0.4740798 0.06868313
0.850563 0.4684398 0.0628107
0.8763229 0.4740842 0.06431698
0.8684083 0.4768551 0.07453579
0.8777845 0.4759414 0.06750515
0.8781112 0.4757172 0.06353226
0.8765506 0.4779586 0.06411707
0.8523246 0.4435022 0.03811374
0.8523292 0.441034 0.0258551
0.8468295 0.4467844 0.02797492
0.8425214 0.4472507 0.01742156
0.8568427 0.4377068 0.02407738
0.8372722 0.4551018 0.03122718
0.8537299 0.4406071 0.0144961
0.7505311 0.4693292 0.03089626
0.7359006 0.4703326 0.02418045
0.74046 0.4803498 0.03501666
0.7411265 0.4587932 0.02210838
0.7485111 0.458598 0.0267356
0.7455629 0.4544012 0.02039168
0.7556859 0.4582633 0.02841986
0.7574899 0.4562509 0.01540394
0.7643909 0.4694175 0.03321965
0.7626856 0.4580004 0.03129633
0.7604713 0.4548464 0.02653216
0.7706698 0.4576995 0.03455644
0.7706736 0.4489883 0.0224685
0.7751465 0.4513218 0.03287723
0.7773319 0.4574339 0.03699693
0.7854877 0.4478327 0.02869148
0.7802982 0.4450461 0.01663052
0.7756274 0.443936 0.008231596
0.8652991 0.4408773 0.04593853
0.8610613 0.4357139 0.03470934
0.8869357 0.4432983 0.03611553
0.877703 0.4398084 0.04185089
0.8796235 0.4519217 0.04666051
0.8956984 0.4501628 0.03087792
0.8678226 0.4526756 0.04783342
0.8904667 0.4511046 0.04317397
0.832204 0.4511468 0.02158631
0.7719218 0.438323 -0.002405414
0.7629568 0.4450096 0.001123496
0.7879596 0.4428759 0.004308847
0.8484424 0.453382 0.03945135
0.7917348 0.4484527 0.01376467
0.8415624 0.4652843 0.04215697
0.8357757 0.4700573 0.056564
0.8461902 0.4678091 0.05231411
0.840197 0.4715128 0.06701803
0.8568749 0.4653217 0.04765195
0.8562604 0.4533611 0.04795039
0.8272252 0.4643578 0.03690624
0.831444 0.470124 0.04603146
0.8245074 0.4544162 0.0322376
0.8185657 0.4669253 0.0387485
0.8210749 0.4731421 0.05024145
0.8216376 0.4508082 0.02596967
0.8119148 0.4536178 0.03179004
0.8254405 0.4736511 0.06074429
0.8107696 0.478764 0.05507607
0.8035153 0.4674008 0.03869163
0.8062015 0.4732916 0.04407029
0.8190171 0.4791753 0.06325263
0.8006387 0.455855 0.03452466
0.7959809 0.4795312 0.04864226
0.7961454 0.4497251 0.02422815
0.7906256 0.4666028 0.03873093
0.789286 0.4566901 0.03619445
0.7811775 0.4802893 0.0419229
0.7777249 0.4687645 0.03575015
0.7666548 0.4815145 0.03463778
0.7708128 0.46909 0.03418665
0.7536372 0.4815452 0.03472564
0.757167 0.4920024 0.04126603
0.7465819 0.4928781 0.04536804
0.7352617 0.4904843 0.04831997
0.737832 0.4948713 0.0537093
0.7269823 0.4956878 0.05717972
0.7247994 0.4919139 0.05261198
0.7201419 0.495948 0.05442993
0.8747505 0.4873047 0.06299529
0.8673878 0.4880923 0.06987393
0.8668656 0.4926194 0.06772654
0.8703848 0.4972342 0.02917212
0.860815 0.5053084 0.02058933
0.8565692 0.4888262 0.07177486
0.8556886 0.4818843 0.07264601
0.8656776 0.4992844 0.06354644
0.8565525 0.5002146 0.07118274
0.8733454 0.4982512 0.05244623
0.8650019 0.5027744 0.0312492
0.8698954 0.4992734 0.04164302
0.8509279 0.5089229 0.01225964
0.8553611 0.5092032 0.02274085
0.8299267 0.476213 0.07114143
0.8364745 0.5094443 0.005904876
0.8440176 0.5091621 0.009026065
0.8399243 0.4896157 0.0681217
0.8433461 0.500876 0.06896052
0.8531969 0.513262 0.060498
0.8620853 0.5090184 0.05693432
0.8600727 0.5103137 0.04711165
0.8563963 0.5107775 0.03459347
0.8462883 0.5113558 0.01411392
0.8506833 0.5123672 0.02459103
0.8314435 0.5119859 0.007918177
0.8360968 0.5173942 0.01816813
0.8295237 0.4901921 0.06744678
0.8219187 0.4903448 0.06174691
0.8338232 0.5012758 0.06586409
0.8489555 0.5148687 0.04988597
0.844813 0.5181557 0.03918727
0.8404835 0.5182618 0.02865246
0.8134022 0.4906614 0.05818245
0.8210962 0.5153779 0.01210905
0.8257238 0.5203462 0.0223817
0.8199779 0.5019022 0.0622351
0.8147599 0.5020555 0.0592656
0.80479 0.4910803 0.05649355
0.8237988 0.5194972 0.04784966
0.8195412 0.5208275 0.03725189
0.7985513 0.4912144 0.05198748
0.8153017 0.5224622 0.02663824
0.8106617 0.5172817 0.01637654
0.8128536 0.5131469 0.05236243
0.8085299 0.5021831 0.05464269
0.7988538 0.502539 0.05052166
0.8088554 0.5184551 0.04173998
0.8046939 0.521421 0.03105785
0.7922254 0.5028526 0.04904967
0.7949564 0.4912321 0.04823615
0.7804537 0.491789 0.04251345
0.8001395 0.5176955 0.02072107
0.7979042 0.5139457 0.04659304
0.7940935 0.5205022 0.03547095
0.7896202 0.5181584 0.02506287
0.784815 0.5034208 0.05162223
0.7761402 0.5001462 0.05578205
0.7709944 0.493095 0.04465537
0.7861578 0.5147057 0.05057171
0.7834321 0.5185418 0.03993788
0.7791054 0.5186938 0.02940102
0.777618 0.5168929 0.05611677
0.7781729 0.5042394 0.059923
0.7674596 0.505065 0.06372338
0.7656389 0.5009159 0.06010823
0.759657 0.5054584 0.06246055
0.7610035 0.4958133 0.0498422
0.772902 0.5188233 0.04428927
0.7686002 0.5193955 0.03373073
0.7624836 0.5210011 0.04854259
0.7664506 0.5165047 0.05963728
0.7538174 0.5056977 0.06044854
0.7506441 0.4989973 0.05404384
0.7643452 0.5207722 0.02313058
0.7580277 0.5189537 0.03811922
0.7474894 0.5190932 0.04247794
0.7504557 0.5175708 0.05436045
0.7458466 0.5059283 0.05584077
0.7309601 0.4910663 0.03776081
0.7540547 0.5251279 0.02727151
0.7465977 0.528141 0.03111062
0.7373316 0.5285069 0.04595866
0.7398671 0.5176147 0.05423259
0.7389768 0.5062514 0.05427875
0.7273236 0.507015 0.05580779
0.7493771 0.5264048 0.01684912
0.7395358 0.5313104 0.02078931
0.7334971 0.5342394 0.0355332
0.7258511 0.5295275 0.04785776
0.7267559 0.5252094 0.05089403
0.7251909 0.5184193 0.05311109
0.8715522 0.4347685 0.03039243
0.8486755 0.4462843 0.002576494
0.8084487 0.4542398 0.01864261
0.8026343 0.4661656 0.009343462
0.7959814 0.4550394 0.0118271
0.8018295 0.4657583 0.004938554
0.8138258 0.4650214 0.004197387
0.7952127 0.4544659 -0.000163068
0.7994421 0.465064 -0.002202883
0.7844242 0.4422337 -0.007687491
0.7804669 0.4432729 -0.01259339
0.7934574 0.4539713 -0.01174691
0.7710011 0.455768 -0.002499928
0.7692906 0.4440681 -0.00991164
0.7804894 0.4536404 -0.01882497
0.7675166 0.4574018 0.01143338
0.7630453 0.4667391 0.0004941769
0.7698848 0.4553192 -0.01247004
0.7520462 0.4577922 0.005584655
0.7414329 0.4947696 0.02249897
3 0 1 2
3 1 3 2
3 4 5 6
3 7 8 9
3 8 10 9
3 9 10 11
3 12 10 8
3 13 9 11
3 12 14 10
3 12 8 15
3 13 11 16
3 12 17 14
3 10 14 18
3 19 12 15
3 11 20 16
3 21 13 16
3 19 17 12
3 18 14 22
3 16 20 21
3 23 22 14
3 18 22 24
3 21 20 25
3 22 26 24
3 27 28 29
3 28 30 31
3 29 28 32
3 31 30 33
3 28 31 32
3 31 33 34
3 33 30 35
3 31 36 32
3 34 33 37
3 36 31 34
3 33 35 37
3 32 36 38
3 34 37 39
3 34 40 36
3 37 35 41
3 38 36 40
3 37 41 39
3 40 34 39
3 40 42 38
3 39 43 40
3 42 40 43
3 43 39 44
3 43 45 42
3 44 46 43
3 45 43 46
3 46 44 47
3 46 48 45
3 47 49 46
3 46 49 48
3 47 50 49
3 49 51 48
3 52 49 50
3 47 53 50
3 51 49 52
3 52 50 54
3 50 53 55
3 56 51 52
3 54 50 55
3 56 52 54
3 57 55 53
3 54 55 58
3 57 59 55
3 58 60 54
3 59 58 55
3 58 61 60
3 62 54 60
3 59 63 58
3 61 64 60
3 58 63 61
3 64 61 65
3 66 60 64
3 61 63 67
3 65 61 67
3 68 64 65
3 66 64 68
3 63 69 67
3 67 70 65
3 68 65 71
3 72 66 68
3 67 69 73
3 63 74 69
3 70 67 75
3 71 65 70
3 76 68 71
3 72 68 76
3 75 67 73
3 69 74 73
3 71 70 75
3 76 71 77
3 72 76 78
3 75 73 79
3 74 79 73
3 75 77 71
3 77 80 76
3 78 76 81
3 75 79 82
3 77 75 82
3 76 80 81
3 77 83 80
3 78 81 84
3 82 83 77
3 80 85 81
3 80 83 86
3 81 87 84
3 83 82 88
3 81 85 87
3 80 86 85
3 83 88 86
3 85 86 89
3 88 89 86
3 85 89 90
3 88 91 89
3 90 89 92
3 89 91 93
3 92 89 93
3 91 94 93
3 94 95 93
3 91 96 94
3 97 93 95
3 94 98 95
3 96 99 94
3 95 98 100
3 99 98 94
3 99 96 101
3 102 103 104
3 102 84 103
3 102 78 84
3 105 35 30
3 105 106 41
3 35 105 41
3 41 106 107
3 88 82 108
3 109 108 82
3 88 108 91
3 108 109 110
3 82 79 109
3 91 108 110
3 110 109 111
3 109 79 112
3 91 110 96
3 109 112 111
3 111 113 110
3 74 112 79
3 113 96 110
3 112 113 111
3 74 114 112
3 112 114 113
3 115 114 74
3 115 19 114
3 115 74 63
3 17 19 115
3 115 63 59
3 17 115 59
3 116 17 59
3 17 116 14
3 57 116 59
3 14 116 23
3 57 23 116
3 117 23 57
3 53 117 57
3 117 118 23
3 117 53 47
3 22 23 118
3 119 118 117
3 119 117 47
3 118 26 22
3 118 119 120
3 119 47 44
3 118 121 26
3 44 120 119
3 120 122 118
3 118 122 121
3 120 44 39
3 123 122 120
3 122 124 121
3 125 120 39
3 120 125 123
3 122 123 124
3 39 41 125
3 125 107 123
3 124 123 107
3 41 107 125
3 107 126 124
3 127 126 107
3 126 127 128
3 113 101 96
3 15 101 113
3 113 114 15
3 19 15 114
3 101 8 7
3 72 129 66
3 129 60 66
3 130 103 131
3 103 132 131
3 130 131 133
3 132 134 131
3 132 103 84
3 133 131 134
3 84 135 132
3 133 134 136
3 84 87 135
3 136 134 137
3 133 136 138
3 137 5 136
3 139 138 136
3 4 136 5
3 139 136 4
3 140 138 139
3 141 138 140
3 142 140 139
3 141 133 138
3 142 141 140
3 142 133 141
3 143 144 145
3 146 145 144
3 143 147 144
3 143 145 148
3 146 148 145
3 149 146 144
3 147 149 144
3 150 151 152
3 153 151 150
3 154 153 150
3 154 155 153
3 156 154 150
3 157 155 154
3 156 150 158
3 159 156 158
3 159 160 156
3 161 159 158
3 157 156 160
3 162 160 159
3 162 159 161
3 162 161 163
3 164 163 161
3 162 163 165
3 164 165 163
3 165 166 162
3 166 167 162
3 168 169 143
3 170 97 171
3 92 97 170
3 170 171 172
3 92 170 173
3 172 171 174
3 170 172 175
3 173 170 175
3 90 92 173
3 174 171 168
3 146 176 148
3 167 177 178
3 177 167 179
3 148 180 143
3 181 179 166
3 182 183 184
3 185 184 183
3 182 184 186
3 137 184 185
3 180 182 186
3 137 186 184
3 180 148 182
3 187 180 186
3 134 186 137
3 148 188 182
3 187 186 132
3 132 186 134
3 182 188 189
3 188 148 190
3 132 174 187
3 188 191 189
3 148 176 190
3 190 191 188
3 174 132 135
3 191 192 189
3 190 176 193
3 190 194 191
3 135 172 174
3 195 189 192
3 192 191 196
3 190 193 194
3 191 194 197
3 172 135 87
3 196 191 198
3 192 196 199
3 197 194 200
3 197 198 191
3 175 172 87
3 198 201 196
3 202 200 194
3 200 203 197
3 198 197 201
3 87 173 175
3 202 204 200
3 201 197 203
3 200 204 203
3 85 173 87
3 202 165 204
3 203 205 201
3 204 164 203
3 85 90 173
3 204 165 164
3 166 165 202
3 203 206 205
3 164 206 203
3 202 181 166
3 206 207 205
3 206 164 161
3 206 208 207
3 161 208 206
3 208 158 207
3 158 208 161
3 207 158 150
3 150 209 207
3 150 152 209
3 209 210 207
3 210 209 152
3 152 211 210
3 152 212 211
3 212 213 211
3 213 212 214
3 214 212 215
3 214 215 216
3 217 133 142
3 217 130 133
3 142 139 217
3 139 218 217
3 219 217 218
3 220 72 78
3 220 78 102
3 103 130 104
3 104 130 217
3 221 129 72
3 221 72 220
3 182 189 183
3 137 6 5
3 0 185 1
3 137 185 0
3 137 0 6
3 218 222 219
3 139 223 218
3 139 4 223
3 223 222 218
3 4 6 223
3 224 217 219
3 225 224 219
3 225 219 222
3 226 104 217
3 224 226 217
3 221 220 227
3 228 102 104
3 220 102 228
3 226 228 104
3 228 227 220
3 221 229 129
3 60 129 229
3 230 229 221
3 227 230 221
3 185 183 231
3 1 185 231
3 183 189 195
3 231 183 195
3 54 62 232
3 233 62 60
3 233 60 229
3 232 62 233
3 1 231 3
3 234 222 223
3 234 223 6
3 225 222 234
3 0 234 6
3 0 2 234
3 234 235 225
3 225 235 236
3 228 226 237
3 237 226 224
3 238 228 237
3 237 224 225
3 237 225 236
3 228 239 227
3 238 239 228
3 239 230 227
3 230 240 229
3 240 233 229
3 241 240 230
3 239 241 230
3 192 199 195
3 231 195 199
3 199 3 231
3 56 54 232
3 242 56 232
3 232 233 243
3 242 232 243
3 233 240 243
3 244 2 3
3 199 244 3
3 2 244 234
3 199 245 244
3 236 235 246
3 235 234 246
3 234 244 246
3 247 238 237
3 239 238 247
3 247 237 236
3 247 248 239
3 247 236 246
3 240 241 249
3 239 249 241
3 249 243 240
3 248 249 239
3 199 196 245
3 245 196 250
3 242 51 56
3 251 51 242
3 242 243 252
3 252 251 242
3 252 243 249
3 245 250 253
3 246 244 253
3 253 250 254
3 254 250 255
3 250 196 255
3 246 256 247
3 249 248 256
3 253 256 246
3 257 252 249
3 257 249 256
3 196 201 255
3 255 201 258
3 257 259 252
3 48 51 251
3 252 260 251
3 48 251 260
3 259 260 252
3 253 254 261
3 253 261 256
3 255 262 254
3 254 262 261
3 255 258 262
3 262 258 263
3 264 257 256
3 261 264 256
3 257 265 259
3 264 265 257
3 263 258 266
3 258 201 267
3 266 258 267
3 268 267 201
3 201 205 268
3 48 260 269
3 259 269 260
3 269 45 48
3 265 269 259
3 270 261 262
3 261 270 264
3 263 270 262
3 270 263 266
3 264 271 265
3 270 271 264
3 265 272 269
3 271 272 265
3 273 266 267
3 267 268 273
3 266 273 270
3 268 274 273
3 268 275 274
3 207 268 205
3 207 275 268
3 269 42 45
3 272 42 269
3 270 273 276
3 277 271 270
3 276 277 270
3 42 272 278
3 271 278 272
3 277 278 271
3 276 273 279
3 273 274 280
3 279 273 280
3 280 274 281
3 281 274 282
3 281 282 283
3 274 275 284
3 284 282 274
3 275 207 210
3 210 284 275
3 278 38 42
3 285 277 276
3 285 276 279
3 38 278 286
3 277 286 278
3 285 286 277
3 279 287 285
3 288 280 281
3 288 281 283
3 279 280 288
3 288 287 279
3 283 289 288
3 284 290 282
3 284 210 290
3 290 283 282
3 290 289 283
3 290 210 211
3 32 38 291
3 286 291 38
3 291 286 292
3 285 292 286
3 287 292 285
3 287 293 292
3 288 289 294
3 294 287 288
3 294 293 287
3 294 289 295
3 289 290 295
3 211 213 290
3 213 295 290
3 152 296 212
3 29 32 291
3 29 291 297
3 292 297 291
3 298 297 292
3 298 292 293
3 293 299 298
3 300 293 294
3 300 299 293
3 295 301 294
3 294 301 300
3 213 301 295
3 301 213 302
3 302 213 214
3 297 303 29
3 27 29 303
3 298 303 297
3 298 304 303
3 304 298 305
3 298 299 305
3 299 306 305
3 307 306 299
3 300 301 308
3 300 308 299
3 308 301 302
3 299 308 307
3 253 244 245
3 256 248 247
3 171 309 168
3 97 309 171
3 168 309 169
3 97 95 309
3 169 147 143
3 147 169 309
3 309 95 100
3 309 100 147
3 149 147 100
3 98 149 100
3 98 99 149
3 101 310 99
3 101 7 310
3 99 310 149
3 7 9 310
3 149 310 146
3 9 13 310
3 146 310 13
3 13 21 146
3 21 176 146
3 176 21 25
3 25 193 176
3 25 311 193
3 311 194 193
3 194 311 202
3 20 311 25
3 312 311 20
3 311 313 202
3 312 313 311
3 313 181 202
3 314 313 312
3 11 315 20
3 315 312 20
3 314 312 315
3 11 10 18
3 11 18 315
3 179 181 313
3 314 316 313
3 316 179 313
3 314 317 316
3 315 18 24
3 24 314 315
3 24 317 314
3 318 179 316
3 179 318 177
3 318 319 177
3 316 320 318
3 121 317 24
3 317 121 316
3 316 121 320
3 167 178 321
3 177 319 322
3 177 322 178
3 178 322 321
3 323 318 320
3 323 320 121
3 323 319 318
3 322 319 323
3 124 323 121
3 167 324 162
3 324 160 162
3 321 324 167
3 324 157 160
3 324 321 325
3 323 124 326
3 322 323 326
3 321 322 326
3 326 325 321
3 124 126 326
3 327 157 324
3 325 327 324
3 327 155 157
3 326 126 128
3 326 128 325
3 325 128 327
3 24 26 121
3 157 154 156
3 166 179 167
3 15 8 101
3 92 93 97
3 174 168 187
3 143 187 168
3 187 143 180
3 328 27 28
3 328 28 30
3 328 30 105
3 328 105 106
3 328 107 106
3 328 107 127
3 328 127 128
3 328 128 327
3 328 327 155
3 328 155 153
3 328 153 151
3 328 151 152
3 328 152 296
3 328 296 212
3 328 212 215
3 328 215 216
3 328 216 214
3 328 214 302
3 328 302 308
3 328 308 307
3 328 307 306
3 328 306 305
3 328 305 304
3 328 304 303
3 328 303 27
