ply
format ascii 1.0
element vertex 465
property float x
property float y
property float z
element face 926
property list uchar int vertex_indices
end_header
0.2285936 0.6469303 -0.01340542
0.2399789 0.6461489 -0.0155826
0.2330772 0.6352643 -0.006777397
0.2417352 0.6363484 -0.009413016
0.2379234 0.6497417 -0.02127214
0.2489316 0.6454888 -0.02516142
0.2274227 0.6505219 -0.0169465
0.2521746 0.6390032 -0.01455465
0.2337535 0.6525606 -0.03194689
0.2440319 0.6479999 -0.03607726
0.2531656 0.6341818 -0.01121122
0.2626812 0.6383247 -0.01888553
0.2214345 0.6577284 -0.02809073
0.2523678 0.6433786 -0.03940202
0.2585478 0.6417671 -0.02959225
0.2396641 0.647451 -0.04657824
0.2294455 0.6530326 -0.04250034
0.2662566 0.631321 -0.008842031
0.2688431 0.6374974 -0.03373775
0.2644219 0.6360391 -0.0441918
0.27314 0.636836 -0.02317452
0.2770154 0.632228 -0.01286748
0.2844142 0.6320949 -0.02771225
0.2903557 0.620733 -0.008215631
0.286221 0.6319854 -0.01613323
0.288362 0.6319063 -0.015228
0.2877975 0.6330115 -0.01681371
0.3183207 0.6140146 -0.02893105
0.3225388 0.6120143 -0.0182988
0.3119763 0.6117422 -0.01391908
0.3045191 0.5954638 -0.06010715
0.3134588 0.5797256 -0.0625044
0.3191819 0.5943322 -0.05470826
0.3090346 0.6060153 -0.0493256
0.3216843 0.6041321 -0.04237806
0.2939626 0.607469 -0.05683479
0.3137749 0.6104391 -0.03927567
0.2991251 0.6143941 -0.04564315
0.3281949 0.6059426 -0.03401341
0.2939179 0.6186976 -0.04360496
0.3029412 0.6181414 -0.03500117
0.3079712 0.6188088 -0.02477738
0.2890552 0.6225052 -0.04169577
0.2935756 0.6256483 -0.03132885
0.2997543 0.6198207 -0.01519146
0.297905 0.6255406 -0.02079418
0.2813099 0.6314417 -0.03226372
0.2906446 0.6316315 -0.01795472
0.2002169 0.6621496 -0.05529731
0.2046473 0.6637631 -0.04485153
0.1934602 0.6700994 -0.04039342
0.1956961 0.657628 -0.06569441
0.2081967 0.6558534 -0.05842878
0.2058322 0.6463339 -0.07000473
0.1907026 0.646333 -0.07575949
0.1952858 0.6341811 -0.07714112
0.188052 0.6344863 -0.07946439
0.201953 0.6338707 -0.07556439
0.1996186 0.6217511 -0.07817972
0.1840371 0.623127 -0.08289836
0.1843547 0.6126925 -0.08553245
0.2000085 0.6109279 -0.07984564
0.1987228 0.668631 -0.03020779
0.2089814 0.6637349 -0.03432098
0.2028687 0.665401 -0.01951204
0.2147208 0.6573665 -0.04946712
0.2131737 0.6612977 -0.02366592
0.2203402 0.6581095 -0.03886965
0.2250429 0.6518961 -0.05297086
0.2209549 0.6459484 -0.06429344
0.2350413 0.6443841 -0.05763696
0.2614399 0.4635581 0.0118327
0.2675844 0.4685091 -0.003959969
0.2577798 0.4620629 0.000274496
0.2434687 0.4618364 -0.04309109
0.2503167 0.4619235 -0.03360437
0.254557 0.4681606 -0.03552976
0.2552791 0.4621615 -0.02334101
0.2587624 0.4659447 -0.02488612
0.2718848 0.4679093 0.006599754
0.2631647 0.467079 -0.01441555
0.2577061 0.4626023 -0.0120337
0.2357907 0.4731625 -0.05361763
0.2349623 0.4612928 -0.05193777
0.2524171 0.4728041 -0.04162864
0.2264901 0.4733269 -0.06102373
0.225449 0.4620082 -0.06028398
0.2795649 0.4724379 -0.009026652
0.2746443 0.4730061 -0.01669583
0.2476344 0.4729052 -0.04511738
0.257756 0.4727303 -0.03697859
0.216501 0.4726296 -0.06941121
0.2657863 0.4727228 -0.02797856
0.2386052 0.4843946 -0.05401704
0.23027 0.484843 -0.06073409
0.250983 0.4840584 -0.04643638
0.2890596 0.4750117 -0.01302733
0.2699195 0.4763349 -0.02978811
0.2660091 0.4840087 -0.03996288
0.2172852 0.4847294 -0.07180826
0.2849144 0.4782543 -0.02372373
0.2518194 0.495536 -0.04735198
0.2399497 0.495689 -0.05488164
0.2649479 0.4947076 -0.04543164
0.2088792 0.4848679 -0.07869622
0.2177557 0.496128 -0.07321192
0.299763 0.4776824 -0.01753081
0.2807458 0.4832773 -0.0341684
0.2312979 0.4958799 -0.06224762
0.2767318 0.4962755 -0.04508646
0.2100235 0.4961784 -0.07947844
0.2961652 0.4822189 -0.02868595
0.2505547 0.5065956 -0.05271673
0.2624842 0.5086964 -0.05169946
0.2356258 0.5071434 -0.0591011
0.2185823 0.5074583 -0.07240953
0.2912884 0.4914716 -0.040791
0.2417718 0.5069452 -0.05594283
0.2295763 0.507286 -0.06322734
0.2758432 0.5165032 -0.05318482
0.2098115 0.5075974 -0.07970209
0.2487207 0.5191272 -0.05891421
0.2648187 0.517077 -0.05461971
0.2334469 0.5184345 -0.06403933
0.2830454 0.5049129 -0.04832502
0.2192895 0.5188342 -0.07241519
0.2747603 0.528009 -0.05767399
0.2883275 0.5153854 -0.0529517
0.2892312 0.5045493 -0.04832755
0.2090103 0.5190632 -0.07968313
0.3011412 0.5038025 -0.04923712
0.3018521 0.4936271 -0.04307312
0.2349138 0.5287483 -0.06625868
0.2617499 0.5284109 -0.05974622
0.2200891 0.5301704 -0.0730904
0.2507275 0.5289584 -0.0616865
0.274245 0.5390074 -0.06143894
0.2870122 0.5270123 -0.05808111
0.2986773 0.5167473 -0.05475903
0.2063548 0.5314921 -0.08104524
0.2362899 0.5408856 -0.0682632
0.2591901 0.5419651 -0.06460894
0.2208001 0.541521 -0.07358798
0.2813001 0.5386234 -0.0608458
0.2479776 0.5403397 -0.06553175
0.2740148 0.5502969 -0.06419111
0.2867236 0.538298 -0.06097499
0.2989783 0.5262693 -0.05885481
0.221821 0.5528116 -0.07489597
0.24041 0.5520269 -0.06893244
0.2481686 0.551657 -0.06726745
0.2661959 0.5620009 -0.06755495
0.2868244 0.5492933 -0.06347825
0.3102218 0.5272111 -0.05993532
0.2069426 0.553358 -0.08125026
0.2345321 0.55229 -0.07052913
0.2610946 0.5622818 -0.06791879
0.2736209 0.5615757 -0.06733911
0.2884217 0.5608094 -0.06533355
0.2984537 0.5375394 -0.06231853
0.2227407 0.5641356 -0.0756724
0.2347766 0.5636108 -0.07213467
0.2437122 0.5625627 -0.07013462
0.2674734 0.5736769 -0.0686394
0.2987495 0.5488636 -0.06380069
0.3105988 0.5368081 -0.06265969
0.2070569 0.5672915 -0.08035649
0.2613403 0.5736027 -0.06952174
0.2742181 0.5729197 -0.06809323
0.299334 0.5602068 -0.0645856
0.2234433 0.5754878 -0.07614695
0.2352359 0.5749458 -0.07322165
0.2472419 0.5743049 -0.07196961
0.261984 0.5849496 -0.0701633
0.2753409 0.5842982 -0.06757717
0.2893342 0.5721272 -0.06623891
0.3116038 0.5594838 -0.06462488
0.3108629 0.5481303 -0.06421806
0.2238744 0.5868748 -0.07625233
0.2479492 0.5856501 -0.07257178
0.2654802 0.5961743 -0.06992961
0.276261 0.5956635 -0.06755131
0.3000236 0.571557 -0.06511559
0.3142402 0.5707884 -0.06382053
0.2358452 0.5862904 -0.07394617
0.2481802 0.5970518 -0.07262535
0.2886183 0.5939673 -0.06508814
0.2893729 0.5835512 -0.06607406
0.3012043 0.5829392 -0.06446017
0.236736 0.5976538 -0.07399087
0.280004 0.6089151 -0.06306399
0.2652356 0.6107369 -0.06910645
0.2241776 0.5996415 -0.07598498
0.2485906 0.6084217 -0.07308923
0.2080854 0.5988358 -0.07935726
0.2378133 0.6090295 -0.07358536
0.2735773 0.619055 -0.05984257
0.2520646 0.6197417 -0.07103457
0.2845655 0.618706 -0.05134472
0.2117766 0.610377 -0.07712132
0.2240045 0.6097333 -0.07567004
0.24079 0.622946 -0.07150797
0.2670067 0.6191946 -0.06461962
0.262073 0.6193405 -0.0674121
0.2261956 0.6211002 -0.07416587
0.2698761 0.6231626 -0.05842241
0.2499588 0.6317117 -0.06273466
0.2552083 0.626815 -0.06477413
0.2198928 0.6213909 -0.07502247
0.2356785 0.6322193 -0.06916071
0.2744635 0.6273203 -0.04786839
0.2423731 0.6319393 -0.06696302
0.2287142 0.6325709 -0.07027864
0.2598922 0.6318773 -0.05498069
0.2452081 0.636104 -0.06088782
0.2779076 0.6306148 -0.03730232
0.2156447 0.6334834 -0.07340433
0.2304358 0.6379726 -0.06714731
0.2497868 0.6402419 -0.05057202
0.2440711 0.6442196 -0.04831437
0.1816115 0.6001478 -0.08843359
0.1878065 0.5986947 -0.08565037
0.1758535 0.5888578 -0.09250901
0.1799739 0.5887353 -0.09019287
0.1779592 0.5778549 -0.09321823
0.1683938 0.566016 -0.1011218
0.175573 0.5658361 -0.09643121
0.1923255 0.5766738 -0.08541127
0.1683387 0.5546184 -0.1007882
0.1799745 0.5657244 -0.09358408
0.1964117 0.5995915 -0.08236092
0.1709433 0.5431364 -0.09955786
0.181072 0.5542346 -0.09372494
0.1835021 0.5383694 -0.09298283
0.1691615 0.5322248 -0.1013907
0.1921096 0.5658573 -0.08659442
0.1849695 0.5185381 -0.09355655
0.2078222 0.587597 -0.08053921
0.193532 0.5537559 -0.08731949
0.1711925 0.5205042 -0.1000088
0.1960226 0.5308694 -0.08695269
0.1699488 0.5088359 -0.1010959
0.195169 0.5423397 -0.08691216
0.1993044 0.5193145 -0.08586647
0.155289 0.5093402 -0.108017
0.1847629 0.5082856 -0.09489074
0.2073655 0.5418615 -0.08055766
0.1991082 0.5059522 -0.08748806
0.1542603 0.4968126 -0.108119
0.1694416 0.4974589 -0.1008774
0.1842384 0.496911 -0.0946457
0.1544659 0.4867603 -0.1074456
0.1689929 0.4860638 -0.1009451
0.1985963 0.4964527 -0.08717502
0.1836039 0.4855516 -0.09423185
0.1979033 0.4859766 -0.08645134
0.1683901 0.4741858 -0.1002663
0.1828238 0.4742207 -0.0934316
0.1975106 0.4733905 -0.084753
0.2072061 0.4735998 -0.07769641
0.1583884 0.4962911 0.08519319
0.1578693 0.5075616 0.08174285
0.1683439 0.5067202 0.07736566
0.1688072 0.4954461 0.0806815
0.1730001 0.5623393 0.04692343
0.1717671 0.5732425 0.04277622
0.1828461 0.5710276 0.04013425
0.1923917 0.5828431 0.03104166
0.181701 0.5836702 0.03489664
0.1806451 0.5946271 0.0283599
0.1908776 0.5952024 0.02496376
0.1897895 0.6052809 0.02036279
0.1985231 0.627566 0.008515988
0.197627 0.6381799 0.003025675
0.2093081 0.6357681 0.001883639
0.2057197 0.6490121 -0.007828568
0.1865993 0.6276801 0.008263011
0.2111402 0.6262341 0.008185413
0.1954633 0.6483934 -0.004213385
0.2198668 0.63513 -0.002327963
0.1868301 0.6175404 0.01341825
0.2116149 0.6149606 0.01152874
0.1943073 0.6605704 -0.009386554
0.2173058 0.6497142 -0.01138056
0.1999414 0.615723 0.01300958
0.2225268 0.6254528 0.006012337
0.2053945 0.6597694 -0.01228367
0.2147605 0.658855 -0.01933824
0.2007464 0.6044713 0.0171508
0.2114674 0.6036462 0.01336865
0.2233299 0.614559 0.01042428
0.2212709 0.6030219 0.01243528
0.2342654 0.6193988 0.005717619
0.2334126 0.6246386 0.002629215
0.2015255 0.5951607 0.02085183
0.2118674 0.5971887 0.01559529
0.2349013 0.6134319 0.00842153
0.2436629 0.6237825 -0.002289818
0.2237269 0.5916177 0.01550093
0.2354293 0.602162 0.01189344
0.244753 0.6183987 0.001403534
0.2027971 0.5817042 0.02707267
0.2124679 0.5924073 0.01798225
0.2354599 0.5908593 0.01416408
0.2459582 0.6126289 0.00545152
0.2550701 0.6213576 -0.004094407
0.2245702 0.5803688 0.01973454
0.2353717 0.579549 0.01614732
0.2473688 0.6014171 0.01105515
0.2138282 0.5811925 0.02346495
0.1952913 0.5643188 0.03715074
0.2456669 0.5788877 0.01505596
0.2474151 0.5902009 0.01341516
0.258317 0.5991754 0.008100945
0.2568951 0.6118181 0.002191191
0.2643408 0.6223817 -0.005887075
0.2137528 0.5703271 0.02810412
0.2045684 0.5595044 0.03516965
0.2252221 0.5697737 0.02337653
0.2358466 0.5695994 0.0192341
0.1950064 0.5491012 0.04394765
0.2473785 0.5675039 0.01766842
0.2590014 0.5893474 0.01167224
0.2672988 0.600573 0.00513952
0.2157705 0.5474095 0.03487244
0.1835762 0.5611843 0.04381942
0.2052205 0.5482427 0.03894129
0.2364409 0.55701 0.0231231
0.2594314 0.5667665 0.01710393
0.2475729 0.5562119 0.02033437
0.2593501 0.5780659 0.01471134
0.2793356 0.6102337 -0.00295957
0.2785912 0.6214893 -0.00695467
0.184551 0.5499438 0.04837098
0.1949468 0.5377926 0.04600003
0.2257778 0.5578389 0.02704488
0.2592568 0.5554503 0.01887874
0.2706924 0.5885862 0.0102337
0.2799734 0.6055579 -0.0005025263
0.2155797 0.536089 0.03648198
0.1734549 0.5507442 0.05124658
0.1852758 0.5377604 0.0524982
0.2050418 0.5369262 0.04070609
0.22627 0.5465667 0.03043031
0.2368014 0.545729 0.0261908
0.2478915 0.5449283 0.02330044
0.2695044 0.554817 0.01827498
0.271309 0.5685198 0.01656741
0.2735061 0.5772323 0.01467695
0.2810389 0.5990411 0.003351517
0.2898932 0.6112705 -0.00441181
0.1966852 0.5264144 0.04875277
0.2594759 0.5445309 0.02216692
0.2847271 0.586401 0.009690063
0.2928318 0.5982866 0.002158972
0.2159885 0.5232857 0.03996234
0.2262638 0.5352615 0.03261154
0.1748789 0.5391866 0.0569507
0.1862959 0.5274493 0.05697882
0.2054062 0.5256455 0.04378315
0.2477462 0.533614 0.02514614
0.2719185 0.5434483 0.02198181
0.283403 0.5652829 0.01565212
0.2574058 0.5329851 0.02395942
0.2834314 0.5765896 0.01352436
0.3014961 0.6094118 -0.008939087
0.2265179 0.5221393 0.0357784
0.1633042 0.5393073 0.061561
0.1866269 0.5164118 0.06472647
0.206372 0.513647 0.04461854
0.2369823 0.5344362 0.02882433
0.2836625 0.5426906 0.02067194
0.27163 0.5321246 0.02348145
0.2834894 0.553984 0.01805732
0.2949843 0.5758193 0.01175171
0.2941524 0.5886959 0.007229807
0.3045741 0.5963363 0.001076288
0.2268193 0.5126889 0.03834667
0.1765269 0.5283372 0.06306072
0.1665607 0.529212 0.06866536
0.1782197 0.5182201 0.06913712
0.1959789 0.5150842 0.04964676
0.2479691 0.523726 0.02779616
0.2951479 0.5645253 0.01434366
0.2712872 0.5207973 0.02484964
0.3152508 0.5962313 -0.002952861
0.2167152 0.5135547 0.04361838
0.1782002 0.5058382 0.07149579
0.1964301 0.5039764 0.0561728
0.2061098 0.5030827 0.04987564
0.2598063 0.5215724 0.02679583
0.2944154 0.5310744 0.02169273
0.2951782 0.5441887 0.01972042
0.2974153 0.5521395 0.01767771
0.2828436 0.5200272 0.02308662
0.3066444 0.575056 0.01023884
0.3060378 0.5863205 0.00657709
0.3127789 0.6078426 -0.01121213
0.2165609 0.5022398 0.04544165
0.2376709 0.5118724 0.03488076
0.2268798 0.5013883 0.0406897
0.1678547 0.5197659 0.07364298
0.1863862 0.5050306 0.06516604
0.2597705 0.5102655 0.02890544
0.3090183 0.5645484 0.01318059
0.2819903 0.5086666 0.02322195
0.2707671 0.5094585 0.02578982
0.3177009 0.5855575 0.005070773
0.3233501 0.5963981 -0.005574464
0.2484196 0.5110491 0.03116554
0.237193 0.5005363 0.03592284
0.1874616 0.4989396 0.06534937
0.2076823 0.4899989 0.05623695
0.3067714 0.5298455 0.01933166
0.2898861 0.5195773 0.02238697
0.3073765 0.5411901 0.01859653
0.3073561 0.5524935 0.01635071
0.3239585 0.6070477 -0.01388573
0.2166926 0.4909437 0.04795634
0.2478018 0.4997037 0.03186987
0.2266788 0.4900702 0.04240037
0.1785271 0.4945551 0.0744822
0.1968589 0.4926212 0.06143902
0.2590548 0.4989136 0.0293732
0.3057921 0.5184763 0.01916279
0.2945918 0.5192698 0.02178629
0.3189052 0.5751057 0.009396188
0.2937614 0.513153 0.02095788
0.2806815 0.4972756 0.02225654
0.2367456 0.489202 0.0370384
0.1876689 0.4936259 0.06688552
0.2081866 0.48061 0.05928535
0.2122505 0.4801811 0.05559941
0.270095 0.4981096 0.02636277
0.2929631 0.507858 0.02004823
0.2915754 0.4964619 0.01889251
0.2169756 0.4796576 0.05083658
0.2584016 0.4875659 0.0299921
0.2474642 0.4883767 0.03325073
0.2367229 0.4778959 0.03917993
0.1886134 0.4823834 0.07136331
0.1985037 0.4815035 0.06557498
0.2691726 0.486744 0.02633073
0.2986976 0.5074705 0.01906957
0.2901138 0.4850609 0.01755823
0.1789264 0.4832767 0.07764293
0.300656 0.484224 0.01334445
0.2797825 0.4859117 0.02228155
0.2581474 0.4762444 0.03157431
0.2477182 0.4770888 0.03606073
0.3045161 0.5070878 0.0182765
0.3032064 0.4977089 0.01691817
0.2864777 0.4737844 0.01165829
0.2785271 0.4745243 0.02144531
0.2682301 0.4753773 0.02625095
0.2469522 0.4657336 0.03640705
0.236431 0.4665719 0.04067165
0.2979063 0.4779968 0.007876787
0.2577036 0.4638165 0.02562301
0.276295 0.4691793 0.01706352
0.2845982 0.4723743 0.001215285
0.2656044 0.4667191 0.02155607
0.293384 0.4748209 -0.002488444
0.308401 0.5384397 -0.02060352
0.1954067 0.5402449 -0.01294877
3 0 1 2
3 1 3 2
3 1 0 4
3 3 1 5
3 4 0 6
3 5 1 4
3 5 7 3
3 8 4 6
3 9 5 4
3 10 3 7
3 5 11 7
3 4 8 9
3 6 12 8
3 5 9 13
3 11 10 7
3 5 14 11
3 15 9 8
3 12 16 8
3 9 15 13
3 5 13 14
3 17 10 11
3 11 14 18
3 8 16 15
3 14 13 19
3 20 17 11
3 19 18 14
3 18 20 11
3 21 17 20
3 21 20 22
3 23 24 25
3 25 24 26
3 22 26 24
3 27 28 29
3 30 31 32
3 30 32 33
3 33 32 34
3 33 35 30
3 36 33 34
3 37 35 33
3 37 33 36
3 36 34 27
3 34 38 27
3 35 37 39
3 37 36 40
3 36 27 41
3 28 27 38
3 40 39 37
3 41 40 36
3 29 41 27
3 40 42 39
3 41 43 40
3 44 41 29
3 43 42 40
3 45 43 41
3 45 41 44
3 46 42 43
3 43 45 47
3 45 44 23
3 46 43 22
3 45 23 47
3 47 22 43
3 23 25 47
3 26 22 47
3 26 47 25
3 48 49 50
3 48 51 52
3 48 52 49
3 52 51 53
3 51 54 53
3 54 55 53
3 55 54 56
3 53 55 57
3 55 56 58
3 55 58 57
3 58 56 59
3 59 60 58
3 60 61 58
3 62 50 49
3 49 63 62
3 64 62 63
3 63 49 65
3 63 66 64
3 52 65 49
3 65 67 63
3 63 12 66
3 65 52 68
3 67 65 68
3 63 67 12
3 52 69 68
3 68 16 67
3 12 67 16
3 53 69 52
3 69 70 68
3 16 68 70
3 71 72 73
3 74 75 76
3 75 77 78
3 79 72 71
3 72 80 73
3 81 78 77
3 73 80 81
3 74 82 83
3 84 74 76
3 78 76 75
3 85 86 83
3 79 87 72
3 88 80 72
3 80 78 81
3 89 82 74
3 83 82 85
3 84 89 74
3 90 84 76
3 78 90 76
3 91 86 85
3 88 72 87
3 88 92 80
3 80 92 78
3 89 93 82
3 94 85 82
3 95 89 84
3 90 95 84
3 92 90 78
3 91 85 94
3 88 87 96
3 88 97 92
3 95 93 89
3 93 94 82
3 98 95 90
3 90 92 97
3 94 99 91
3 100 88 96
3 97 88 100
3 93 95 101
3 94 93 102
3 103 95 98
3 98 90 97
3 91 99 104
3 94 105 99
3 100 96 106
3 107 97 100
3 101 102 93
3 103 101 95
3 102 108 94
3 109 103 98
3 107 98 97
3 110 104 99
3 99 105 110
3 108 105 94
3 106 111 100
3 107 100 111
3 112 102 101
3 101 103 113
3 102 114 108
3 109 113 103
3 109 98 107
3 115 110 105
3 108 115 105
3 116 107 111
3 112 117 102
3 113 112 101
3 118 108 114
3 117 114 102
3 113 109 119
3 109 107 116
3 120 110 115
3 118 115 108
3 121 117 112
3 122 112 113
3 123 118 114
3 117 123 114
3 113 119 122
3 119 109 124
3 109 116 124
3 125 120 115
3 118 125 115
3 121 123 117
3 122 121 112
3 123 125 118
3 126 122 119
3 119 124 127
3 116 128 124
3 129 120 125
3 130 116 131
3 132 123 121
3 121 122 133
3 125 123 132
3 126 133 122
3 126 119 127
3 127 124 128
3 130 128 116
3 134 129 125
3 135 132 121
3 121 133 135
3 134 125 132
3 136 133 126
3 127 137 126
3 127 128 138
3 128 130 138
3 139 129 134
3 140 132 135
3 141 135 133
3 142 134 132
3 136 141 133
3 143 136 126
3 126 137 143
3 137 127 138
3 142 139 134
3 132 140 142
3 135 144 140
3 141 144 135
3 141 136 145
3 145 136 143
3 137 146 143
3 147 137 138
3 148 142 140
3 149 140 144
3 150 144 141
3 151 141 145
3 145 143 152
3 152 143 146
3 146 137 147
3 153 147 138
3 142 148 154
3 140 155 148
3 149 155 140
3 144 150 149
3 156 150 141
3 151 156 141
3 145 157 151
3 158 145 152
3 152 146 159
3 147 159 146
3 159 147 153
3 160 154 148
3 160 148 155
3 149 161 155
3 162 149 150
3 162 150 156
3 156 151 163
3 163 151 157
3 157 145 158
3 158 152 164
3 152 159 164
3 165 159 153
3 166 154 160
3 155 161 160
3 162 161 149
3 167 162 156
3 163 167 156
3 157 168 163
3 168 157 158
3 164 169 158
3 164 159 165
3 166 160 170
3 170 160 161
3 162 171 161
3 172 162 167
3 163 173 167
3 174 163 168
3 158 175 168
3 175 158 169
3 169 164 176
3 165 177 164
3 178 166 170
3 161 171 170
3 172 171 162
3 179 172 167
3 167 173 179
3 163 180 173
3 181 163 174
3 174 168 175
3 169 182 175
3 183 169 176
3 176 164 177
3 178 170 184
3 184 170 171
3 171 172 179
3 185 179 173
3 180 163 181
3 173 180 185
3 181 174 186
3 175 187 174
3 188 175 182
3 182 169 183
3 189 178 184
3 179 184 171
3 185 189 179
3 190 180 181
3 191 185 180
3 174 187 186
3 186 190 181
3 187 175 188
3 188 182 31
3 182 183 31
3 192 178 189
3 179 189 184
3 189 185 193
3 191 180 190
3 193 185 191
3 186 187 188
3 190 186 35
3 31 30 188
3 178 192 194
3 192 189 195
3 193 195 189
3 191 190 196
3 197 193 191
3 186 188 30
3 35 186 30
3 190 35 198
3 199 194 192
3 192 195 200
3 193 201 195
3 202 191 196
3 198 196 190
3 201 193 197
3 197 191 203
3 198 35 39
3 61 194 199
3 199 192 200
3 204 200 195
3 195 201 204
3 203 191 202
3 205 202 196
3 198 205 196
3 201 197 206
3 207 197 203
3 42 198 39
3 58 61 199
3 200 208 199
3 208 200 204
3 204 201 209
3 207 203 202
3 207 202 205
3 210 205 198
3 211 201 206
3 197 207 206
3 210 198 42
3 58 199 208
3 212 208 204
3 212 204 209
3 209 201 211
3 213 207 205
3 210 213 205
3 214 211 206
3 206 207 213
3 210 42 215
3 57 58 208
3 216 208 212
3 217 212 209
3 209 211 214
3 19 213 210
3 214 206 218
3 206 213 218
3 46 215 42
3 215 19 210
3 208 216 57
3 69 216 212
3 212 217 69
3 217 209 214
3 213 19 13
3 214 218 219
3 13 218 213
3 18 215 46
3 18 19 215
3 57 216 53
3 53 216 69
3 69 217 70
3 70 217 214
3 219 70 214
3 13 219 218
3 18 46 20
3 15 70 219
3 13 15 219
3 46 22 20
3 70 15 16
3 220 221 60
3 220 222 223
3 222 224 223
3 224 225 226
3 60 221 61
3 221 220 223
3 223 224 227
3 225 228 226
3 226 229 224
3 61 221 230
3 223 227 221
3 224 229 227
3 226 228 231
3 229 226 232
3 233 231 234
3 230 221 227
3 194 61 230
3 229 235 227
3 232 226 231
3 229 232 235
3 233 234 236
3 232 231 233
3 237 230 227
3 194 230 237
3 227 235 166
3 235 232 238
3 236 234 239
3 240 233 236
3 232 233 238
3 227 166 237
3 194 237 178
3 235 238 166
3 239 241 236
3 233 240 242
3 236 243 240
3 233 242 238
3 237 166 178
3 166 238 154
3 244 241 239
3 241 245 236
3 242 240 246
3 240 243 139
3 236 247 243
3 238 242 154
3 244 248 241
3 241 249 245
3 236 245 247
3 246 240 139
3 154 242 246
3 243 129 139
3 129 243 247
3 241 248 249
3 245 249 250
3 245 250 247
3 246 139 142
3 154 246 142
3 247 120 129
3 248 251 249
3 249 252 250
3 250 253 247
3 247 110 120
3 249 251 252
3 250 252 254
3 247 253 110
3 253 250 255
3 256 252 251
3 257 254 252
3 250 254 255
3 253 255 110
3 252 256 257
3 258 254 257
3 255 254 258
3 255 104 110
3 259 255 258
3 104 255 259
3 104 259 91
3 260 261 262
3 262 263 260
3 264 265 266
3 267 268 269
3 267 269 270
3 271 270 269
3 272 273 274
3 274 273 275
3 276 273 272
3 277 272 274
3 273 278 275
3 275 279 274
3 280 276 272
3 277 281 272
3 279 277 274
3 278 282 275
3 283 279 275
3 284 280 272
3 272 281 284
3 281 277 285
3 285 277 279
3 282 286 275
3 279 283 0
3 287 283 275
3 284 288 280
3 281 289 284
3 281 285 290
3 2 285 279
3 275 286 287
3 0 2 279
3 0 283 6
3 287 6 283
3 280 288 271
3 284 289 288
3 291 289 281
3 281 290 291
3 290 285 292
3 293 285 2
3 287 286 64
3 287 12 6
3 270 271 288
3 294 288 289
3 295 289 291
3 291 290 296
3 296 290 292
3 292 285 293
3 297 293 2
3 64 66 287
3 66 12 287
3 288 294 270
3 289 295 294
3 298 295 291
3 296 299 291
3 300 296 292
3 292 293 297
3 297 2 3
3 294 301 270
3 302 294 295
3 298 302 295
3 291 303 298
3 299 303 291
3 299 296 304
3 304 296 300
3 297 300 292
3 3 305 297
3 301 294 302
3 270 301 267
3 298 306 302
3 303 307 298
3 303 299 308
3 304 308 299
3 305 304 300
3 300 297 305
3 10 305 3
3 302 309 301
3 310 267 301
3 302 306 309
3 298 307 306
3 311 307 303
3 303 308 312
3 304 313 308
3 314 304 305
3 305 10 315
3 301 309 316
3 317 310 301
3 267 310 268
3 316 309 306
3 318 306 307
3 319 307 311
3 303 312 311
3 312 308 313
3 314 313 304
3 314 305 315
3 10 17 315
3 317 301 316
3 320 310 317
3 268 310 266
3 306 318 316
3 307 319 318
3 321 319 311
3 311 312 322
3 322 312 313
3 313 314 323
3 323 314 315
3 21 315 17
3 324 317 316
3 310 320 325
3 317 326 320
3 310 325 266
3 324 316 318
3 319 327 318
3 311 328 321
3 321 329 319
3 322 330 311
3 322 313 323
3 315 331 323
3 332 315 21
3 317 324 326
3 325 320 333
3 334 320 326
3 325 264 266
3 318 335 324
3 318 327 335
3 319 329 327
3 328 336 321
3 330 328 311
3 321 336 329
3 330 322 337
3 337 322 323
3 338 323 331
3 332 331 315
3 332 21 24
3 324 339 326
3 325 333 340
3 341 333 320
3 320 334 341
3 326 342 334
3 340 264 325
3 335 343 324
3 327 344 335
3 329 345 327
3 346 336 328
3 328 330 347
3 345 329 336
3 337 348 330
3 337 323 349
3 349 323 338
3 338 331 350
3 331 332 350
3 23 332 24
3 326 339 342
3 339 324 343
3 333 341 340
3 351 341 334
3 334 342 351
3 335 344 343
3 327 345 344
3 352 336 346
3 328 347 346
3 330 348 347
3 345 336 352
3 337 353 348
3 349 353 337
3 354 349 338
3 354 338 350
3 332 23 350
3 339 355 342
3 343 356 339
3 340 341 357
3 351 358 341
3 342 359 351
3 356 343 344
3 345 360 344
3 361 352 346
3 346 347 362
3 362 347 348
3 345 352 363
3 364 348 353
3 349 354 353
3 354 350 365
3 350 23 44
3 342 355 359
3 339 366 355
3 356 366 339
3 357 341 358
3 340 357 367
3 368 358 351
3 351 359 369
3 344 370 356
3 344 360 370
3 363 360 345
3 346 371 361
3 361 372 352
3 362 373 346
3 362 348 364
3 352 372 363
3 374 364 353
3 354 375 353
3 44 365 350
3 365 376 354
3 359 355 369
3 355 366 377
3 366 356 370
3 358 378 357
3 357 379 367
3 358 368 380
3 351 381 368
3 369 381 351
3 370 360 382
3 382 360 363
3 372 361 371
3 373 371 346
3 373 362 383
3 362 364 374
3 372 384 363
3 374 353 375
3 375 354 376
3 44 29 365
3 365 385 376
3 386 369 355
3 382 377 366
3 377 386 355
3 370 382 366
3 378 358 380
3 378 379 357
3 387 380 368
3 381 388 368
3 369 389 381
3 390 382 363
3 371 391 372
3 371 373 392
3 374 383 362
3 383 393 373
3 372 394 384
3 363 384 390
3 375 395 374
3 396 375 376
3 397 365 29
3 385 396 376
3 397 385 365
3 398 369 386
3 399 377 382
3 377 400 386
3 378 380 401
3 401 379 378
3 380 387 262
3 368 402 387
3 368 388 402
3 389 388 381
3 398 389 369
3 390 403 382
3 371 392 391
3 391 394 372
3 373 393 392
3 383 374 395
3 383 404 393
3 394 405 384
3 384 406 390
3 396 395 375
3 28 397 29
3 407 396 385
3 385 397 408
3 386 400 398
3 409 399 382
3 399 410 377
3 377 410 400
3 262 401 380
3 263 262 387
3 411 387 402
3 402 388 411
3 389 412 388
3 412 389 398
3 390 406 403
3 382 403 409
3 392 413 391
3 414 394 391
3 415 392 393
3 395 404 383
3 416 393 404
3 405 394 414
3 384 405 406
3 395 396 407
3 417 397 28
3 407 385 408
3 397 417 408
3 418 398 400
3 409 419 399
3 399 419 410
3 420 400 410
3 387 421 263
3 411 421 387
3 388 422 411
3 388 412 422
3 398 418 412
3 423 403 406
3 403 423 409
3 413 424 391
3 415 413 392
3 391 425 414
3 415 393 416
3 395 426 404
3 405 414 427
3 405 428 406
3 395 407 426
3 400 420 418
3 409 423 419
3 429 410 419
3 410 429 420
3 411 430 421
3 411 422 430
3 422 412 431
3 418 432 412
3 406 433 423
3 391 424 425
3 425 427 414
3 434 405 427
3 405 435 428
3 406 428 433
3 436 418 420
3 423 437 419
3 419 438 429
3 429 439 420
3 430 440 421
3 440 430 422
3 431 441 422
3 412 432 431
3 418 436 432
3 433 442 423
3 427 425 424
3 434 435 405
3 443 434 427
3 435 444 428
3 442 433 428
3 423 442 437
3 419 437 438
3 439 429 438
3 421 440 445
3 441 440 422
3 443 427 424
3 435 434 443
3 435 446 444
3 428 444 447
3 428 447 442
3 448 437 442
3 437 448 438
3 438 449 439
3 450 443 424
3 435 443 451
3 452 444 446
3 451 446 435
3 453 447 444
3 454 442 447
3 442 454 448
3 438 448 449
3 449 455 439
3 439 455 456
3 450 451 443
3 452 453 444
3 446 457 452
3 447 453 454
3 458 448 454
3 455 449 448
3 452 459 453
3 460 452 457
3 461 454 453
3 448 458 455
3 461 458 454
3 453 459 461
3 452 79 459
3 452 460 79
3 462 460 457
3 461 71 458
3 79 461 459
3 460 87 79
3 87 460 462
3 79 71 461
3 462 96 87
3 21 22 24
3 463 31 32
3 463 32 34
3 463 34 38
3 463 38 28
3 463 28 417
3 463 417 408
3 463 408 407
3 463 407 426
3 463 426 404
3 463 404 416
3 463 416 415
3 463 415 413
3 463 413 424
3 463 424 450
3 463 450 451
3 463 451 446
3 463 446 457
3 463 457 462
3 463 462 96
3 463 96 106
3 463 106 111
3 463 111 116
3 463 116 131
3 463 131 130
3 463 130 138
3 463 138 153
3 463 153 165
3 463 165 177
3 463 177 176
3 463 176 183
3 463 183 31
3 464 50 48
3 464 62 50
3 464 64 62
3 464 286 64
3 464 282 286
3 464 278 282
3 464 273 278
3 464 276 273
3 464 280 276
3 464 271 280
3 464 269 271
3 464 268 269
3 464 266 268
3 464 266 265
3 464 264 265
3 464 340 264
3 464 367 340
3 464 379 367
3 464 401 379
3 464 262 401
3 464 262 261
3 464 260 261
3 464 263 260
3 464 421 263
3 464 445 421
3 464 440 445
3 464 441 440
3 464 431 441
3 464 432 431
3 464 436 432
3 464 420 436
3 464 439 420
3 464 456 439
3 464 455 456
3 464 458 455
3 464 71 458
3 464 73 71
3 464 81 73
3 464 77 81
3 464 75 77
3 464 74 75
3 464 83 74
3 464 86 83
3 464 91 86
3 464 259 91
3 464 258 259
3 464 257 258
3 464 256 257
3 464 251 256
3 464 248 251
3 464 244 248
3 464 239 244
3 464 234 239
3 464 231 234
3 464 228 231
3 464 225 228
3 464 224 225
3 464 222 224
3 464 220 222
3 464 60 220
3 464 59 60
3 464 56 59
3 464 54 56
3 464 51 54
3 464 48 51
