ply
format ascii 1.0
element vertex 409
property float x
property float y
property float z
element face 814
property list uchar int vertex_indices
end_header
-0.1282741 0.6247852 -0.003983117
-0.1117975 0.6219351 -0.0003284604
-0.1138295 0.6135411 0.002807889
-0.09892301 0.6215865 0.00378121
-0.1172777 0.6347409 -0.008754165
-0.1017606 0.6327433 -0.00327221
-0.09894079 0.6124872 0.009065413
-0.08383213 0.6196944 0.01113043
-0.1098919 0.5985255 0.01201728
-0.09460925 0.5984849 0.01883727
-0.08017035 0.597892 0.02483246
-0.09826852 0.5884731 0.02194
-0.1112758 0.5884842 0.01582724
-0.08180954 0.5881447 0.02858847
-0.1061292 0.5771211 0.02275531
-0.0766266 0.5746479 0.03698184
-0.09134914 0.5765936 0.02936366
-0.1229386 0.5777878 0.01450783
-0.1075252 0.5661164 0.02554203
-0.09275371 0.567614 0.0320833
-0.1224252 0.565316 0.01866761
-0.07849604 0.5649816 0.04024268
-0.06851359 0.5647066 0.04627984
-0.1109058 0.5547913 0.02712682
-0.1066607 0.5546764 0.02973473
-0.08834112 0.5541486 0.04036893
-0.07418124 0.5531924 0.04847151
-0.1234457 0.5552036 0.02083702
-0.09887867 0.554464 0.03448105
-0.1214506 0.5438705 0.02530994
-0.1040632 0.5434014 0.03546406
-0.07536556 0.5425409 0.05147106
-0.127267 0.5440634 0.0218686
-0.08964427 0.5432926 0.04348655
-0.1294566 0.5328332 0.02306658
-0.1402966 0.5439847 0.0160692
-0.1166512 0.5324472 0.03011468
-0.09062418 0.5316866 0.04501438
-0.1048743 0.5320897 0.03659838
-0.1373755 0.5331066 0.01929105
-0.1380538 0.5217572 0.01984906
-0.1227695 0.5212327 0.02709102
-0.1056862 0.5207615 0.03741524
-0.1297278 0.5214565 0.02350378
-0.116501 0.5210332 0.03036372
-0.1293629 0.5100253 0.02366449
-0.1237018 0.5098665 0.0270352
-0.1174463 0.5097069 0.03106396
-0.1415909 0.5104641 0.01824279
-0.1246638 0.4984984 0.02690771
-0.1291434 0.4986057 0.02388518
-0.1181813 0.4983636 0.03167743
-0.1413475 0.4977258 0.01744939
-0.1273319 0.487152 0.02525751
-0.1185907 0.4869944 0.03215699
-0.1078881 0.4867829 0.04024814
-0.09724794 0.4979587 0.04767102
-0.1070953 0.499772 0.0394212
-0.08754474 0.5089791 0.0528132
-0.08808878 0.487648 0.05722599
-0.09560251 0.5092291 0.04668256
-0.07208632 0.5004082 0.06599334
-0.07272379 0.508745 0.06335499
-0.1064593 0.5094466 0.03853369
-0.06319918 0.507574 0.07046345
-0.0901254 0.5211984 0.04761133
-0.07157587 0.5191028 0.06079261
-0.08238804 0.5202088 0.0532367
-0.05826179 0.5194514 0.06953523
-0.0793553 0.5313682 0.05167705
-0.07311767 0.5312142 0.05579758
-0.06687801 0.52794 0.06094966
-0.06488559 0.5422472 0.05771448
-0.1899406 0.5036401 -0.01270431
-0.2001146 0.50998 -0.008665537
-0.1946831 0.5130324 0.0004349489
-0.1854183 0.5068179 -0.002339237
-0.1803554 0.5144355 0.006901389
-0.1791278 0.5000649 -0.004759148
-0.1709014 0.499911 0.0046641
-0.1645605 0.5114856 0.0118822
-0.1641186 0.5228711 0.01175367
-0.1564459 0.4981014 0.01100467
-0.1534985 0.5109664 0.01441674
-0.1523477 0.5223469 0.0150001
-0.1449156 0.5220367 0.01745122
-0.1519498 0.5336778 0.01376432
-0.1437819 0.533348 0.01667335
-0.1056756 0.6447539 -0.01372926
-0.1206136 0.6452474 -0.01998285
-0.1091705 0.6544316 -0.02663116
-0.1187752 0.6548638 -0.03396447
-0.1132558 0.6580021 -0.03633488
-0.1241636 0.65185 -0.03165171
-0.09820484 0.6608742 -0.03031966
-0.1175141 0.6593184 -0.04693163
-0.1280688 0.6548366 -0.04291351
-0.1008686 0.6639475 -0.04162474
-0.121914 0.6582257 -0.05740455
-0.104802 0.6637019 -0.05234963
-0.2271539 0.6301398 -0.03772137
-0.2319161 0.6265718 -0.04821733
-0.216453 0.6327655 -0.04222274
-0.2209954 0.629248 -0.05257035
-0.2120419 0.6340474 -0.03175979
-0.2103556 0.6308364 -0.05701825
-0.2034886 0.6366186 -0.04146566
-0.2058239 0.6341692 -0.04666106
-0.2012789 0.6367911 -0.03597713
-0.1937269 0.6353951 -0.05133074
-0.1907033 0.6382269 -0.04070701
-0.1862504 0.636143 -0.03026798
-0.1801061 0.6390941 -0.04511756
-0.1758239 0.6381869 -0.03454145
-0.1852224 0.6358011 -0.05690243
-0.1704556 0.6350251 -0.02537281
-0.1651221 0.6408281 -0.03904362
-0.1735603 0.6397962 -0.06029585
-0.1694694 0.6406312 -0.04956255
-0.1608673 0.639451 -0.02844346
-0.1542499 0.6449814 -0.04365749
-0.1572957 0.6440229 -0.05469447
-0.1559752 0.6345683 -0.01865735
-0.1506607 0.6432649 -0.06919108
-0.1460058 0.6391006 -0.02226203
-0.1482959 0.6442041 -0.03377707
-0.1434222 0.6511552 -0.04830804
-0.1479431 0.6480021 -0.05867465
-0.1418011 0.6339235 -0.01284282
-0.142515 0.6441379 -0.07471915
-0.1311058 0.6394032 -0.01611443
-0.1350881 0.64485 -0.02661055
-0.1391978 0.6492616 -0.03768123
-0.1371693 0.6518738 -0.06324017
-0.1330611 0.6547714 -0.05309406
-0.1284819 0.6540102 -0.06793631
-0.131088 0.6496692 -0.07802147
-0.2028083 0.5060127 -0.04441429
-0.1998467 0.4995668 -0.03381623
-0.1891721 0.4972998 -0.03958311
-0.1925433 0.512498 -0.04832914
-0.2037538 0.5107183 -0.0476248
-0.2041518 0.5219968 -0.05078281
-0.1793049 0.5092662 -0.04792429
-0.1921562 0.5212557 -0.05148471
-0.2043535 0.5332882 -0.05346657
-0.1780975 0.4974899 -0.04270352
-0.1869753 0.5209569 -0.0513762
-0.204009 0.5437891 -0.05752581
-0.1924537 0.5325408 -0.05440011
-0.1842728 0.4944053 -0.02712273
-0.1682933 0.5084602 -0.05100352
-0.1799817 0.5205263 -0.05175544
-0.1739563 0.4904888 -0.03128653
-0.1674548 0.4968775 -0.04671717
-0.1687202 0.5197368 -0.05423165
-0.1805097 0.5265306 -0.0542046
-0.1574792 0.4963366 -0.05236416
-0.1583295 0.51889 -0.05881104
-0.1647346 0.4852057 -0.03559661
-0.1571232 0.4917765 -0.05061386
-0.1577691 0.5076221 -0.05526104
-0.1477667 0.495445 -0.05858212
-0.1475911 0.5067613 -0.06035413
-0.1563708 0.4851049 -0.04748981
-0.1514108 0.4845403 -0.05278121
-0.1525908 0.4743517 -0.03913756
-0.147512 0.4820882 -0.05536854
-0.1378046 0.5058314 -0.0666858
-0.1460092 0.4729516 -0.04994329
-0.138273 0.4832343 -0.06313136
-0.1380279 0.4945552 -0.06473607
-0.1281081 0.4936773 -0.07045306
-0.1281727 0.4823684 -0.06841263
-0.1183417 0.4814846 -0.0743443
-0.1181924 0.4927991 -0.07618032
-0.1090532 0.4805651 -0.08158634
-0.1085498 0.4922465 -0.08302269
-0.1048258 0.4801782 -0.08427059
-0.09924057 0.4796801 -0.08756252
-0.09919094 0.4909881 -0.08963902
-0.0895243 0.4900936 -0.09596716
-0.1284354 0.5049605 -0.07343999
-0.1208066 0.5035442 -0.0785894
-0.1091433 0.5031686 -0.08619688
-0.09023054 0.5013518 -0.09986986
-0.08013062 0.5004857 -0.1051522
-0.07969931 0.4892094 -0.1019136
-0.06986108 0.4883261 -0.1078278
-0.09951268 0.5022716 -0.09261309
-0.1287341 0.5102521 -0.07519369
-0.1098457 0.514427 -0.09009062
-0.1001983 0.5135311 -0.09646575
-0.08985901 0.5126568 -0.1036509
-0.119651 0.5153124 -0.08409663
-0.1335071 0.5166789 -0.07339309
-0.08035529 0.5110409 -0.1077482
-0.1291787 0.5162162 -0.07743216
-0.13878 0.5279373 -0.07182638
-0.1093172 0.5260798 -0.0957819
-0.1009821 0.5227212 -0.1001544
-0.08044216 0.5230746 -0.1102976
-0.120513 0.5265604 -0.08837554
-0.148078 0.5180339 -0.06372682
-0.1298146 0.5274791 -0.08116481
-0.09097989 0.5239118 -0.1060728
-0.1480775 0.5293387 -0.06592215
-0.1311031 0.5386986 -0.08647403
-0.101218 0.5360731 -0.1033222
-0.1207656 0.5380011 -0.09152463
-0.08029319 0.5343889 -0.1121341
-0.1474781 0.5419785 -0.06818438
-0.1584491 0.5301868 -0.06129643
-0.1391694 0.5396986 -0.07627956
-0.1113086 0.5369398 -0.09801751
-0.09094608 0.5352185 -0.108188
-0.1388064 0.5510272 -0.07759909
-0.1008721 0.5474007 -0.1046826
-0.1111249 0.5491754 -0.0985039
-0.1218767 0.5499046 -0.09208257
-0.08980893 0.545918 -0.1090334
-0.1587741 0.5416117 -0.06359474
-0.1299583 0.5500787 -0.08590517
-0.1704675 0.5328467 -0.05828273
-0.147964 0.5519553 -0.07004087
-0.1385086 0.5623516 -0.07907578
-0.1003707 0.5587385 -0.1056678
-0.1196928 0.5652001 -0.09405779
-0.1293762 0.5614218 -0.08669513
-0.1808696 0.5427938 -0.05856498
-0.158254 0.5564705 -0.06654629
-0.1479499 0.563261 -0.07220346
-0.1094569 0.570976 -0.1001338
-0.1279305 0.572298 -0.08839386
-0.08926323 0.5697033 -0.1110637
-0.1809442 0.5317677 -0.05627697
-0.16981 0.5535789 -0.06345362
-0.1478642 0.5745713 -0.07419328
-0.1382342 0.5736744 -0.08060986
-0.0993242 0.5701121 -0.1053367
-0.1201222 0.5833611 -0.09353742
-0.1087358 0.5823282 -0.1005879
-0.1810038 0.5543729 -0.06081421
-0.1583876 0.5754095 -0.06993388
-0.1697164 0.5648898 -0.06542388
-0.09865876 0.5822139 -0.1063949
-0.1281013 0.5841152 -0.08800881
-0.1376572 0.5850171 -0.08141237
-0.1927411 0.5551311 -0.0594875
-0.1928092 0.5438219 -0.05745558
-0.1475157 0.585899 -0.07554802
-0.1084057 0.5936546 -0.1019872
-0.1195048 0.594704 -0.09429039
-0.1811359 0.5656689 -0.06332941
-0.1934115 0.5683787 -0.0621221
-0.1697448 0.5761926 -0.06768926
-0.1581023 0.586733 -0.07144099
-0.1367803 0.5963796 -0.08149026
-0.1271949 0.5954797 -0.0880157
-0.09735818 0.6041555 -0.1071769
-0.1467499 0.5972542 -0.07589441
-0.1993003 0.5555137 -0.05954049
-0.1172959 0.6071672 -0.095014
-0.1073452 0.605029 -0.1016219
-0.1814803 0.5825394 -0.06764288
-0.204846 0.5671697 -0.06124583
-0.1696188 0.5875057 -0.06958122
-0.1575434 0.5980745 -0.07228729
-0.1461885 0.6085956 -0.07673445
-0.1265585 0.6068261 -0.08867479
-0.1049433 0.6147817 -0.09954574
-0.1930531 0.5777199 -0.06463402
-0.2045414 0.5784945 -0.06270649
-0.1690191 0.5988499 -0.07032908
-0.1360521 0.6077321 -0.0819276
-0.1256273 0.6181921 -0.08862157
-0.180034 0.5881464 -0.06902436
-0.1932996 0.5890085 -0.06742588
-0.1792475 0.5994698 -0.06996252
-0.1575703 0.6093772 -0.07454929
-0.115551 0.6173245 -0.09396073
-0.1354404 0.619077 -0.08264676
-0.204356 0.5898114 -0.0644553
-0.1696074 0.6102768 -0.07332563
-0.1465455 0.6198768 -0.07979364
-0.1038677 0.6278675 -0.09761429
-0.1348854 0.6304183 -0.08350268
-0.1243518 0.6295809 -0.08773699
-0.1934369 0.6003041 -0.06995429
-0.1811703 0.6108853 -0.07219891
-0.1577386 0.6202244 -0.07861483
-0.1139952 0.6287317 -0.09239937
-0.1932787 0.611619 -0.07176819
-0.1803914 0.6222413 -0.07251344
-0.1698137 0.6214067 -0.07664146
-0.1460879 0.6312117 -0.08088471
-0.1023459 0.6392725 -0.09613439
-0.1229597 0.6409773 -0.08657054
-0.1911114 0.6230665 -0.06872935
-0.1680313 0.6327074 -0.07450884
-0.1575412 0.6312659 -0.07873137
-0.1123474 0.640145 -0.09061494
-0.1336305 0.6418056 -0.08266787
-0.1788274 0.6289458 -0.07001808
-0.1091196 0.6514809 -0.0870779
-0.1201426 0.6517332 -0.08181903
-0.18949 0.6269693 -0.06555015
-0.1772583 0.6337524 -0.06714197
-0.2231582 0.6255494 -0.05710397
-0.2263958 0.6152164 -0.06295898
-0.2133664 0.6246631 -0.06313065
-0.2284916 0.6025888 -0.06559535
-0.2147483 0.6009297 -0.06692556
-0.2157537 0.6137495 -0.0668077
-0.2221663 0.5909142 -0.06336407
-0.1999091 0.629133 -0.06129625
-0.2026273 0.6238392 -0.06686894
-0.2161146 0.5905681 -0.06318018
-0.2055089 0.6027146 -0.06976219
-0.2047099 0.6127392 -0.07126299
-0.2163488 0.579248 -0.06154916
-0.2167694 0.5679156 -0.06036855
-0.2168816 0.5566035 -0.05844326
-0.2051309 0.5558462 -0.05973762
-0.1048227 0.6612272 -0.0767855
-0.1111703 0.6615813 -0.06194338
-0.1581246 0.4758385 -0.02212603
-0.1695144 0.4873679 -0.02018363
-0.1665502 0.4866458 -0.009599885
-0.156639 0.4741381 -0.01336161
-0.1609053 0.4876365 0.001622561
-0.1508124 0.4751124 -0.0008112845
-0.179828 0.4962587 -0.0166892
-0.143952 0.4757168 0.005991474
-0.1466644 0.4803246 0.006988559
-0.151527 0.4877246 0.008799681
-0.1754973 0.4961775 -0.006156032
-0.1351405 0.4756467 0.01466985
-0.1846671 0.4998732 -0.01478466
-0.1415747 0.4874753 0.01530216
-0.1944884 0.5000193 -0.02303581
-0.1279868 0.4764152 0.02250359
-0.2148896 0.5937117 -0.0008598635
-0.2038945 0.5816 -0.001783018
-0.2155397 0.5823641 -0.0002334983
-0.1908155 0.547016 0.006720953
-0.1916168 0.5356588 0.006982145
-0.2032971 0.5477251 0.006249923
-0.1906331 0.5583327 0.004965052
-0.1926429 0.5810191 -0.0002253221
-0.2018531 0.5692695 0.002500854
-0.1908146 0.5696255 0.002330292
-0.2031317 0.5929549 -0.002137073
-0.1920432 0.524326 0.008148056
-0.180093 0.5350171 0.007669859
-0.1784189 0.5521477 0.005850974
-0.1909401 0.5947229 -0.002333149
-0.1776957 0.5575761 0.005034939
-0.2027226 0.6042866 -0.003345162
-0.214412 0.6050479 -0.001902328
-0.2188803 0.6233671 -0.01631366
-0.2205572 0.6272522 -0.02114052
-0.2085284 0.6269688 -0.01985358
-0.222812 0.6302444 -0.02719767
-0.2156662 0.6143644 -0.006758871
-0.2051808 0.6165141 -0.009020487
-0.1813426 0.5237299 0.008782262
-0.1792684 0.54634 0.006770376
-0.176772 0.5816778 0.0005091483
-0.1763341 0.5935881 -0.002049948
-0.165039 0.5683241 0.004741433
-0.1658733 0.5342919 0.009810009
-0.1632092 0.557023 0.008728084
-0.1630718 0.5451135 0.009814251
-0.1783558 0.602829 -0.003842953
-0.1896465 0.603507 -0.003560981
-0.1972954 0.6317404 -0.02547733
-0.1921733 0.6253811 -0.0158253
-0.1526258 0.5788519 0.003345426
-0.1636041 0.6020196 -0.002729911
-0.1521779 0.5685202 0.007066856
-0.1909193 0.6148372 -0.006708652
-0.1603271 0.5340367 0.01117953
-0.15131 0.5563292 0.01091724
-0.1525423 0.5901622 0.001350941
-0.1663577 0.6133926 -0.006735295
-0.1795145 0.6148481 -0.007107941
-0.1825204 0.6299157 -0.01921977
-0.1805166 0.6252959 -0.0134561
-0.1516269 0.5450036 0.01234846
-0.1441398 0.5897514 0.002959236
-0.1474299 0.5786126 0.004625005
-0.1528002 0.6014498 -0.001468945
-0.1539869 0.6152155 -0.005553663
-0.1368924 0.5660058 0.01266617
-0.1383953 0.5557633 0.01465892
-0.1384954 0.5782514 0.007799863
-0.1521419 0.623888 -0.00842677
-0.1679206 0.6245706 -0.0128089
-0.1389759 0.5895244 0.004442438
-0.1395019 0.6000429 0.0002692284
-0.1401576 0.6233605 -0.005001301
-0.1317972 0.5779969 0.0104945
-0.1261978 0.5890303 0.009417864
-0.1376489 0.6119732 -0.001549435
-0.1265224 0.6114227 0.0004529715
-0.1240479 0.5990915 0.006165307
-0.1028801 0.5437209 -0.0325914
-0.2096563 0.5662394 -0.02890922
3 0 1 2
3 2 1 3
3 1 0 4
3 5 3 1
3 2 3 6
3 4 5 1
3 6 3 7
3 6 8 2
3 6 7 9
3 6 9 8
3 7 10 9
3 8 9 11
3 11 9 10
3 12 8 11
3 11 10 13
3 12 11 14
3 13 10 15
3 13 16 11
3 12 14 17
3 11 16 14
3 13 15 16
3 17 14 18
3 14 16 19
3 19 16 15
3 20 17 18
3 18 14 19
3 19 15 21
3 21 15 22
3 20 18 23
3 19 24 18
3 21 25 19
3 21 22 26
3 27 20 23
3 18 24 23
3 28 24 19
3 21 26 25
3 19 25 28
3 23 29 27
3 29 23 24
3 24 28 30
3 25 26 31
3 30 28 25
3 27 29 32
3 24 30 29
3 33 25 31
3 30 25 33
3 34 32 29
3 32 35 27
3 36 29 30
3 31 37 33
3 33 38 30
3 34 39 32
3 36 34 29
3 32 39 35
3 30 38 36
3 37 38 33
3 34 40 39
3 36 41 34
3 38 42 36
3 37 42 38
3 43 40 34
3 34 41 43
3 44 41 36
3 36 42 44
3 40 43 45
3 41 46 43
3 41 44 47
3 47 44 42
3 43 46 45
3 45 48 40
3 47 46 41
3 46 49 45
3 48 45 50
3 46 47 51
3 45 49 50
3 51 49 46
3 50 52 48
3 49 53 50
3 52 50 53
3 54 53 49
3 55 54 51
3 56 55 57
3 49 51 54
3 51 57 55
3 58 59 56
3 57 60 56
3 51 47 57
3 61 59 62
3 56 60 58
3 62 59 58
3 57 63 60
3 47 63 57
3 64 61 62
3 65 58 60
3 58 66 62
3 60 63 65
3 42 63 47
3 62 66 64
3 67 58 65
3 58 67 66
3 65 63 42
3 66 68 64
3 67 65 69
3 70 66 67
3 65 42 37
3 66 71 68
3 69 65 37
3 67 69 70
3 70 71 66
3 69 37 31
3 31 70 69
3 71 70 72
3 72 70 31
3 31 26 72
3 73 74 75
3 73 75 76
3 77 76 75
3 78 76 77
3 78 77 79
3 80 79 77
3 80 77 81
3 82 79 80
3 81 83 80
3 83 82 80
3 84 83 81
3 52 82 83
3 85 83 84
3 86 84 81
3 83 48 52
3 48 83 85
3 85 84 86
3 40 48 85
3 86 87 85
3 39 40 85
3 87 86 35
3 85 87 39
3 35 39 87
3 4 88 5
3 4 89 88
3 89 90 88
3 91 90 89
3 90 91 92
3 93 91 89
3 90 92 94
3 95 92 91
3 93 96 91
3 92 97 94
3 91 96 95
3 92 95 97
3 96 98 95
3 97 95 99
3 95 98 99
3 100 101 102
3 102 101 103
3 104 100 102
3 102 103 105
3 102 106 104
3 105 107 102
3 106 108 104
3 102 107 106
3 107 105 109
3 108 106 110
3 106 107 109
3 110 106 109
3 111 108 110
3 109 112 110
3 110 113 111
3 110 112 113
3 109 114 112
3 115 111 113
3 113 112 116
3 112 114 117
3 115 113 116
3 116 112 118
3 117 118 112
3 116 119 115
3 116 118 120
3 118 117 121
3 122 115 119
3 119 116 120
3 120 118 121
3 117 123 121
3 119 124 122
3 120 125 119
3 120 121 126
3 121 123 127
3 128 122 124
3 119 125 124
3 125 120 126
3 126 121 127
3 123 129 127
3 124 130 128
3 124 125 131
3 126 132 125
3 127 133 126
3 129 133 127
3 4 128 130
3 124 131 130
3 131 125 132
3 126 96 132
3 133 134 126
3 129 135 133
3 130 89 4
3 130 131 89
3 131 132 93
3 93 132 96
3 126 134 96
3 134 133 135
3 129 136 135
3 131 93 89
3 96 134 98
3 134 135 98
3 137 138 139
3 140 141 137
3 137 139 140
3 142 141 140
3 140 139 143
3 144 142 140
3 145 142 144
3 143 139 146
3 140 143 147
3 147 144 140
3 148 145 149
3 144 149 145
3 150 146 139
3 143 146 151
3 143 152 147
3 149 144 147
3 153 146 150
3 151 146 154
3 155 143 151
3 156 147 152
3 152 143 155
3 149 147 156
3 154 146 153
3 151 154 157
3 155 151 158
3 156 152 155
3 154 153 159
3 160 157 154
3 157 161 151
3 158 151 161
3 160 154 159
3 162 157 160
3 161 157 162
3 158 161 163
3 159 164 160
3 162 160 165
3 162 163 161
3 164 165 160
3 166 164 159
3 167 162 165
3 163 162 168
3 169 165 164
3 169 164 166
3 169 167 165
3 162 167 170
3 168 162 171
3 170 171 162
3 172 170 173
3 172 173 174
3 175 174 176
3 177 176 178
3 178 179 180
3 171 170 172
3 174 175 172
3 176 177 175
3 180 177 178
3 180 179 181
3 182 171 172
3 172 175 183
3 177 183 175
3 180 184 177
3 185 180 181
3 186 187 188
3 172 183 182
3 168 171 182
3 177 184 183
3 180 189 184
3 185 181 187
3 189 180 185
3 187 186 185
3 182 183 190
3 168 182 190
3 191 183 184
3 191 184 189
3 192 189 185
3 185 186 193
3 194 190 183
3 168 190 195
3 194 183 191
3 189 192 191
3 185 193 192
3 186 196 193
3 194 197 190
3 168 195 198
3 190 197 195
3 199 194 191
3 191 192 200
3 193 200 192
3 196 201 193
3 202 197 194
3 203 168 198
3 204 198 195
3 197 204 195
3 191 200 199
3 202 194 199
3 193 205 200
3 201 205 193
3 204 197 202
3 203 163 168
3 203 198 206
3 207 198 204
3 200 208 199
3 202 199 209
3 208 200 205
3 210 205 201
3 207 204 202
3 163 203 158
3 211 206 198
3 203 206 212
3 213 198 207
3 208 214 199
3 199 214 209
3 202 209 207
3 205 215 208
3 215 205 210
3 212 158 203
3 211 212 206
3 213 211 198
3 216 213 207
3 217 214 208
3 214 218 209
3 207 209 219
3 217 208 215
3 220 215 210
3 212 155 158
3 221 212 211
3 213 216 211
3 207 222 216
3 218 214 217
3 218 219 209
3 207 219 222
3 215 220 217
3 223 155 212
3 223 212 221
3 211 224 221
3 216 224 211
3 225 216 222
3 226 218 217
3 227 219 218
3 228 222 219
3 226 217 220
3 156 155 223
3 221 229 223
3 221 224 230
3 231 224 216
3 216 225 231
3 222 228 225
3 232 218 226
3 219 227 233
3 232 227 218
3 233 228 219
3 234 226 220
3 223 235 156
3 236 229 221
3 229 235 223
3 224 231 230
3 230 236 221
3 237 231 225
3 238 225 228
3 226 239 232
3 233 227 240
3 241 227 232
3 228 233 238
3 239 226 234
3 235 149 156
3 229 236 242
3 229 149 235
3 243 230 231
3 244 236 230
3 231 237 243
3 225 238 237
3 245 232 239
3 240 227 241
3 246 233 240
3 241 232 245
3 247 238 233
3 245 239 234
3 244 242 236
3 229 242 248
3 249 149 229
3 243 244 230
3 250 243 237
3 250 237 238
3 251 240 241
3 233 246 247
3 252 246 240
3 251 241 245
3 238 247 250
3 253 242 244
3 254 248 242
3 248 249 229
3 148 149 249
3 255 244 243
3 256 243 250
3 252 240 251
3 257 247 246
3 258 246 252
3 259 251 245
3 260 250 247
3 255 253 244
3 242 253 254
3 254 261 248
3 249 248 261
3 261 148 249
3 256 255 243
3 260 256 250
3 262 252 251
3 247 257 260
3 246 258 257
3 262 258 252
3 263 251 259
3 264 253 255
3 254 253 264
3 254 265 261
3 266 255 256
3 267 256 260
3 251 263 262
3 268 260 257
3 269 257 258
3 269 258 262
3 263 259 270
3 264 255 266
3 264 271 254
3 272 265 254
3 273 266 256
3 256 267 273
3 268 267 260
3 263 270 262
3 257 274 268
3 274 257 269
3 269 262 275
3 264 266 276
3 277 271 264
3 271 272 254
3 266 273 278
3 279 273 267
3 279 267 268
3 280 262 270
3 281 268 274
3 281 274 269
3 269 275 281
3 262 280 275
3 276 277 264
3 278 276 266
3 271 277 282
3 282 272 271
3 283 278 273
3 283 273 279
3 279 268 284
3 285 280 270
3 284 268 281
3 286 281 275
3 287 275 280
3 278 277 276
3 288 282 277
3 283 289 278
3 290 283 279
3 290 279 284
3 291 280 285
3 286 284 281
3 275 287 286
3 280 291 287
3 288 277 278
3 278 289 292
3 293 289 283
3 283 290 294
3 290 284 295
3 296 291 285
3 295 284 286
3 297 286 287
3 297 287 291
3 292 288 278
3 298 292 289
3 289 293 298
3 294 293 283
3 299 294 290
3 300 290 295
3 301 291 296
3 302 295 286
3 302 286 297
3 291 301 297
3 303 298 293
3 299 293 294
3 290 300 299
3 300 295 123
3 301 296 304
3 129 295 302
3 305 302 297
3 304 297 301
3 306 298 303
3 303 293 299
3 123 299 300
3 295 129 123
3 136 129 302
3 136 302 305
3 305 297 304
3 307 306 303
3 307 303 299
3 117 299 123
3 114 306 307
3 117 307 299
3 117 114 307
3 103 101 308
3 103 308 105
3 308 309 310
3 309 311 312
3 105 308 310
3 310 309 313
3 311 314 312
3 312 313 309
3 105 310 315
3 310 313 316
3 312 314 317
3 313 312 318
3 315 310 316
3 109 105 315
3 316 313 319
3 320 317 314
3 312 317 282
3 319 313 318
3 282 318 312
3 315 316 298
3 315 114 109
3 319 292 316
3 317 320 272
3 272 282 317
3 318 292 319
3 318 282 288
3 321 322 265
3 320 321 265
3 292 298 316
3 298 306 315
3 315 306 114
3 265 272 320
3 318 288 292
3 265 322 323
3 261 265 323
3 261 323 148
3 324 305 304
3 324 135 305
3 135 136 305
3 325 135 324
3 98 135 325
3 99 98 325
3 166 159 326
3 326 159 327
3 326 328 329
3 327 159 153
3 326 327 328
3 330 329 328
3 331 329 330
3 327 153 332
3 327 332 328
3 330 328 79
3 333 331 334
3 331 330 335
3 332 153 150
3 332 336 328
3 330 79 82
3 79 328 336
3 333 334 337
3 331 335 334
3 335 330 82
3 150 338 332
3 336 332 338
3 79 336 78
3 334 339 337
3 339 334 335
3 335 82 52
3 150 340 338
3 338 78 336
3 337 339 53
3 339 335 52
3 338 340 73
3 150 139 340
3 78 338 76
3 337 53 341
3 339 52 53
3 76 338 73
3 340 139 138
3 342 343 344
3 345 346 347
3 348 345 347
3 343 349 350
3 348 350 351
3 352 343 342
3 75 353 77
3 354 353 346
3 354 346 345
3 345 348 355
3 349 351 350
3 349 343 356
3 351 357 348
3 356 343 352
3 358 352 342
3 342 359 358
3 360 361 362
3 361 363 104
3 358 359 364
3 364 360 365
3 353 366 77
3 366 353 354
3 345 367 354
3 348 357 355
3 345 355 367
3 351 349 368
3 349 356 369
3 370 357 351
3 352 358 356
3 363 100 104
3 361 104 362
3 360 362 365
3 358 364 365
3 77 366 81
3 366 354 371
3 367 371 354
3 355 357 372
3 373 367 355
3 369 368 349
3 368 370 351
3 369 356 374
3 370 372 357
3 358 375 356
3 104 376 362
3 365 362 377
3 365 375 358
3 371 81 366
3 373 371 367
3 373 355 372
3 369 378 368
3 370 368 378
3 369 374 379
3 356 375 374
3 370 380 372
3 377 362 376
3 104 108 376
3 381 365 377
3 381 375 365
3 371 382 81
3 382 371 373
3 373 372 383
3 384 378 369
3 370 378 380
3 384 369 379
3 385 379 374
3 386 374 375
3 380 383 372
3 376 387 377
3 376 108 111
3 381 377 388
3 381 386 375
3 81 382 86
3 382 373 389
3 383 389 373
3 390 378 384
3 380 378 391
3 384 379 392
3 385 393 379
3 374 386 385
3 383 380 394
3 388 377 387
3 376 111 387
3 381 388 386
3 389 86 382
3 395 389 383
3 391 378 390
3 384 392 390
3 380 391 396
3 393 392 379
3 385 397 393
3 385 386 398
3 383 394 395
3 394 380 396
3 115 388 387
3 111 115 387
3 386 388 398
3 35 86 389
3 35 389 395
3 391 390 399
3 392 400 390
3 399 396 391
3 393 400 392
3 393 397 401
3 385 398 397
3 395 394 20
3 396 402 394
3 398 388 115
3 27 35 395
3 399 390 400
3 403 396 399
3 404 400 393
3 404 393 401
3 401 397 128
3 397 398 122
3 395 20 27
3 17 20 394
3 394 402 17
3 402 396 403
3 115 122 398
3 399 400 403
3 400 404 405
3 401 0 404
3 122 128 397
3 401 128 4
3 403 17 402
3 400 406 403
3 405 406 400
3 0 405 404
3 401 4 0
3 12 17 403
3 403 406 12
3 2 406 405
3 405 0 2
3 406 8 12
3 2 8 406
3 407 5 3
3 407 3 7
3 407 7 10
3 407 10 15
3 407 15 22
3 407 22 26
3 407 26 72
3 407 72 71
3 407 71 68
3 407 68 64
3 407 64 61
3 407 61 59
3 407 56 59
3 407 56 55
3 407 55 54
3 407 54 53
3 407 53 341
3 407 341 337
3 407 337 333
3 407 333 331
3 407 331 329
3 407 329 326
3 407 326 166
3 407 166 169
3 407 169 167
3 407 167 170
3 407 170 173
3 407 173 174
3 407 174 176
3 407 176 178
3 407 178 179
3 407 179 181
3 407 181 187
3 407 187 188
3 407 188 186
3 407 186 196
3 407 196 201
3 407 201 210
3 407 210 220
3 407 220 234
3 407 234 245
3 407 245 259
3 407 259 270
3 407 270 285
3 407 285 296
3 407 296 304
3 407 304 324
3 407 324 325
3 407 325 99
3 407 99 97
3 407 97 94
3 407 94 90
3 407 90 88
3 407 88 5
3 408 73 74
3 408 74 75
3 408 75 353
3 408 353 346
3 408 346 347
3 408 347 348
3 408 348 350
3 408 350 343
3 408 343 344
3 408 344 342
3 408 342 359
3 408 359 364
3 408 364 360
3 408 360 361
3 408 361 363
3 408 363 100
3 408 100 101
3 408 101 308
3 408 308 309
3 408 309 311
3 408 311 314
3 408 314 320
3 408 320 321
3 408 321 322
3 408 322 323
3 408 323 148
3 408 148 145
3 408 145 142
3 408 142 141
3 408 141 137
3 408 137 138
3 408 138 340
3 408 340 73
